<?xml version="1.0" standalone="no"?>
<!DOCTYPE svg PUBLIC "-//W3C//DTD SVG 1.1//EN" "http://www.w3.org/Graphics/SVG/1.1/DTD/svg11.dtd">
<svg xmlns="http://www.w3.org/2000/svg">
<defs >
<font id="AlikeAngular" horiz-adv-x="521" ><font-face
    font-family="Alike Angular"
    units-per-em="1000"
    panose-1="2 0 0 0 0 0 0 0 0 0"
    ascent="984"
    descent="-270"
    alphabetic="0" />
<glyph unicode=" " glyph-name="space" horiz-adv-x="237" />
<glyph unicode="!" glyph-name="exclam" horiz-adv-x="254" d="M92 365L69 680L84 719H172L185 680L159 399L151 170H105L92 365ZM80 92L126 114L174 98L196 44L168 0L121 -19L77 8L56 53L80 92Z" />
<glyph unicode="&quot;" glyph-name="quotedbl" horiz-adv-x="360" d="M232 438L203 707L253 724L303 707L272 438H232ZM75 438L46 707L96 724L146 707L115 438H75Z" />
<glyph unicode="#" glyph-name="numbersign" horiz-adv-x="528" d="M83 215L-4 210L7 266L98 261L150 419L43 414L54 470L165 465Q177 501 185 529T202 585T218 640T238 705H299Q286 669 276 641T255 585T235 530T212 465H375Q387 501 394 529T409 585T424 640T443
705H504Q491 669 481 641T460 585T440 530T417 465L519 470L508 414L402 419L355 261L472 266L461 210L341 215Q324 161 308 108T276 0H215L293 215H135Q118 161 103 108T71 0H10L83 215ZM175 347L149 261H308L329 337L360 419H197L175 347Z" />
<glyph unicode="$" glyph-name="dollar" horiz-adv-x="542" d="M366 72L404 125L402 211L359 257L104 391L60 496L68 587L124 662L257 707L260 790H335L316 706L415 698L461 702L453 652L454 525L418 517L393 646L278 661L170 612L153 557L174 475L424 344L496
269L500 116L425 23L304 -3L312 -84H238L244 -3L112 13L66 20L74 58L83 185L119 192L134 64L243 44L366 72Z" />
<glyph unicode="%" glyph-name="percent" horiz-adv-x="732" d="M313 649L335 543L304 434L222 372H150L62 436L34 543L67 660L152 720H226L313 649ZM128 657L101 552L129 435L163 405H208L241 434L269 552L237 665L208 687H163L128 657ZM671 253L693 147L662
38L580 -24H508L420 40L392 147L425 264L510 324H584L671 253ZM486 261L459 156L487 39L521 9H566L599 38L627 156L595 269L566 291H521L486 261ZM255 0L188 -7L478 700L545 706L255 0Z" />
<glyph unicode="&amp;" glyph-name="ampersand" horiz-adv-x="731" d="M485 78L388 14L267 -15L132 22L50 108V219L106 318L216 387L148 505V574L191 656L270 700H347L417 669L467 606V537L435 461L343 369L413 271L505 186L548 291L562 351L494 367L499 402L602
397L708 402L703 367L636 351L595 278L539 149L628 56L725 30L720 -5Q706 -4 685 -4T640 -2T594 -1T558 0L485 78ZM201 75L340 51L448 117L300 296L242 353L158 269L144 164L201 75ZM249 631L228 575L239 509L317 401L386 495L391 577L368 633L307 654L249 631Z"
/>
<glyph unicode="&apos;" glyph-name="quotesingle" horiz-adv-x="191" d="M75 438L46 707L96 724L146 707L115 438H75Z" />
<glyph unicode="(" glyph-name="parenleft" horiz-adv-x="284" d="M36 394L90 590L237 790L266 768L152 531L120 282L162 8L266 -198L237 -220L113 -64L36 152V394Z" />
<glyph unicode=")" glyph-name="parenright" horiz-adv-x="284" d="M251 152L174 -64L50 -220L21 -198L125 8L167 282L135 531L21 768L50 790L197 590L251 394V152Z" />
<glyph unicode="*" glyph-name="asterisk" horiz-adv-x="432" d="M231 553L346 637L372 615L378 582L247 526L377 468L370 435L345 414L230 498L245 358L214 347L183 358L199 500L84 416L59 438L53 471L184 527L54 585L60 618L85 639L200 554L185 695L217 706L248
695L231 553Z" />
<glyph unicode="+" glyph-name="plus" horiz-adv-x="485" d="M271 350L440 356L431 292L273 286L279 114L213 123L207 284L41 278L50 342L205 348L199 520L265 511L271 350Z" />
<glyph unicode="," glyph-name="comma" horiz-adv-x="235" d="M68 90L114 108L160 89L183 58L192 -1L168 -98L105 -165L79 -137L128 -79L130 -15H85L54 11L45 53L68 90Z" />
<glyph unicode="-" glyph-name="hyphen" horiz-adv-x="526" d="M334 295L65 278L74 342L227 343L464 356L455 292L334 295Z" />
<glyph unicode="." glyph-name="period" horiz-adv-x="220" d="M68 90L114 108L160 89L174 39L150 -3L100 -17L62 7L45 53L68 90Z" />
<glyph unicode="/" glyph-name="slash" horiz-adv-x="466" d="M301 538L357 700L437 707L166 65L112 -92L31 -100L301 538Z" />
<glyph unicode="0" glyph-name="zero" horiz-adv-x="610" d="M450 30L349 -12H263L142 42L69 170L51 278V444L124 613L239 710L345 714L431 677L521 573L558 372L551 217L506 103L450 30ZM255 664L192 571L152 391L171 203L205 85L269 29H340L403 76L433 167L453
348L421 585L343 672L255 664Z" />
<glyph unicode="1" glyph-name="one" horiz-adv-x="360" d="M235 576L230 324L232 137L238 50L333 30L328 -5L189 0L47 -5L49 30L134 41L140 162L139 514L132 621H29L32 662L208 701L245 690L235 576Z" />
<glyph unicode="2" glyph-name="two" horiz-adv-x="518" d="M410 72L432 178L464 175L478 -10L399 0H83L68 -10L32 0L38 55L297 363L354 540L334 641L216 662L125 641L112 516L70 507L45 679L223 720L381 695L451 627L461 499L372 332L119 65L122 62L410 72Z" />
<glyph unicode="3" glyph-name="three" horiz-adv-x="512" d="M449 102L354 13L213 -16L131 -8L45 21L70 185L106 180L123 51L205 33L317 62L362 178L338 272L260 331L179 343V383L256 400L318 458L337 558L310 629L236 665L135 643L116 520L80 515L57 673L210
720L330 704L418 630L429 543L407 468L363 406L280 372V368L397 335L460 243L449 102Z" />
<glyph unicode="4" glyph-name="four" horiz-adv-x="560" d="M341 597L281 499L178 345L110 267L345 268L339 478L344 597H341ZM343 107V208L41 198L29 242L144 392L364 720L433 738L444 702L434 646V373L439 272L543 278L533 195L434 202V99L439 50L511 30L506
-5L384 0L261 -5L263 30L336 47L343 107Z" />
<glyph unicode="5" glyph-name="five" horiz-adv-x="502" d="M451 130L374 31L237 -19L125 -6L46 32L75 191L111 186L124 55L214 32L305 59L359 132L367 246L306 342L204 366L109 353L73 355L75 581L69 706L154 700H371L397 714H428L410 600L127 610L131 416L217
433L355 410L451 314L470 220L451 130Z" />
<glyph unicode="6" glyph-name="six" horiz-adv-x="546" d="M148 411L285 468L407 449L479 395L516 289V172L479 71L370 -9L262 -18L186 3L100 79L60 167L40 284L65 472L178 628L296 698L438 720L444 666L331 644L224 575L154 457L148 411ZM142 368L135 311L142
214L186 81L272 32H333L404 86L424 225L391 363L290 412L142 368Z" />
<glyph unicode="7" glyph-name="seven" horiz-adv-x="475" d="M102 628L81 520H42L32 625L17 710L105 700H388L476 710L469 660L269 152L229 0L215 -20L99 0L284 371L389 639L386 642L102 628Z" />
<glyph unicode="8" glyph-name="eight" horiz-adv-x="547" d="M505 132L435 29L317 -12H226L173 -1L89 45L41 130V221L112 314L186 361L115 419L73 492L84 602L144 677L230 711L338 712L439 653L475 536L428 435L353 375L441 319L505 245V132ZM131 218L132 150L163
66L278 26L377 51L417 119L414 201L359 267L230 336L167 282L131 218ZM360 639L276 671L197 651L160 590L161 517L202 460L309 401L364 460L385 543L360 639Z" />
<glyph unicode="9" glyph-name="nine" horiz-adv-x="546" d="M379 290L242 234L120 253L48 307L11 413V530L48 631L157 711L265 720L341 699L427 623L467 535L487 418L462 230L349 74L231 4L89 -18L83 36L196 58L303 127L373 245L379 290ZM237 290L384 334L392
391L385 488L341 621L255 670H194L123 616L103 477L136 339L237 290Z" />
<glyph unicode=":" glyph-name="colon" horiz-adv-x="250" d="M68 420L114 438L160 419L174 369L150 327L100 313L62 337L45 383L68 420ZM68 87L114 105L160 86L174 36L150 -6L100 -20L62 4L45 50L68 87Z" />
<glyph unicode=";" glyph-name="semicolon" horiz-adv-x="272" d="M68 420L114 438L160 419L174 369L150 327L100 313L62 337L45 383L68 420ZM68 90L114 108L160 89L183 58L192 -1L168 -98L105 -165L79 -137L128 -79L130 -15H85L54 11L45 53L68 90Z" />
<glyph unicode="&lt;" glyph-name="less" horiz-adv-x="541" d="M477 492L377 444L115 292L375 165L489 120L493 35L372 103L39 265L38 315L337 487L473 577L477 492Z" />
<glyph unicode="=" glyph-name="equal" horiz-adv-x="542" d="M208 356L73 345L81 408L332 412L471 422L462 359L208 356ZM214 201L78 190L87 253L338 257L476 267L468 204L214 201Z" />
<glyph unicode="&gt;" glyph-name="greater" horiz-adv-x="541" d="M53 573L191 486L493 319V269L163 101L43 31L45 116L158 163L416 295L152 442L51 488L53 573Z" />
<glyph unicode="?" glyph-name="question" horiz-adv-x="432" d="M164 164L120 275L142 351L271 502L292 576L277 634L233 664L165 667L112 646L90 529L56 528L43 663L124 696L213 705L272 700L335 675L381 618V544L361 490L221 348L190 301L182 249L197 174L164
164ZM150 92L196 114L244 98L266 44L238 0L191 -19L147 8L126 53L150 92Z" />
<glyph unicode="@" glyph-name="at" horiz-adv-x="830" d="M452 378L403 356L342 261L316 134L332 71L369 52L468 124L500 348L452 378ZM478 65H477L343 -15L265 21L230 131L259 274L362 399L463 426L527 410L563 423L583 398L529 101L577 29L673 81L709 236L686
417L558 520L437 541L332 521L229 451L153 310L138 145L169 10L228 -57L295 -106L438 -139L520 -126L616 -91L634 -128L532 -175L420 -194L249 -155L173 -99L93 -15L50 159L78 330L171 478L317 570L477 591L609 558L747 449L782 236L731 48L543 -29L478 65Z" />
<glyph unicode="A" glyph-name="A" horiz-adv-x="684" d="M283 632L302 720L351 728L491 358L620 50L704 30L699 -10L577 0L425 -10L427 30L509 50L439 240L318 244L203 240L138 50L214 30L209 -10L87 0L-5 -10L-3 30L75 50L193 357L283 632ZM312 597L221 295L318
291L419 295L355 455L314 597H312Z" />
<glyph unicode="B" glyph-name="B" horiz-adv-x="636" d="M484 135L470 283L402 331L332 342H212L222 45L337 40L408 55L484 135ZM332 392L436 447L447 556L396 639L336 655L219 652L212 387L332 392ZM337 700L453 685L547 590V496L493 415L399 376V374L501 352L575
276L594 204L556 71L456 13L333 -5L172 0L35 -10L37 25L117 50L127 357L117 650L35 674L40 709L167 700H337Z" />
<glyph unicode="C" glyph-name="C" horiz-adv-x="646" d="M614 70L514 2L324 -20L135 70L64 199L44 328V430L98 561L227 683L364 721H476L629 682L611 631L597 510L559 507L536 647L462 666H342L192 538L159 374L173 222L231 115L335 33L498 47L591 103L614 70Z" />
<glyph unicode="D" glyph-name="D" horiz-adv-x="739" d="M172 0L35 -5L37 30L117 50L127 332L117 650L40 670L45 705L167 700L347 709L467 682L622 596L682 473L693 350L640 126L472 15L347 -8L172 0ZM348 45L467 79L548 157L579 350L560 522L465 623L349 655H222L213
531L222 45H348Z" />
<glyph unicode="E" glyph-name="E" horiz-adv-x="625" d="M214 330L222 38L511 45L541 178L576 169L580 45L587 -10L466 0H172L35 -10L37 25L117 50L127 357L117 650L36 674L41 709L167 700H455L552 710L543 661L541 530L505 522L479 655L222 663L214 382L409
388L428 483L468 470L458 356L468 235L428 241L409 340L214 330Z" />
<glyph unicode="F" glyph-name="F" horiz-adv-x="561" d="M543 710L533 661L532 530L496 522L470 655L222 663L212 392L379 397L399 493L439 478L429 364L439 243L399 251L380 350L212 340L222 49L315 30L310 -5L167 0L35 -10L37 25L117 50L127 357L117 650L36
674L41 709L167 700H446L543 710Z" />
<glyph unicode="G" glyph-name="G" horiz-adv-x="716" d="M521 60L515 250L438 270L443 310L569 300L692 310L697 270L620 250L613 42L514 2L324 -20L135 70L64 199L44 328V430L98 561L227 683L364 721H476L629 682L611 631L597 510L559 507L536 647L462 666H342L192
538L159 374L173 222L231 115L335 33L498 47L521 60Z" />
<glyph unicode="H" glyph-name="H" horiz-adv-x="779" d="M661 50L738 30L733 -5L611 0L474 -5L476 30L556 50L566 340L394 345L211 340L218 49L298 30L288 -7L171 0L35 -7L41 30L120 49L126 366L116 650L39 670L44 710L166 700L303 710L301 670L221 650L211 395L394
392L566 395L556 650L479 670L484 710L606 700L743 710L741 670L661 650L651 366L661 50Z" />
<glyph unicode="I" glyph-name="I" horiz-adv-x="339" d="M220 141L226 50L299 30L294 -10L172 0L35 -10L37 30L112 50L119 158L123 364L120 561L113 650L40 670L45 710L167 700L304 710L302 670L226 650L219 563L215 362L220 141Z" />
<glyph unicode="J" glyph-name="J" horiz-adv-x="324" d="M117 538L111 650L34 670L39 710L161 700L298 710L296 670L216 650L209 398L216 109L180 9L118 -50L11 -106L-9 -81L93 -3L115 108L117 538Z" />
<glyph unicode="K" glyph-name="K" horiz-adv-x="666" d="M346 389L581 59L677 30L672 -10L550 0L398 -10L400 30L475 49L435 119L292 324L212 314L217 50L299 30L294 -10L172 0L35 -10L37 30L120 50L127 336L119 650L40 670L45 710L167 700L304 710L302 670L218
650L211 360L270 369L445 590L478 654L415 670L420 710L544 700L648 710L646 670L550 637L346 389Z" />
<glyph unicode="L" glyph-name="L" horiz-adv-x="548" d="M172 0L39 -10L41 30L117 50L127 356L117 650L40 670L45 710L167 700L304 710L302 670L222 650L212 356L222 46L466 65L491 188L526 185L531 55L538 0L417 10L172 0Z" />
<glyph unicode="M" glyph-name="M" horiz-adv-x="918" d="M107 138L146 650L64 670L69 705L191 700H256V680L412 291L457 160H459L499 284L657 680V700H717L854 705L852 670L769 650L813 150L831 48L899 30L894 -5L772 0L635 -5L637 30L709 47L712 140L703 290L675
590H670L631 468L468 46L484 0L436 -20L417 27L231 471L192 590H188L167 267L163 136L165 49L238 29L233 -6L128 0L21 -5L23 30L92 50L107 138Z" />
<glyph unicode="N" glyph-name="N" horiz-adv-x="757" d="M618 700L728 710L726 670L649 653L644 577L652 -20L622 -30L605 0L364 307L210 501L170 577H168L171 492V132L172 47L248 29L243 -10L138 0L36 -10L38 30L106 46L114 132L121 650L39 670L44 710L166 700H216L244
638L509 285L593 149H595L594 245L591 574L586 653L513 670L518 710L618 700Z" />
<glyph unicode="O" glyph-name="O" horiz-adv-x="753" d="M465 715L616 631L689 509L710 344L659 136L527 10L375 -24L213 12L89 140L56 234L44 418L87 549L159 650L307 715H465ZM376 26L495 46L581 204L601 342L586 474L537 589L431 670L302 661L211 581L185
520L162 434L166 236L246 84L376 26Z" />
<glyph unicode="P" glyph-name="P" horiz-adv-x="590" d="M212 292L222 50L319 30L314 -10L172 0L35 -10L37 30L120 50L127 306L122 650L40 670L45 710L167 700L301 711L383 705L464 679L543 619L568 516L550 405L489 335L313 280L212 292ZM219 655L213 336L301
325L436 382L465 495L444 587L365 664L219 655Z" />
<glyph unicode="Q" glyph-name="Q" horiz-adv-x="753" d="M465 715L616 631L689 509L710 344L659 136L527 10L415 -15L517 -79L614 -119L726 -133L807 -112L819 -134L744 -186L671 -211L578 -191L486 -141L339 -16L213 12L89 140L56 234L44 418L87 549L159 650L307
715H465ZM376 26L495 46L581 204L601 342L586 474L537 589L431 670L302 661L211 581L185 520L162 434L166 236L246 84L376 26Z" />
<glyph unicode="R" glyph-name="R" horiz-adv-x="652" d="M212 318L222 50L319 30L314 -10L172 0L35 -10L37 30L120 50L127 306L122 650L40 670L45 710L167 700L301 711L383 705L464 679L543 619L568 516L550 405L489 361L423 342L566 39H644L650 6L533 -18L468
35L344 320L313 312L212 318ZM219 655L213 362L301 357L436 408L465 495L444 587L365 664L219 655Z" />
<glyph unicode="S" glyph-name="S" horiz-adv-x="545" d="M366 63L405 117L403 206L358 254L104 395L58 503L67 597L124 674L263 720L416 708L463 712L455 661L456 530L419 522L393 654L275 670L174 632L151 566L173 481L425 343L499 266L503 108L426 12L279 -20L94
2L47 9L55 48L64 179L101 187L117 55L239 34L366 63Z" />
<glyph unicode="T" glyph-name="T" horiz-adv-x="623" d="M124 700H502L619 710L604 641L598 515L552 512L536 655L361 664L352 328L358 140L363 50L440 25L433 -10L311 0L174 -10L176 25L258 49L259 152L266 436L256 664L90 655L74 512L28 515L22 641L7 710L124 700Z" />
<glyph unicode="U" glyph-name="U" horiz-adv-x="745" d="M645 588L641 275L620 105L524 1L447 -17H331L194 12L120 117L101 265L109 559L104 650L24 670L29 710L151 700L288 710L286 670L219 650L208 555L200 326L207 167L252 77L377 30L491 48L564 148L586 305L580
580L573 654L509 670L514 710L616 700L723 710L721 670L652 654L645 588Z" />
<glyph unicode="V" glyph-name="V" horiz-adv-x="673" d="M562 537L391 36L350 -25L317 -29L296 63L193 341L102 556L51 652L-15 670L-10 710L127 700L260 710L258 670L188 654L208 568L327 259L366 102H368L423 272L524 573L540 653L471 670L476 710L579 700L687
710L685 670L614 652L562 537Z" />
<glyph unicode="W" glyph-name="W" horiz-adv-x="992" d="M880 553L741 36L707 -25L674 -29L643 63L546 338L491 497L342 36L301 -25L268 -29L247 63L157 341L95 556L55 652L-22 670L-17 710L120 700L253 710L251 670L181 654L201 568L278 259L317 102H319L369
272L464 573L431 650L352 670L357 710L490 700L623 710L621 670L552 654L571 568L674 259L712 105H714L750 272L834 573L848 653L769 670L774 710L889 700L995 710L993 670L921 651L880 553Z" />
<glyph unicode="X" glyph-name="X" horiz-adv-x="671" d="M539 601L494 542L385 375L585 54L678 26L673 -10L540 0L388 -10L390 26L461 46L424 123L359 225L314 306H312L261 227L182 114L148 49L214 30L209 -10L94 0L-8 -10L-6 30L74 50L182 192L282 349L147 572L85
652L16 670L21 710L158 700L298 710L296 670L225 653L248 593L302 506L352 410H354L397 485L484 608L504 655L441 670L446 710L552 700L659 710L657 670L585 654L539 601Z" />
<glyph unicode="Y" glyph-name="Y" horiz-adv-x="655" d="M382 130L390 50L471 30L466 -10L334 0L200 -10L202 30L281 48L286 129L289 291L117 582L57 652L-13 670L-8 710L123 700L263 710L261 670L189 654L218 583L294 454L345 358H349L398 445L484 585L510 658L438
670L443 710L556 700L663 710L661 670L588 654L537 583L375 316L382 130Z" />
<glyph unicode="Z" glyph-name="Z" horiz-adv-x="595" d="M152 0L11 -9L6 31L59 50L237 339L385 583L434 655L428 662L135 643L105 506L63 515L57 641L42 710L159 700H445L583 709L588 666L529 652L429 480L154 48L160 40L479 61L504 190L542 181L548 59L563 -10L446
0H152Z" />
<glyph unicode="[" glyph-name="bracketleft" horiz-adv-x="290" d="M280 744V690L161 695L176 311L161 -93L280 -88V-141L83 -136L97 314L83 739L280 744Z" />
<glyph unicode="\" glyph-name="backslash" horiz-adv-x="461" d="M139 598L433 -92L362 -100L300 70L33 700L104 709L139 598Z" />
<glyph unicode="]" glyph-name="bracketright" horiz-adv-x="290" d="M222 739L208 314L222 -136L25 -141V-88L144 -93L129 311L144 695L25 690V744L222 739Z" />
<glyph unicode="^" glyph-name="asciicircum" horiz-adv-x="481" d="M240 748H246L283 707L475 520L405 476L336 565L244 669H242L156 571L76 472L11 520L176 676L240 748Z" />
<glyph unicode="_" glyph-name="underscore" horiz-adv-x="654" d="M246 -120L64 -131L73 -67L410 -59L591 -49L582 -113L246 -120Z" />
<glyph unicode="`" glyph-name="grave" horiz-adv-x="187" d="M162 583L126 566L44 671L2 717L12 740L82 757L162 583Z" />
<glyph unicode="a" glyph-name="a" horiz-adv-x="496" d="M151 56L226 37L327 95L323 230H236L159 199L124 137L151 56ZM409 182L416 41L485 31L478 -2L339 -14L326 45H321L222 -14H118L48 37L27 135L71 213L191 265L323 270L319 395L300 457L219 480L122 457L119
351L80 343L54 480L169 514L298 520L376 482L408 396L409 182Z" />
<glyph unicode="b" glyph-name="b" horiz-adv-x="572" d="M165 457L172 450L276 507L385 510L491 429L533 262L503 113L431 22L287 -20L98 5L63 40L71 370L70 597L65 697L-6 694L-11 729L127 756L177 745L165 457ZM163 153L171 60L301 31L400 93L429 203L425 335L354
438L292 453L165 402L163 153Z" />
<glyph unicode="c" glyph-name="c" horiz-adv-x="484" d="M378 463L252 473L162 377L136 273L149 167L213 51L336 31L430 81L448 55L369 -8L275 -20L132 21L43 166L42 333L110 452L215 507L306 520L459 500L429 343L396 338L378 463Z" />
<glyph unicode="d" glyph-name="d" horiz-adv-x="586" d="M403 45H398L287 -20L176 -8L103 44L45 163L44 333L82 412L197 505L308 520L405 495L399 686L316 694L321 729L459 756L499 745L492 358L499 41L568 31L561 -2L422 -14L403 45ZM256 31L403 87L405 440L294
475L231 457L154 375L140 260L170 92L256 31Z" />
<glyph unicode="e" glyph-name="e" horiz-adv-x="495" d="M139 269L138 260L165 119L244 41L336 31L430 81L448 55L369 -8L275 -20L177 3L92 74L41 224L58 358L110 452L215 510L303 521L373 499L427 450L458 361L459 278L445 267L312 258L139 269ZM189 431L150
355L144 310L296 308L365 323L359 416L329 467L265 476L189 431Z" />
<glyph unicode="f" glyph-name="f" horiz-adv-x="352" d="M383 723L362 616L329 611L316 699L308 711L270 716L208 675L195 580V470L338 475L328 425L195 430L196 168L201 50L305 30L300 -5L148 0L26 -5L28 30L95 50L105 152L101 430L36 425V475L102 471L108 620L159
715L249 755L352 743L383 723Z" />
<glyph unicode="g" glyph-name="g" horiz-adv-x="522" d="M488 574L520 507L478 481L395 470L465 384L464 287L408 204L286 164L180 179L162 153L158 125L186 107L358 80L425 65L492 17L500 -102L454 -171L342 -222L184 -227L115 -206L58 -156L37 -84L67 3L135
35L99 69V138L144 191L59 257L49 384L132 480L259 510L360 490L488 574ZM231 207L313 218L366 275L374 373L330 448L257 470L161 430L133 342L165 243L231 207ZM285 6L169 22L124 -27L118 -101L163 -166L276 -183L395 -138L424 -41L285 6Z" />
<glyph unicode="h" glyph-name="h" horiz-adv-x="598" d="M188 609L185 445L296 513L398 520L490 457L505 377L503 166L511 49L582 30L577 -5L459 0L337 -5L339 30L405 50L412 155L408 373L381 439L296 454L184 397L182 263L184 166L187 50L260 30L255 -5L137
0L15 -5L17 30L83 50L92 155L88 593L81 697L10 694L5 729L143 756L193 745L188 609Z" />
<glyph unicode="i" glyph-name="i" horiz-adv-x="290" d="M86 708L132 730L180 714L202 660L174 616L127 597L83 624L62 669L86 708ZM199 363L193 263L196 166L200 50L273 30L268 -5L150 0L28 -5L30 30L96 50L101 155L99 347L94 451L23 448L18 483L156 510L206
499L199 363Z" />
<glyph unicode="j" glyph-name="j" horiz-adv-x="261" d="M188 0L165 -104L88 -184L-5 -243L-24 -203L36 -157L78 -94L90 0L91 155V347L82 451L13 448L8 483L146 510L196 499L189 363L185 263L188 0ZM76 708L122 730L170 714L192 660L164 616L117 597L73 624L52
669L76 708Z" />
<glyph unicode="k" glyph-name="k" horiz-adv-x="537" d="M319 392L365 459L298 470L303 505L408 500L500 505L498 470L428 448L285 294L368 177L471 50L530 30L525 -5L421 0L326 -5L328 30L376 33L349 83L233 237H184L186 166L188 50L257 30L251 -5L140 0L12
-5L16 30L86 47L89 155L93 374L89 597L84 697L13 694L8 729L146 756L196 745L189 613L183 276H214L319 392Z" />
<glyph unicode="l" glyph-name="l" horiz-adv-x="279" d="M189 613L183 263L186 166L194 50L267 30L262 -5L140 0L18 -5L20 30L86 50L91 155L95 374L89 597L84 697L13 694L8 729L146 756L196 745L189 613Z" />
<glyph unicode="m" glyph-name="m" horiz-adv-x="891" d="M515 49L586 30L581 -5L463 0L341 -5L343 30L409 50L416 155L412 373L385 439L300 454L201 401L199 363L193 263L195 166L200 50L273 30L268 -5L150 0L28 -5L30 30L96 50L103 155L99 347L94 451L23 448L18
483L156 510L206 499L203 452L300 513L402 520L494 457L499 430L599 513L701 520L793 457L808 377L806 166L814 49L885 30L880 -5L762 0L640 -5L642 30L708 50L715 155L711 373L684 439L599 454L507 387L509 377L507 166L515 49Z" />
<glyph unicode="n" glyph-name="n" horiz-adv-x="603" d="M525 49L596 30L591 -5L473 0L351 -5L353 30L419 50L426 155L422 373L395 439L310 454L201 398L199 363L193 263L195 166L200 50L273 30L268 -5L150 0L28 -5L30 30L96 50L103 155L94 451L23 448L18 483L156
510L206 499L203 448L310 513L412 520L504 457L519 377L517 166L525 49Z" />
<glyph unicode="o" glyph-name="o" horiz-adv-x="576" d="M39 190V321L98 440L211 515L348 520L473 445L538 325L526 142L452 24L297 -20L167 5L72 91L39 190ZM149 355L144 243L156 127L199 52L305 26L403 69L432 225L422 355L385 438L312 475L212 464L149 355Z" />
<glyph unicode="p" glyph-name="p" horiz-adv-x="587" d="M185 455H192L299 520L410 508L483 456L541 337L542 167L504 88L389 -5L278 -20L183 5L186 -84L194 -200L267 -220L262 -255L140 -250L18 -255L20 -220L86 -200L91 -95L95 124L89 347L84 454L13 451L8
486L146 513L184 502L185 455ZM184 60L292 25L355 43L432 125L446 240L416 408L327 461L187 413L189 363L184 60Z" />
<glyph unicode="q" glyph-name="q" horiz-adv-x="566" d="M404 45H396L289 -20L178 -8L105 44L47 163L46 333L84 412L199 505L310 520L414 493V492L504 469L499 347L493 124L497 -95L502 -200L568 -220L570 -255L448 -250L326 -255L321 -220L394 -200L402 -84L405
13L404 45ZM402 441L296 475L233 457L156 375L142 260L172 92L261 39L403 87L399 363L402 441Z" />
<glyph unicode="r" glyph-name="r" horiz-adv-x="431" d="M202 418H206L268 489L336 519L411 500L394 351L359 358L334 461L269 440L198 357L193 263L196 166L200 50L300 30L295 -5L150 0L28 -5L30 30L96 50L101 155L99 347L94 451L23 448L18 483L156 510L206
499L202 418Z" />
<glyph unicode="s" glyph-name="s" horiz-adv-x="432" d="M107 39L190 26L283 39L305 107L278 159L92 272L52 335L50 441L121 501L226 520L373 490L352 343L310 357L291 461L222 474L147 457L128 402L152 343L344 233L391 174L395 80L327 0L207 -20L124 -16L31
20L56 164L99 150L107 39Z" />
<glyph unicode="t" glyph-name="t" horiz-adv-x="323" d="M261 -10L193 -20L122 4L90 84L95 270L90 438L21 448L15 483L94 504L130 605H181L178 493L299 489L293 445L188 438L184 392L188 89L208 29L302 54L317 24L261 -10Z" />
<glyph unicode="u" glyph-name="u" horiz-adv-x="590" d="M183 345V127L210 61L294 50L403 115V221L402 346L397 450L326 447L321 482L459 509L509 498L502 362L501 282L503 221V41L573 21L568 -14H431L408 70L295 -13L193 -20L101 43L86 123L87 337L77 451L6
448L1 483L139 510L189 499L183 345Z" />
<glyph unicode="v" glyph-name="v" horiz-adv-x="565" d="M106 364L61 452L-6 470L-1 505L121 500L250 505L248 470L185 450L201 392L266 225L306 79H309L336 181L415 389L431 453L360 470L365 505L456 500L562 505L560 470L498 450L455 358L332 29L302 -23L269
-30L106 364Z" />
<glyph unicode="w" glyph-name="w" horiz-adv-x="832" d="M114 364L69 452L2 470L7 505L129 500L251 505L249 470L181 450L197 392L251 225L291 79H294L321 181L397 396L369 452L302 470L307 505L429 500L551 505L549 470L481 450L497 392L545 225L585 79H588L615
181L685 389L701 453L623 470L628 505L726 500L832 505L830 470L768 450L725 358L618 29L587 -23L554 -30L426 328L324 29L293 -23L260 -30L114 364Z" />
<glyph unicode="x" glyph-name="x" horiz-adv-x="550" d="M232 233L121 396L74 453L7 470L12 505L134 500L263 505L261 470L194 454L210 416L287 299H291L325 349L374 410L398 453L327 470L332 505L441 500L546 505L544 470L482 453L435 405L322 265L470 50L537
30L532 -5L420 0L298 -5L300 30L352 46L328 97L279 165L258 196H255L186 96L156 47L216 30L211 -5L113 0L11 -5L13 30L85 50L232 233Z" />
<glyph unicode="y" glyph-name="y" horiz-adv-x="573" d="M114 -270L83 -225L53 -143L91 -129L147 -212L198 -163L268 -3L113 394L78 455L7 470L12 505L134 500L253 505L251 470L193 453L208 391L262 253L317 92H320L370 249L421 392L431 456L375 470L380 505L487
500L572 505L570 470L509 452L474 377L325 -21L239 -186L164 -260L114 -270Z" />
<glyph unicode="z" glyph-name="z" horiz-adv-x="469" d="M130 40L357 58L383 170L416 167L429 61L442 -9L360 0H109L9 -6V28L54 69L303 447L298 459L116 448L94 351L59 357L49 447L41 512L122 500H422L436 463L404 437L338 332L126 46L130 40Z" />
<glyph unicode="{" glyph-name="braceleft" horiz-adv-x="309" d="M102 304L179 264L207 176V-23L224 -74L278 -94V-135L200 -123L147 -90L124 -12V190L91 263L3 281V334L91 352L124 425V627L146 698L190 738L278 750V709L224 689L207 638V439L179 351L102 311V304Z" />
<glyph unicode="|" glyph-name="bar" horiz-adv-x="224" d="M86 -77L71 769L145 760L139 558L153 -240L79 -231L86 -77Z" />
<glyph unicode="}" glyph-name="braceright" horiz-adv-x="309" d="M219 311L142 351L114 439V638L97 689L43 709V750L131 738L175 698L197 627V425L230 352L318 334V281L230 263L197 190V-12L174 -90L121 -123L43 -135V-94L97 -74L114 -23V176L142 264L219 304V311Z" />
<glyph unicode="~" glyph-name="asciitilde" horiz-adv-x="491" d="M306 542L168 648L121 653L81 587L32 591L71 688L140 710L194 700L339 603L386 610L410 684L459 674L437 589L377 539L306 542Z" />
<glyph unicode="&#xa1;" glyph-name="exclamdown" horiz-adv-x="254" d="M80 164L57 -151L72 -190H160L173 -151L147 130L139 359H93L80 164ZM68 437L114 415L162 431L184 485L156 529L109 548L65 521L44 476L68 437Z" />
<glyph unicode="&#xa2;" glyph-name="cent" horiz-adv-x="517" d="M385 550L259 560L169 464L143 360L156 254L220 138L343 118L437 168L455 142L376 79L324 72L335 -36L261 -38L267 71L139 108L50 253L49 420L117 539L222 594L269 601L261 710H336L324 605L466
587L436 430L403 425L385 550Z" />
<glyph unicode="&#xa3;" glyph-name="sterling" horiz-adv-x="568" d="M439 55L466 178L502 185L518 -6L457 0H179L46 -5L48 30L124 50L130 308L74 304L84 354L130 350L136 560L205 685L351 717L488 685L478 548L452 542L426 660L359 678L267 654L229 575L223
350L389 354L379 304L223 307L229 45L439 55Z" />
<glyph unicode="&#xa4;" glyph-name="currency" horiz-adv-x="570" d="M430 458L469 360L422 255L500 190L449 137L379 214L284 175L184 216L118 138L65 189L141 258L101 359L142 456L66 520L117 573L183 498L287 544L389 501L448 572L501 521L430 458ZM384 451L284
491L194 459L157 360L188 266L285 228L379 265L413 360L384 451Z" />
<glyph unicode="&#xa5;" glyph-name="yen" horiz-adv-x="739" d="M420 288L422 221L557 226L547 176L424 181L426 130L434 50L515 30L510 -10L378 0L244 -10L246 30L325 48L330 129L329 184L192 176L202 226L329 223V289L192 286L202 336L304 333L161 582L101
652L31 670L36 710L167 700L307 710L305 670L233 654L262 583L338 454L389 349H393L442 445L528 585L554 658L482 670L487 710L600 700L707 710L705 670L632 654L581 583L428 331L557 336L547 286L420 288Z" />
<glyph unicode="&#xa6;" glyph-name="brokenbar" horiz-adv-x="230" d="M78 371L71 769L145 760L139 558L142 360L78 371ZM145 192L153 -240L79 -231L86 -77L81 200L145 192Z" />
<glyph unicode="&#xa7;" glyph-name="section" horiz-adv-x="510" d="M195 548L378 444L440 378L451 276L372 173L436 116L456 6L388 -97L310 -130L218 -142L69 -104L87 54L132 49L145 -77L244 -100L335 -68L359 13L341 73L72 236L52 380L133 473L62 571L80 676L152
751L276 775L399 754L430 716L412 584L367 588L356 719L272 734L188 699L156 614L195 548ZM141 383L162 287L323 199L368 293L335 364L173 451L141 383Z" />
<glyph unicode="&#xa8;" glyph-name="dieresis" horiz-adv-x="346" d="M30 691L74 712L121 697L142 645L115 603L70 585L27 611L7 654L30 691ZM195 691L240 712L286 697L307 645L280 603L235 585L193 611L172 654L195 691Z" />
<glyph unicode="&#xa9;" glyph-name="copyright" horiz-adv-x="705" d="M352 500L481 474L466 369L433 372L421 458L339 465L277 408L256 296L275 206L348 143L472 176L485 156L424 112L323 104L238 140L179 246V360L247 466L352 500ZM226 588L352 615L481 586L579
510L633 414L651 306L629 190L562 87L464 22L352 0L214 33L125 105L71 196L52 306L73 421L135 521L226 588ZM239 551L170 495L114 410L97 307L110 220L150 139L235 66L353 38L450 57L535 116L589 206L606 307L591 405L544 489L465 551L353 577L239 551Z" />
<glyph unicode="&#xaa;" glyph-name="ordfeminine" horiz-adv-x="393" d="M130 429L177 419L235 456V543L133 523L110 472L130 429ZM307 427L352 414L349 381H249L237 419H233L164 381H98L46 432V495L93 556L235 578V651L177 689L116 673L111 615L75 612L63 696L177
718L263 709L307 655V427Z" />
<glyph unicode="&#xab;" glyph-name="guillemotleft" horiz-adv-x="574" d="M39 301L174 421L264 512L307 486L201 374L130 287V283L196 210L321 95L280 67L188 148L41 261L39 301ZM249 309L372 418L474 517L517 492L407 373L347 294V290L406 224L541 96L500 67L386
165L251 269L249 309Z" />
<glyph unicode="&#xac;" glyph-name="logicalnot" horiz-adv-x="624" d="M486 167L485 298L277 300L69 284L75 347L382 353L545 363L552 158L486 167Z" />
<glyph unicode="&#xad;" glyph-name="uni00AD" horiz-adv-x="356" d="M223 293L64 281L73 345L136 340L293 353L284 289L223 293Z" />
<glyph unicode="&#xae;" glyph-name="registered" horiz-adv-x="705" d="M227 588L353 615L482 586L580 510L634 414L652 306L630 190L563 87L465 22L353 0L215 33L126 105L72 196L53 306L74 421L136 521L227 588ZM240 551L171 495L115 410L98 307L111 220L151
139L236 66L354 38L451 57L536 116L590 206L607 307L592 405L545 489L466 551L354 577L240 551ZM265 310L260 445L223 455L225 477L290 475L373 478L433 457L470 412V362L444 320L403 300L473 163L510 159L509 139L462 133L424 157L362 291L306 290L310 167L347
157L345 137L286 139L219 137L220 157L260 167L265 310ZM399 430L359 452L310 445L306 318L353 315L396 329L415 381L399 430Z" />
<glyph unicode="&#xaf;" glyph-name="overscore" horiz-adv-x="530" d="M183 568L1 557L10 621L347 629L528 639L519 575L183 568Z" />
<glyph unicode="&#xb0;" glyph-name="degree" horiz-adv-x="353" d="M274 660L315 562L278 467L176 423L73 470L39 561L75 655L179 700L274 660ZM243 630L176 660L115 634L89 562L106 501L177 463L239 490L265 562L243 630Z" />
<glyph unicode="&#xb1;" glyph-name="plusminus" horiz-adv-x="514" d="M285 353L454 359L445 295L287 289L292 139L226 148L221 287L55 281L64 345L219 351L213 523L279 514L285 353ZM198 50L62 39L71 102L322 106L461 116L452 53L198 50Z" />
<glyph unicode="&#xb2;" glyph-name="twosuperior" horiz-adv-x="389" d="M276 377L295 459L322 449L327 307L55 314L45 377L180 486L234 570L235 652L173 690L109 677L99 590L68 597L59 700L165 726L254 719L315 665V576L232 469L113 370V367L276 377Z" />
<glyph unicode="&#xb3;" glyph-name="threesuperior" horiz-adv-x="385" d="M257 462L191 496L150 501V542L185 549L241 582V656L185 689L113 677L103 589L69 597L60 700L166 727L254 718L318 666V599L287 556L226 530V528L298 505L339 460V380L293 332L183 304L55
331L64 434L91 443L106 356L206 343L257 382V462Z" />
<glyph unicode="&#xb4;" glyph-name="acute" horiz-adv-x="203" d="M82 757L152 740L162 717L120 671L38 566L2 583L82 757Z" />
<glyph unicode="&#xb5;" glyph-name="mu" horiz-adv-x="623" d="M133 27L174 -110L182 -172L107 -177Q105 -136 103 -95Q101 -60 99 -20T94 56L96 337L87 500L148 510L198 499L192 345V127L219 61L303 50L415 117V221L414 346L410 500L471 509L521 500L514 362L513
41L592 21L587 -14H443L420 71H419L304 -13L202 -20L133 27Z" />
<glyph unicode="&#xb6;" glyph-name="paragraph" horiz-adv-x="551" d="M355 700L492 705L490 670L410 650V378L430 -90H365L361 280L345 650H297L317 -90H252L242 281L126 311L46 407V565L142 672L267 700H355Z" />
<glyph unicode="&#xb7;" glyph-name="middot" horiz-adv-x="244" d="M81 350L127 368L173 349L187 299L163 257L113 243L75 267L58 313L81 350Z" />
<glyph unicode="&#xb8;" glyph-name="cedilla" horiz-adv-x="255" d="M192 -55L238 -103L236 -160L186 -222L95 -234L23 -221L38 -192L109 -205L165 -182L172 -134L141 -105L82 -96L80 7L116 2L123 -47L192 -55Z" />
<glyph unicode="&#xb9;" glyph-name="onesuperior" horiz-adv-x="325" d="M205 452L210 364L288 344L283 309L165 314L49 309L51 344L131 364L136 456V652L50 646L45 675L175 720L205 711V452Z" />
<glyph unicode="&#xba;" glyph-name="ordmasculine" horiz-adv-x="413" d="M45 508V596L82 672L175 723H236L328 675L370 598V511L325 421L236 375H182L84 427L45 508ZM128 639L109 542L131 461L189 413H231L286 460L305 549L283 639L225 684H186L128 639Z" />
<glyph unicode="&#xbb;" glyph-name="guillemotright" horiz-adv-x="574" d="M541 283L406 163L316 72L273 98L379 210L450 297V301L384 374L259 489L300 517L392 436L539 323L541 283ZM331 275L208 166L106 67L63 92L173 211L233 290V294L174 360L39 488L80 517L194
419L329 315L331 275Z" />
<glyph unicode="&#xbc;" glyph-name="onequarter" horiz-adv-x="804" d="M457 452L462 364L540 344L535 309L417 314L301 309L303 344L383 364L388 456V652L302 646L297 675L427 720L457 711V452ZM284 3L217 -4L507 703L574 709L284 3ZM759 36L754 1L651 6L540
1L542 36L611 56V116L462 101L439 139L625 421L663 430L696 417L686 347V155L753 160L744 111L686 117V56L759 36ZM611 160L617 333L615 335L575 259L544 212L501 154L611 160Z" />
<glyph unicode="&#xbd;" glyph-name="onehalf" horiz-adv-x="890" d="M280 0L213 -7L503 700L570 706L280 0ZM454 452L459 364L537 344L532 309L414 314L298 309L300 344L380 364L385 456V652L299 646L294 675L424 720L454 711V452ZM710 64L729 146L756 136L761
-6L489 1L479 64L614 173L668 257L669 339L607 377L543 364L533 277L502 284L493 387L599 413L688 406L749 352V263L666 156L547 57V54L710 64Z" />
<glyph unicode="&#xbe;" glyph-name="threequarters" horiz-adv-x="839" d="M319 3L252 -4L542 703L609 709L319 3ZM510 462L444 496L403 501V542L438 549L494 582V656L438 689L366 677L356 589L322 597L313 700L419 727L507 718L571 666V599L540 556L479 530V528L551
505L592 460V380L546 332L436 304L308 331L317 434L344 443L359 356L459 343L510 382V462ZM794 36L789 1L686 6L575 1L577 36L646 56V116L497 101L474 139L660 421L698 430L731 417L721 347V155L788 160L779 111L721 117V56L794 36ZM646 160L652 333L650 335L610
259L579 212L536 154L646 160Z" />
<glyph unicode="&#xbf;" glyph-name="questiondown" horiz-adv-x="432" d="M260 352L304 241L282 165L153 14L132 -60L147 -118L191 -148L259 -151L312 -130L334 -13L368 -12L381 -147L300 -180L211 -189L152 -184L89 -159L43 -102V-28L63 26L203 168L234 215L242
267L227 342L260 352ZM274 424L228 402L180 418L158 472L186 516L233 535L277 508L298 463L274 424Z" />
<glyph unicode="&#xc0;" glyph-name="Agrave" horiz-adv-x="684" d="M283 632L302 720L351 728L491 358L620 50L704 30L699 -10L577 0L425 -10L427 30L509 50L439 240L318 244L203 240L138 50L214 30L209 -10L87 0L-5 -10L-3 30L75 50L193 357L283 632ZM312 597L221
295L318 291L419 295L355 455L314 597H312ZM384 774L354 746L243 818L188 847L189 873L251 912L384 774Z" />
<glyph unicode="&#xc1;" glyph-name="Aacute" horiz-adv-x="684" d="M283 632L302 720L351 728L491 358L620 50L704 30L699 -10L577 0L425 -10L427 30L509 50L439 240L318 244L203 240L138 50L214 30L209 -10L87 0L-5 -10L-3 30L75 50L193 357L283 632ZM312 597L221
295L318 291L419 295L355 455L314 597H312ZM420 912L482 873L483 847L428 818L317 746L287 774L420 912Z" />
<glyph unicode="&#xc2;" glyph-name="Acircumflex" horiz-adv-x="684" d="M283 632L302 720L351 728L491 358L620 50L704 30L699 -10L577 0L425 -10L427 30L509 50L439 240L318 244L203 240L138 50L214 30L209 -10L87 0L-5 -10L-3 30L75 50L193 357L283 632ZM312
597L221 295L318 291L419 295L355 455L314 597H312ZM477 768L451 758L386 805L331 858L211 758L182 766L179 782L277 883L304 927H367L404 873L489 782L477 768Z" />
<glyph unicode="&#xc3;" glyph-name="Atilde" horiz-adv-x="684" d="M283 632L302 720L351 728L491 358L620 50L704 30L699 -10L577 0L425 -10L427 30L509 50L439 240L318 244L203 240L138 50L214 30L209 -10L87 0L-5 -10L-3 30L75 50L193 357L283 632ZM312 597L221
295L318 291L419 295L355 455L314 597H312ZM202 794L177 817L240 891L300 893L382 854H419L448 882L477 872L456 816L410 787L362 788L281 824L242 823L202 794Z" />
<glyph unicode="&#xc4;" glyph-name="Adieresis" horiz-adv-x="684" d="M283 632L302 720L351 728L491 358L620 50L704 30L699 -10L577 0L425 -10L427 30L509 50L439 240L318 244L203 240L138 50L214 30L209 -10L87 0L-5 -10L-3 30L75 50L193 357L283 632ZM312
597L221 295L318 291L419 295L355 455L314 597H312ZM184 879L228 900L275 885L296 833L269 791L224 773L181 799L161 842L184 879ZM374 879L419 900L465 885L485 833L459 791L414 773L373 799L356 842L374 879Z" />
<glyph unicode="&#xc5;" glyph-name="Aring" horiz-adv-x="684" d="M283 632L302 720L351 728L491 358L620 50L704 30L699 -10L577 0L425 -10L427 30L509 50L439 240L318 244L203 240L138 50L214 30L209 -10L87 0L-5 -10L-3 30L75 50L193 357L283 632ZM312 597L221
295L318 291L419 295L355 455L314 597H312ZM278 830L310 815L347 827L361 857L348 892L317 904L280 891L266 863L278 830ZM246 936L320 958L393 928L419 843L379 783L306 756L237 792L207 865L246 936Z" />
<glyph unicode="&#xc6;" glyph-name="AE" horiz-adv-x="884" d="M514 330L522 38L791 45L821 178L856 169L860 45L867 -10L746 0H472L335 -10L337 25L417 50L423 244L372 248L228 240L143 50L220 30L215 -5L83 0L-9 -5L-7 30L73 50L375 700H735L832 710L823 661L821
530L785 522L759 655L522 663L514 380L689 388L708 483L748 470L738 356L748 235L708 241L689 340L514 330ZM365 290L425 292L427 357L420 558L423 650L416 655L248 295L365 290Z" />
<glyph unicode="&#xc7;" glyph-name="Ccedilla" horiz-adv-x="646" d="M441 -44L487 -92L485 -149L435 -211L344 -223L272 -210L287 -181L358 -194L414 -171L421 -123L390 -94L331 -85L324 -20L135 70L64 199L44 328V430L98 561L227 683L364 721H476L629 682L611
631L597 510L559 507L536 647L462 666H342L192 538L159 374L173 222L231 115L335 33L498 47L591 103L614 70L514 2L369 -15L372 -36L441 -44Z" />
<glyph unicode="&#xc8;" glyph-name="Egrave" horiz-adv-x="625" d="M214 330L222 38L511 45L541 178L576 169L580 45L587 -10L466 0H172L35 -10L37 25L117 50L127 357L117 650L36 674L41 709L167 700H455L552 710L543 661L541 530L505 522L479 655L222 663L214
382L409 388L428 483L468 470L458 356L468 235L428 241L409 340L214 330ZM383 774L353 746L242 818L187 847L188 873L250 912L383 774Z" />
<glyph unicode="&#xc9;" glyph-name="Eacute" horiz-adv-x="625" d="M214 330L222 38L511 45L541 178L576 169L580 45L587 -10L466 0H172L35 -10L37 25L117 50L127 357L117 650L36 674L41 709L167 700H455L552 710L543 661L541 530L505 522L479 655L222 663L214
382L409 388L428 483L468 470L458 356L468 235L428 241L409 340L214 330ZM399 912L461 873L462 847L407 818L296 746L266 774L399 912Z" />
<glyph unicode="&#xca;" glyph-name="Ecircumflex" horiz-adv-x="625" d="M214 330L222 38L511 45L541 178L576 169L580 45L587 -10L466 0H172L35 -10L37 25L117 50L127 357L117 650L36 674L41 709L167 700H455L552 710L543 661L541 530L505 522L479 655L222 663L214
382L409 388L428 483L468 470L458 356L468 235L428 241L409 340L214 330ZM476 768L450 758L385 805L330 858L210 758L181 766L178 782L276 883L303 927H366L403 873L488 782L476 768Z" />
<glyph unicode="&#xcb;" glyph-name="Edieresis" horiz-adv-x="625" d="M214 330L222 38L511 45L541 178L576 169L580 45L587 -10L466 0H172L35 -10L37 25L117 50L127 357L117 650L36 674L41 709L167 700H455L552 710L543 661L541 530L505 522L479 655L222 663L214
382L409 388L428 483L468 470L458 356L468 235L428 241L409 340L214 330ZM193 879L237 900L284 885L305 833L278 791L233 773L190 799L170 842L193 879ZM383 879L428 900L474 885L494 833L468 791L423 773L382 799L365 842L383 879Z" />
<glyph unicode="&#xcc;" glyph-name="Igrave" horiz-adv-x="339" d="M220 141L226 50L299 30L294 -10L172 0L35 -10L37 30L112 50L119 158L123 364L120 561L113 650L40 670L45 710L167 700L304 710L302 670L226 650L219 563L215 362L220 141ZM467 1031L437 1003L326
1075L271 1104L272 1130L334 1169L467 1031Z" />
<glyph unicode="&#xcd;" glyph-name="Iacute" horiz-adv-x="339" d="M220 141L226 50L299 30L294 -10L172 0L35 -10L37 30L112 50L119 158L123 364L120 561L113 650L40 670L45 710L167 700L304 710L302 670L226 650L219 563L215 362L220 141ZM256 1169L318 1130L319
1104L264 1075L153 1003L123 1031L256 1169Z" />
<glyph unicode="&#xce;" glyph-name="Icircumflex" horiz-adv-x="339" d="M220 141L226 50L299 30L294 -10L172 0L35 -10L37 30L112 50L119 158L123 364L120 561L113 650L40 670L45 710L167 700L304 710L302 670L226 650L219 563L215 362L220 141ZM570 1025L544
1015L479 1062L424 1115L304 1015L275 1023L272 1039L370 1140L397 1184H460L497 1130L582 1039L570 1025Z" />
<glyph unicode="&#xcf;" glyph-name="Idieresis" horiz-adv-x="339" d="M220 141L226 50L299 30L294 -10L172 0L35 -10L37 30L112 50L119 158L123 364L120 561L113 650L40 670L45 710L167 700L304 710L302 670L226 650L219 563L215 362L220 141ZM287 1136L331
1157L378 1142L399 1090L372 1048L327 1030L284 1056L264 1099L287 1136ZM477 1136L522 1157L568 1142L588 1090L562 1048L517 1030L476 1056L459 1099L477 1136Z" />
<glyph unicode="&#xd0;" glyph-name="Eth" horiz-adv-x="739" d="M172 0L35 -5L37 30L117 50L127 332L126 343L32 340L43 395L125 393L117 650L40 670L45 705L167 700L347 709L467 682L622 596L682 473L693 350L640 126L472 15L347 -8L172 0ZM348 45L467 79L548
157L579 350L560 522L465 623L349 655H222L213 531L215 391L406 395L395 340L234 347L216 346L222 45H348Z" />
<glyph unicode="&#xd1;" glyph-name="Ntilde" horiz-adv-x="757" d="M618 700L728 710L726 670L649 653L644 577L652 -20L622 -30L605 0L364 307L210 501L170 577H168L171 492V132L172 47L248 29L243 -10L138 0L36 -10L38 30L106 46L114 132L121 650L39 670L44
710L166 700H216L244 638L509 285L593 149H595L594 245L591 574L586 653L513 670L518 710L618 700ZM272 794L247 817L310 891L370 893L452 854H489L518 882L547 872L526 816L480 787L432 788L351 824L312 823L272 794Z" />
<glyph unicode="&#xd2;" glyph-name="Ograve" horiz-adv-x="753" d="M465 715L616 631L689 509L710 344L659 136L527 10L375 -24L213 12L89 140L56 234L44 418L87 549L159 650L307 715H465ZM376 26L495 46L581 204L601 342L586 474L537 589L431 670L302 661L211
581L185 520L162 434L166 236L246 84L376 26ZM434 774L404 746L293 818L238 847L239 873L301 912L434 774Z" />
<glyph unicode="&#xd3;" glyph-name="Oacute" horiz-adv-x="753" d="M465 715L616 631L689 509L710 344L659 136L527 10L375 -24L213 12L89 140L56 234L44 418L87 549L159 650L307 715H465ZM376 26L495 46L581 204L601 342L586 474L537 589L431 670L302 661L211
581L185 520L162 434L166 236L246 84L376 26ZM450 912L512 873L513 847L458 818L347 746L317 774L450 912Z" />
<glyph unicode="&#xd4;" glyph-name="Ocircumflex" horiz-adv-x="753" d="M465 715L616 631L689 509L710 344L659 136L527 10L375 -24L213 12L89 140L56 234L44 418L87 549L159 650L307 715H465ZM376 26L495 46L581 204L601 342L586 474L537 589L431 670L302 661L211
581L185 520L162 434L166 236L246 84L376 26ZM527 768L501 758L436 805L381 858L261 758L232 766L229 782L327 883L354 927H417L454 873L539 782L527 768Z" />
<glyph unicode="&#xd5;" glyph-name="Otilde" horiz-adv-x="753" d="M465 715L616 631L689 509L710 344L659 136L527 10L375 -24L213 12L89 140L56 234L44 418L87 549L159 650L307 715H465ZM376 26L495 46L581 204L601 342L586 474L537 589L431 670L302 661L211
581L185 520L162 434L166 236L246 84L376 26ZM262 794L237 817L300 891L360 893L442 854H479L508 882L537 872L516 816L470 787L422 788L341 824L302 823L262 794Z" />
<glyph unicode="&#xd6;" glyph-name="Odieresis" horiz-adv-x="753" d="M465 715L616 631L689 509L710 344L659 136L527 10L375 -24L213 12L89 140L56 234L44 418L87 549L159 650L307 715H465ZM376 26L495 46L581 204L601 342L586 474L537 589L431 670L302 661L211
581L185 520L162 434L166 236L246 84L376 26ZM234 879L278 900L325 885L346 833L319 791L274 773L231 799L211 842L234 879ZM424 879L469 900L515 885L535 833L509 791L464 773L423 799L406 842L424 879Z" />
<glyph unicode="&#xd7;" glyph-name="multiply" horiz-adv-x="445" d="M232 353L335 486L374 434L266 308L394 204L340 164L215 279L108 149L69 201L182 327L51 434L104 475L232 353Z" />
<glyph unicode="&#xd8;" glyph-name="Oslash" horiz-adv-x="753" d="M465 715L530 679L579 765L638 755L579 651L616 631L689 509L710 344L659 136L527 10L375 -24L216 11L181 -50L120 -40L173 53L89 140L56 234L44 418L87 549L159 650L307 715H465ZM540 582L255
80L376 26L495 46L581 204L601 342L586 474L540 582ZM166 236L219 134L496 620L431 670L302 661L211 581L185 520L162 434L166 236Z" />
<glyph unicode="&#xd9;" glyph-name="Ugrave" horiz-adv-x="745" d="M645 588L641 275L620 105L524 1L447 -17H331L194 12L120 117L101 265L109 559L104 650L24 670L29 710L151 700L288 710L286 670L219 650L208 555L200 326L207 167L252 77L377 30L491 48L564
148L586 305L580 580L573 654L509 670L514 710L616 700L723 710L721 670L652 654L645 588ZM428 773L398 745L287 817L232 846L233 872L295 911L428 773Z" />
<glyph unicode="&#xda;" glyph-name="Uacute" horiz-adv-x="745" d="M645 588L641 275L620 105L524 1L447 -17H331L194 12L120 117L101 265L109 559L104 650L24 670L29 710L151 700L288 710L286 670L219 650L208 555L200 326L207 167L252 77L377 30L491 48L564
148L586 305L580 580L573 654L509 670L514 710L616 700L723 710L721 670L652 654L645 588ZM485 911L547 872L548 846L493 817L382 745L352 773L485 911Z" />
<glyph unicode="&#xdb;" glyph-name="Ucircumflex" horiz-adv-x="745" d="M645 588L641 275L620 105L524 1L447 -17H331L194 12L120 117L101 265L109 559L104 650L24 670L29 710L151 700L288 710L286 670L219 650L208 555L200 326L207 167L252 77L377 30L491 48L564
148L586 305L580 580L573 654L509 670L514 710L616 700L723 710L721 670L652 654L645 588ZM551 767L525 757L460 804L405 857L285 757L256 765L253 781L351 882L378 926H441L478 872L563 781L551 767Z" />
<glyph unicode="&#xdc;" glyph-name="Udieresis" horiz-adv-x="745" d="M645 588L641 275L620 105L524 1L447 -17H331L194 12L120 117L101 265L109 559L104 650L24 670L29 710L151 700L288 710L286 670L219 650L208 555L200 326L207 167L252 77L377 30L491 48L564
148L586 305L580 580L573 654L509 670L514 710L616 700L723 710L721 670L652 654L645 588ZM258 878L302 899L349 884L370 832L343 790L298 772L255 798L235 841L258 878ZM448 878L493 899L539 884L559 832L533 790L488 772L447 798L430 841L448 878Z" />
<glyph unicode="&#xdd;" glyph-name="Yacute" horiz-adv-x="655" d="M382 130L390 50L471 30L466 -10L334 0L200 -10L202 30L281 48L286 129L289 291L117 582L57 652L-13 670L-8 710L123 700L263 710L261 670L189 654L218 583L294 454L345 358H349L398 445L484
585L510 658L438 670L443 710L556 700L663 710L661 670L588 654L537 583L375 316L382 130ZM441 912L503 873L504 847L449 818L338 746L308 774L441 912Z" />
<glyph unicode="&#xde;" glyph-name="Thorn" horiz-adv-x="574" d="M219 153L220 141L226 50L299 30L294 -10L172 0L35 -10L37 30L112 50L119 158L123 364L120 561L113 650L40 670L45 710L167 700L304 710L302 670L226 650L219 568L278 576L360 570L441 544L520
484L545 381L527 270L466 200L290 145L219 153ZM218 197L278 190L413 247L442 360L421 452L342 529L218 521L215 362L218 197Z" />
<glyph unicode="&#xdf;" glyph-name="germandbls" horiz-adv-x="630" d="M316 727L206 673L194 580L195 168L204 0H147L25 -5L27 30L94 50L104 152V325L100 430L35 425L45 475H104L100 560L122 667L204 744L329 769L456 730L523 661L542 586L529 521L474 486L398
460L372 410L381 357L563 241L609 189V104L590 45L541 -1L432 -20L356 -14L286 9L296 162L334 157L357 43L425 26L507 45L522 111L493 170L323 270L287 336V426L337 484L469 543L467 613L429 686L316 727Z" />
<glyph unicode="&#xe0;" glyph-name="agrave" horiz-adv-x="496" d="M151 56L226 37L327 95L323 230H236L159 199L124 137L151 56ZM409 182L416 41L485 31L478 -2L339 -14L326 45H321L222 -14H118L48 37L27 135L71 213L191 265L323 270L319 395L300 457L219 480L122
457L119 351L80 343L54 480L169 514L298 520L376 482L408 396L409 182ZM264 583L228 566L146 671L104 717L114 740L184 757L264 583Z" />
<glyph unicode="&#xe1;" glyph-name="aacute" horiz-adv-x="496" d="M151 56L226 37L327 95L323 230H236L159 199L124 137L151 56ZM409 182L416 41L485 31L478 -2L339 -14L326 45H321L222 -14H118L48 37L27 135L71 213L191 265L323 270L319 395L300 457L219 480L122
457L119 351L80 343L54 480L169 514L298 520L376 482L408 396L409 182ZM295 757L365 740L375 717L333 671L251 566L215 583L295 757Z" />
<glyph unicode="&#xe2;" glyph-name="acircumflex" horiz-adv-x="496" d="M151 56L226 37L327 95L323 230H236L159 199L124 137L151 56ZM409 182L416 41L485 31L478 -2L339 -14L326 45H321L222 -14H118L48 37L27 135L71 213L191 265L323 270L319 395L300 457L219
480L122 457L119 351L80 343L54 480L169 514L298 520L376 482L408 396L409 182ZM354 571L312 559L274 619L246 684L205 619L160 556L121 564L111 579L169 667L214 753H275L314 673L368 588L354 571Z" />
<glyph unicode="&#xe3;" glyph-name="atilde" horiz-adv-x="496" d="M151 56L226 37L327 95L323 230H236L159 199L124 137L151 56ZM409 182L416 41L485 31L478 -2L339 -14L326 45H321L222 -14H118L48 37L27 135L71 213L191 265L323 270L319 395L300 457L219 480L122
457L119 351L80 343L54 480L169 514L298 520L376 482L408 396L409 182ZM107 597L82 620L145 694L205 696L287 657H324L353 685L382 675L361 619L315 590L267 591L186 627L147 626L107 597Z" />
<glyph unicode="&#xe4;" glyph-name="adieresis" horiz-adv-x="496" d="M151 56L226 37L327 95L323 230H236L159 199L124 137L151 56ZM409 182L416 41L485 31L478 -2L339 -14L326 45H321L222 -14H118L48 37L27 135L71 213L191 265L323 270L319 395L300 457L219
480L122 457L119 351L80 343L54 480L169 514L298 520L376 482L408 396L409 182ZM116 691L160 712L207 697L228 645L201 603L156 585L113 611L93 654L116 691ZM281 691L326 712L372 697L393 645L366 603L321 585L279 611L258 654L281 691Z" />
<glyph unicode="&#xe5;" glyph-name="aring" horiz-adv-x="496" d="M151 56L226 37L327 95L323 230H236L159 199L124 137L151 56ZM409 182L416 41L485 31L478 -2L339 -14L326 45H321L222 -14H118L48 37L27 135L71 213L191 265L323 270L319 395L300 457L219 480L122
457L119 351L80 343L54 480L169 514L298 520L376 482L408 396L409 182ZM206 630L238 615L275 627L289 657L276 692L245 704L208 691L194 663L206 630ZM174 736L248 758L321 728L347 643L307 583L234 556L165 592L135 665L174 736Z" />
<glyph unicode="&#xe6;" glyph-name="ae" horiz-adv-x="786" d="M375 482L391 437L400 452L505 510L593 521L663 499L717 450L748 361L749 278L735 267L602 258L429 269L428 260L455 119L534 41L626 31L720 81L738 55L659 -8L565 -20L467 3L382 74L372 93L315
19L221 -14H117L47 37L26 135L70 213L190 265L322 270L318 395L299 457L218 480L121 457L118 351L79 343L53 480L168 514L297 520L375 482ZM150 56L225 37L305 82L322 145V230H235L158 199L123 137L150 56ZM479 431L440 355L434 310L586 308L655 323L649 416L619
467L555 476L479 431Z" />
<glyph unicode="&#xe7;" glyph-name="ccedilla" horiz-adv-x="484" d="M342 -64L388 -112L386 -169L336 -231L245 -243L173 -230L188 -201L259 -214L315 -191L322 -143L291 -114L232 -105L230 -7L132 21L43 166L42 333L110 452L215 507L306 520L459 500L429 343L396
338L378 463L252 473L162 377L136 273L149 167L213 51L336 31L430 81L448 55L369 -8L275 -20L267 -18L273 -56L342 -64Z" />
<glyph unicode="&#xe8;" glyph-name="egrave" horiz-adv-x="495" d="M139 269L138 260L165 119L244 41L336 31L430 81L448 55L369 -8L275 -20L177 3L92 74L41 224L58 358L110 452L215 510L303 521L373 499L427 450L458 361L459 278L445 267L312 258L139 269ZM189
431L150 355L144 310L296 308L365 323L359 416L329 467L265 476L189 431ZM308 582L272 565L190 670L148 716L158 739L228 756L308 582Z" />
<glyph unicode="&#xe9;" glyph-name="eacute" horiz-adv-x="495" d="M139 269L138 260L165 119L244 41L336 31L430 81L448 55L369 -8L275 -20L177 3L92 74L41 224L58 358L110 452L215 510L303 521L373 499L427 450L458 361L459 278L445 267L312 258L139 269ZM189
431L150 355L144 310L296 308L365 323L359 416L329 467L265 476L189 431ZM339 756L409 739L419 716L377 670L295 565L259 582L339 756Z" />
<glyph unicode="&#xea;" glyph-name="ecircumflex" horiz-adv-x="495" d="M139 269L138 260L165 119L244 41L336 31L430 81L448 55L369 -8L275 -20L177 3L92 74L41 224L58 358L110 452L215 510L303 521L373 499L427 450L458 361L459 278L445 267L312 258L139 269ZM189
431L150 355L144 310L296 308L365 323L359 416L329 467L265 476L189 431ZM388 570L346 558L308 618L280 683L239 618L194 555L155 563L145 578L203 666L248 752H309L348 672L402 587L388 570Z" />
<glyph unicode="&#xeb;" glyph-name="edieresis" horiz-adv-x="495" d="M139 269L138 260L165 119L244 41L336 31L430 81L448 55L369 -8L275 -20L177 3L92 74L41 224L58 358L110 452L215 510L303 521L373 499L427 450L458 361L459 278L445 267L312 258L139 269ZM189
431L150 355L144 310L296 308L365 323L359 416L329 467L265 476L189 431ZM148 946L192 967L239 952L260 900L233 858L188 840L145 866L125 909L148 946ZM313 946L358 967L404 952L425 900L398 858L353 840L311 866L290 909L313 946Z" />
<glyph unicode="&#xec;" glyph-name="igrave" horiz-adv-x="290" d="M199 363L193 263L196 166L200 50L273 30L268 -5L150 0L28 -5L30 30L96 50L101 155L99 347L94 451L23 448L18 483L156 510L206 499L199 363ZM175 583L139 566L57 671L15 717L25 740L95 757L175 583Z" />
<glyph unicode="&#xed;" glyph-name="iacute" horiz-adv-x="290" d="M199 363L193 263L196 166L200 50L273 30L268 -5L150 0L28 -5L30 30L96 50L101 155L99 347L94 451L23 448L18 483L156 510L206 499L199 363ZM166 757L236 740L246 717L204 671L122 566L86 583L166 757Z" />
<glyph unicode="&#xee;" glyph-name="icircumflex" horiz-adv-x="290" d="M199 363L193 263L196 166L200 50L273 30L268 -5L150 0L28 -5L30 30L96 50L101 155L99 347L94 451L23 448L18 483L156 510L206 499L199 363ZM255 571L213 559L175 619L147 684L106 619L61
556L22 564L12 579L70 667L115 753H176L215 673L269 588L255 571Z" />
<glyph unicode="&#xef;" glyph-name="idieresis" horiz-adv-x="290" d="M199 363L193 263L196 166L200 50L273 30L268 -5L150 0L28 -5L30 30L96 50L101 155L99 347L94 451L23 448L18 483L156 510L206 499L199 363ZM272 691L316 712L363 697L384 645L357 603L312
585L269 611L249 654L272 691ZM437 691L482 712L528 697L549 645L522 603L477 585L435 611L414 654L437 691Z" />
<glyph unicode="&#xf0;" glyph-name="eth" horiz-adv-x="579" d="M39 190V300L98 419L223 499H328L417 464L418 463L392 541L324 620L228 558L200 605L289 649L221 679L173 694L175 740L239 724L338 676L441 739L462 690L377 647L443 583L510 432L524 348L528
304V195L498 85L416 6L288 -20L167 5L72 91L39 190ZM162 377L144 243L156 127L198 49L292 19L395 69L428 235L418 334L375 417L312 454H231L162 377Z" />
<glyph unicode="&#xf1;" glyph-name="ntilde" horiz-adv-x="603" d="M525 49L596 30L591 -5L473 0L351 -5L353 30L419 50L426 155L422 373L395 439L310 454L201 398L199 363L193 263L195 166L200 50L273 30L268 -5L150 0L28 -5L30 30L96 50L103 155L94 451L23
448L18 483L156 510L206 499L203 448L310 513L412 520L504 457L519 377L517 166L525 49ZM196 597L171 620L234 694L294 696L376 657H413L442 685L471 675L450 619L404 590L356 591L275 627L236 626L196 597Z" />
<glyph unicode="&#xf2;" glyph-name="ograve" horiz-adv-x="576" d="M39 190V321L98 440L211 515L348 520L473 445L538 325L526 142L452 24L297 -20L167 5L72 91L39 190ZM149 355L144 243L156 127L199 52L305 26L403 69L432 225L422 355L385 438L312 475L212 464L149
355ZM312 584L276 567L194 672L152 718L162 741L232 758L312 584Z" />
<glyph unicode="&#xf3;" glyph-name="oacute" horiz-adv-x="576" d="M39 190V321L98 440L211 515L348 520L473 445L538 325L526 142L452 24L297 -20L167 5L72 91L39 190ZM149 355L144 243L156 127L199 52L305 26L403 69L432 225L422 355L385 438L312 475L212 464L149
355ZM353 758L423 741L433 718L391 672L309 567L273 584L353 758Z" />
<glyph unicode="&#xf4;" glyph-name="ocircumflex" horiz-adv-x="576" d="M39 190V321L98 440L211 515L348 520L473 445L538 325L526 142L452 24L297 -20L167 5L72 91L39 190ZM149 355L144 243L156 127L199 52L305 26L403 69L432 225L422 355L385 438L312 475L212
464L149 355ZM402 572L360 560L322 620L294 685L253 620L208 557L169 565L159 580L217 668L262 754H323L362 674L416 589L402 572Z" />
<glyph unicode="&#xf5;" glyph-name="otilde" horiz-adv-x="576" d="M39 190V321L98 440L211 515L348 520L473 445L538 325L526 142L452 24L297 -20L167 5L72 91L39 190ZM149 355L144 243L156 127L199 52L305 26L403 69L432 225L422 355L385 438L312 475L212 464L149
355ZM155 598L130 621L193 695L253 697L335 658H372L401 686L430 676L409 620L363 591L315 592L234 628L195 627L155 598Z" />
<glyph unicode="&#xf6;" glyph-name="odieresis" horiz-adv-x="576" d="M39 190V321L98 440L211 515L348 520L473 445L538 325L526 142L452 24L297 -20L167 5L72 91L39 190ZM149 355L144 243L156 127L199 52L305 26L403 69L432 225L422 355L385 438L312 475L212
464L149 355ZM162 692L206 713L253 698L274 646L247 604L202 586L159 612L139 655L162 692ZM327 692L372 713L418 698L439 646L412 604L367 586L325 612L304 655L327 692Z" />
<glyph unicode="&#xf7;" glyph-name="divide" horiz-adv-x="504" d="M185 288L49 272L56 335L307 348L445 363L438 300L185 288ZM196 513L240 534L288 519L305 469L284 425L236 409L196 429L175 475L196 513ZM218 192L262 212L310 197L328 148L306 105L258 87L218
109L197 153L218 192Z" />
<glyph unicode="&#xf8;" glyph-name="oslash" horiz-adv-x="582" d="M39 190V321L98 440L211 515L348 520L409 483L462 572L518 561L455 455L473 445L538 325L526 142L452 24L297 -20L167 5L133 -51L76 -40L126 42L72 91L39 190ZM149 355L144 243L156 127L169
103L171 105L238 201L375 437L378 441L312 475L212 464L149 355ZM200 51L305 26L403 69L432 225L422 355L407 387V386L352 308L205 58L200 51Z" />
<glyph unicode="&#xf9;" glyph-name="ugrave" horiz-adv-x="590" d="M183 345V127L210 61L294 50L403 115V221L402 346L397 450L326 447L321 482L459 509L509 498L502 362L501 282L503 221V41L573 21L568 -14H431L408 70L295 -13L193 -20L101 43L86 123L87 337L77
451L6 448L1 483L139 510L189 499L183 345ZM293 583L257 566L175 671L133 717L143 740L213 757L293 583Z" />
<glyph unicode="&#xfa;" glyph-name="uacute" horiz-adv-x="590" d="M183 345V127L210 61L294 50L403 115V221L402 346L397 450L326 447L321 482L459 509L509 498L502 362L501 282L503 221V41L573 21L568 -14H431L408 70L295 -13L193 -20L101 43L86 123L87 337L77
451L6 448L1 483L139 510L189 499L183 345ZM324 757L394 740L404 717L362 671L280 566L244 583L324 757Z" />
<glyph unicode="&#xfb;" glyph-name="ucircumflex" horiz-adv-x="590" d="M183 345V127L210 61L294 50L403 115V221L402 346L397 450L326 447L321 482L459 509L509 498L502 362L501 282L503 221V41L573 21L568 -14H431L408 70L295 -13L193 -20L101 43L86 123L87
337L77 451L6 448L1 483L139 510L189 499L183 345ZM384 571L342 559L304 619L276 684L235 619L190 556L151 564L141 579L199 667L244 753H305L344 673L398 588L384 571Z" />
<glyph unicode="&#xfc;" glyph-name="udieresis" horiz-adv-x="590" d="M183 345V127L210 61L294 50L403 115V221L402 346L397 450L326 447L321 482L459 509L509 498L502 362L501 282L503 221V41L573 21L568 -14H431L408 70L295 -13L193 -20L101 43L86 123L87
337L77 451L6 448L1 483L139 510L189 499L183 345ZM153 691L197 712L244 697L265 645L238 603L193 585L150 611L130 654L153 691ZM318 691L363 712L409 697L430 645L403 603L358 585L316 611L295 654L318 691Z" />
<glyph unicode="&#xfd;" glyph-name="yacute" horiz-adv-x="573" d="M114 -270L83 -225L53 -143L91 -129L147 -212L198 -163L268 -3L113 394L78 455L7 470L12 505L134 500L253 505L251 470L193 453L208 391L262 253L317 92H320L370 249L421 392L431 456L375 470L380
505L487 500L572 505L570 470L509 452L474 377L325 -21L239 -186L164 -260L114 -270ZM379 757L449 740L459 717L417 671L335 566L299 583L379 757Z" />
<glyph unicode="&#xfe;" glyph-name="thorn" horiz-adv-x="568" d="M169 602L167 455H176L283 521L394 508L467 456L525 337L526 167L488 88L373 -5L262 -20L163 6L166 -84L174 -200L257 -220L252 -255L120 -250L-2 -255L0 -220L66 -200L71 -95L75 124L69 586L64
693L-7 690L-12 725L126 752L164 741L169 602ZM167 412L163 61L276 25L339 43L416 125L430 240L400 408L306 461L167 412Z" />
<glyph unicode="&#xff;" glyph-name="ydieresis" horiz-adv-x="573" d="M114 -270L83 -225L53 -143L91 -129L147 -212L198 -163L268 -3L113 394L78 455L7 470L12 505L134 500L253 505L251 470L193 453L208 391L262 253L317 92H320L370 249L421 392L431 456L375
470L380 505L487 500L572 505L570 470L509 452L474 377L325 -21L239 -186L164 -260L114 -270ZM188 691L232 712L279 697L300 645L273 603L228 585L185 611L165 654L188 691ZM353 691L398 712L444 697L465 645L438 603L393 585L351 611L330 654L353 691Z" />
<glyph unicode="&#x2013;" glyph-name="endash" horiz-adv-x="548" d="M197 291L62 276L68 339L348 353L487 367L480 304L197 291Z" />
<glyph unicode="&#x2014;" glyph-name="emdash" horiz-adv-x="898" d="M198 288L63 277L71 340L622 344L831 354L822 291L198 288Z" />
<glyph unicode="&#x2018;" glyph-name="quoteleft" horiz-adv-x="215" d="M106 475L45 503L29 552L40 628L88 703L193 758V716L113 677L94 604H120L160 577L176 529L153 494L106 475Z" />
<glyph unicode="&#x2019;" glyph-name="quoteright" horiz-adv-x="205" d="M116 758L177 730L193 681L182 605L134 530L29 475V517L109 556L128 629H102L62 656L46 704L69 739L116 758Z" />
<glyph unicode="&#x201a;" glyph-name="quotesinglbase" horiz-adv-x="239" d="M116 129L177 101L193 52L182 -24L134 -99L29 -154V-112L109 -73L128 0H102L62 27L46 75L69 110L116 129Z" />
<glyph unicode="&#x201c;" glyph-name="quotedblleft" horiz-adv-x="400" d="M356 515L310 497L264 516L241 547L232 606L256 703L319 770L345 742L296 684L294 620H339L370 594L379 552L356 515ZM176 515L130 497L84 516L61 547L52 606L76 703L139 770L165 742L116
684L114 620H159L190 594L199 552L176 515Z" />
<glyph unicode="&#x201d;" glyph-name="quotedblright" horiz-adv-x="390" d="M68 740L114 758L160 739L183 708L192 649L168 552L105 485L79 513L128 571L130 635H85L54 661L45 703L68 740ZM248 740L294 758L340 739L363 708L372 649L348 552L285 485L259 513L308
571L310 635H265L234 661L225 703L248 740Z" />
<glyph unicode="&#x201e;" glyph-name="quotedblbase" horiz-adv-x="410" d="M68 90L114 108L160 89L183 58L192 -1L168 -98L105 -165L79 -137L128 -79L130 -15H85L54 11L45 53L68 90ZM248 90L294 108L340 89L363 58L372 -1L348 -98L285 -165L259 -137L308 -79L310
-15H265L234 11L225 53L248 90Z" />
<glyph unicode="&#x2022;" glyph-name="bullet" horiz-adv-x="404" d="M111 471L212 510L313 469L344 359L291 266L181 235L97 288L60 389L111 471Z" />
<glyph unicode="&#x2039;" glyph-name="guilsinglleft" horiz-adv-x="364" d="M35 306L170 426L260 517L303 491L197 379L126 292V288L192 215L317 100L276 72L184 153L37 266L35 306Z" />
<glyph unicode="&#x203a;" glyph-name="guilsinglright" horiz-adv-x="364" d="M317 283L182 163L92 72L49 98L155 210L226 297V301L160 374L35 489L76 517L168 436L315 323L317 283Z" />
</font>
</defs>
</svg>
