<?xml version="1.0" standalone="no"?>
<!DOCTYPE svg PUBLIC "-//W3C//DTD SVG 1.1//EN" "http://www.w3.org/Graphics/SVG/1.1/DTD/svg11.dtd">
<svg xmlns="http://www.w3.org/2000/svg">
<defs >
<font id="Alice" horiz-adv-x="522" ><font-face
    font-family="Alice"
    units-per-em="1000"
    panose-1="2 0 5 3 8 0 0 2 0 4"
    ascent="909"
    descent="-234"
    alphabetic="0" />
<glyph unicode=" " glyph-name="space" horiz-adv-x="223" />
<glyph unicode="!" glyph-name="exclam" horiz-adv-x="262" d="M130 -12Q103 -12 85 5T67 52Q67 78 85 96T131 115Q159 115 177 97T195 52Q195 23 177 6T130 -12ZM155 221Q155 213 148 210T131 207Q123 207 115 210T107 221Q107 252 103 295T92 385T82 481T77
570Q77 621 88 654T131 687Q162 687 173 654T185 570Q185 529 181 481T170 386T160 295T155 221Z" />
<glyph unicode="&quot;" glyph-name="quotedbl" horiz-adv-x="339" d="M111 408Q111 402 106 400T93 397Q87 397 81 400T75 408Q74 428 69 454T59 509T50 565T45 617Q45 648 55 668T93 688Q120 688 130 669T140 618Q140 594 136 566T127 510T117 455T111 408ZM264
408Q264 402 259 400T246 397Q240 397 234 400T228 408Q227 428 222 454T212 509T203 565T198 617Q198 648 208 668T246 688Q273 688 283 669T293 618Q293 594 289 566T280 510T270 455T264 408Z" />
<glyph unicode="#" glyph-name="numbersign" horiz-adv-x="616" d="M249 398L214 233H369L403 398H249ZM449 612Q454 631 474 631Q485 631 493 626T503 612L469 453H555Q564 452 569 443T574 423Q574 414 569 406T555 398H458L423 233H515Q524 232 529 223T534
203Q534 194 529 186T515 178H413L379 18Q377 10 370 5T355 0Q343 0 335 5T325 18L359 178H203L170 19Q168 10 161 5T145 0Q134 0 125 5T115 19L148 178H61Q52 178 47 186T42 203Q42 214 47 223T61 233H160L195 398H101Q92 398 87 406T82 423Q82 434 87 443T101
453H206L240 613Q242 621 249 626T264 631Q276 631 284 626T294 613L260 453H413L449 612Z" />
<glyph unicode="$" glyph-name="dollar" horiz-adv-x="500" d="M261 -66Q261 -89 241 -89Q222 -89 222 -66V-13H209Q196 -13 174 -11T130 1T88 26T61 71Q58 86 60 102T70 132T91 153T121 162Q142 162 152 152T163 137Q163 135 159 132T149 122T139 107T134 86Q135
69 142 58T162 39T189 27T222 21V257Q193 269 165 282T114 313T77 355T62 413Q61 445 72 470T106 515T157 546T222 563V617Q222 640 241 640Q261 640 261 617V566H265Q277 566 299 564T343 552T385 527T411 482Q415 467 413 451T402 421T381 400T351 391Q331 391
320 401T308 416Q308 417 313 421T323 431T334 446T339 467Q339 483 332 494T313 513T288 525T261 530V330Q292 318 325 302T385 264T430 214T449 151Q450 67 402 29T261 -13V-66ZM370 113Q370 138 362 157T338 191T303 217T261 239V21Q305 26 337 49T370 113ZM136
446Q136 421 143 405T162 377T189 358T222 345V529Q177 522 157 499T136 446Z" />
<glyph unicode="%" glyph-name="percent" horiz-adv-x="776" d="M575 318Q611 318 640 305T689 269T721 217T733 154Q733 112 719 80T681 25T630 -8T575 -20Q539 -20 511 -7T462 30T430 83T419 146Q419 188 433 220T470 274T520 307T575 318ZM575 23Q598 23 614
33T639 62T653 104T658 154Q658 178 654 200T640 240T614 267T575 277Q551 277 536 267T511 238T498 197T494 147Q494 123 498 101T511 61T536 33T575 23ZM200 649Q236 649 265 636T314 600T346 548T357 486Q357 444 343 412T305 357T255 324T200 312Q164 312 135
325T86 362T55 415T44 478Q44 520 58 551T95 605T145 638T200 649ZM200 354Q223 354 239 364T264 393T278 435T283 486Q283 510 279 532T265 571T239 598T200 608Q176 608 160 598T135 570T122 529T118 479Q118 454 122 432T135 392T161 364T200 354ZM163 6Q154
-4 146 -6T128 -5Q117 0 111 10T113 31L596 617Q605 628 615 629T633 628Q645 623 650 613T648 591L163 6Z" />
<glyph unicode="&amp;" glyph-name="ampersand" horiz-adv-x="875" d="M649 285Q649 312 641 338T618 384T581 416T529 429Q517 429 502 425T474 413T453 393T445 363Q446 349 454 338T479 324Q492 322 502 326T520 334T532 343T539 348Q544 347 552 333T558 298Q554
271 535 257T488 242Q450 242 427 272T404 351Q404 403 424 435T475 487T547 516T629 531T708 540T774 554Q796 562 811 576T825 611Q824 623 816 632T788 644Q775 645 765 642T747 634T734 625T728 620Q723 621 715 635T709 670Q712 690 723 702T750 721T783 727T817
719Q844 706 854 680T863 627Q862 586 842 554T786 499T705 465T608 453Q650 418 672 377T694 284Q694 212 668 156T595 60T486 0T351 -20Q292 -19 236 -4T137 44T67 127T41 246Q41 281 51 313T82 372T134 417T206 442V445Q173 470 158 499T143 562Q143 628 190
668T323 708Q350 708 376 702T421 683T453 651T465 604Q465 574 448 550T397 526Q375 526 363 537T351 553Q351 554 356 558T367 569T379 585T384 608Q384 638 363 655T312 672Q261 672 236 642T211 571Q211 498 272 465H305Q317 465 324 463T333 441Q333 432 329
425T314 417H279Q244 414 220 400T179 364T155 316T147 262Q147 213 164 174T213 107T287 65T382 50Q437 50 485 67T570 116T628 190T649 285Z" />
<glyph unicode="&apos;" glyph-name="quotesingle" horiz-adv-x="186" d="M111 408Q111 402 106 400T93 397Q87 397 81 400T75 408Q74 428 69 454T59 509T50 565T45 617Q45 648 55 668T93 688Q120 688 130 669T140 618Q140 594 136 566T127 510T117 455T111 408Z" />
<glyph unicode="(" glyph-name="parenleft" horiz-adv-x="293" d="M257 -165Q148 -90 92 26T36 282Q36 420 92 535T258 728Q268 734 274 731T283 720Q289 705 276 693Q242 660 214 615T165 517T133 404T121 281Q121 218 132 158T164 45T212 -52T275 -130Q288 -142
282 -157Q279 -164 273 -167T257 -165Z" />
<glyph unicode=")" glyph-name="parenright" horiz-adv-x="293" d="M36 -165Q26 -171 20 -168T11 -157Q5 -142 18 -130Q52 -97 80 -53T129 45T160 158T172 281Q172 344 161 404T129 517T80 615T17 693Q4 705 10 720Q13 727 19 730T35 728Q144 651 200 536T257
282Q257 142 201 26T36 -165Z" />
<glyph unicode="*" glyph-name="asterisk" horiz-adv-x="526" d="M220 703Q226 692 229 679T234 648T242 609T258 561L267 562Q279 587 283 608T290 646T294 678T303 703Q316 723 335 727T370 722Q387 714 393 696T387 658Q381 646 370 637T344 618T313 593T279
555L282 547Q312 551 333 557T372 571T402 583T429 588Q455 588 469 574T482 542Q482 524 468 510T429 496Q416 496 403 500T372 511T334 524T283 534L277 528Q295 506 312 492T344 467T370 447T388 428Q400 406 396 389T375 361Q357 351 337 356T305 380Q298 391
296 404T290 435T282 474T266 521L257 520Q245 494 241 474T234 436T229 405T221 380Q210 359 191 356T156 361Q139 369 132 387T138 425Q144 436 155 445T180 464T211 489T245 527L242 535Q213 532 191 525T152 512T122 500T95 495Q71 494 57 508T44 541Q43 559
57 573T95 587Q108 587 122 582T153 571T191 558T242 548L248 554Q229 576 212 591T180 616T154 635T136 655Q125 677 130 694T151 722Q168 732 187 727T220 703Z" />
<glyph unicode="+" glyph-name="plus" horiz-adv-x="566" d="M252 479Q252 490 262 497T284 504Q295 504 305 497T315 479V291H508Q518 291 524 283T530 264Q530 254 524 246T508 237H315V25Q315 14 305 7T283 0Q272 0 262 7T252 25V237H58Q48 237 42 245T36 264Q36
274 42 282T58 291H252V479Z" />
<glyph unicode="," glyph-name="comma" horiz-adv-x="237" d="M45 97Q45 116 59 131T95 147Q117 147 135 137T167 109T188 70T196 28Q196 -3 183 -27T148 -70T101 -100T48 -120Q40 -123 35 -120T27 -110T25 -98T35 -89Q77 -73 98 -52T120 0Q120 18 109 29T83 49T57
69T45 97Z" />
<glyph unicode="-" glyph-name="hyphen" horiz-adv-x="385" d="M83 199Q72 199 66 210T60 231Q60 242 66 252T83 263H302Q313 263 319 253T325 231Q325 221 319 210T302 199H83Z" />
<glyph unicode="." glyph-name="period" horiz-adv-x="222" d="M110 -12Q83 -12 65 5T47 51Q47 77 65 95T111 113Q138 113 156 95T175 51Q175 22 157 5T110 -12Z" />
<glyph unicode="/" glyph-name="slash" horiz-adv-x="394" d="M88 -177Q84 -188 75 -192T56 -195Q45 -193 39 -185T34 -166L304 685Q308 696 317 701T337 704Q348 702 355 693T360 674L88 -177Z" />
<glyph unicode="0" glyph-name="zero" horiz-adv-x="585" d="M531 256Q531 203 516 154T470 66T396 4T293 -20Q232 -20 187 3T113 64T70 153T55 256Q55 310 69 359T113 447T187 507T293 530Q351 530 395 507T470 446T515 359T531 256ZM435 256Q435 373 398 433T294
493Q225 493 188 433T151 256Q151 139 188 78T294 17Q361 17 398 78T435 256Z" />
<glyph unicode="1" glyph-name="one" horiz-adv-x="428" d="M74 441Q63 441 60 448T56 465Q57 483 64 485T82 487Q107 487 135 493T187 507T229 522T254 533Q262 536 271 534T280 512V133Q280 100 286 82T305 54T341 43T396 41Q407 41 414 40T422 21Q422 12 419
5T404 -3Q386 -2 363 -2T315 -1T270 0T236 0Q223 0 202 0T158 0T111 -1T69 -3Q58 -3 55 4T51 21Q52 39 59 40T77 41Q109 41 131 43T167 54T187 81T193 133V341Q194 384 190 405T172 433T135 441T74 441Z" />
<glyph unicode="2" glyph-name="two" horiz-adv-x="491" d="M60 408Q60 440 77 463T120 501T178 523T240 530Q273 530 306 522T365 496T407 450T424 380Q424 322 393 278T316 199T221 134T135 76V71H403Q423 71 437 67T451 36Q451 19 443 10T416 0H81Q61 0 54
9T46 36Q48 59 59 72T92 99Q129 124 170 153T247 217T305 296T328 393Q328 441 303 467T231 494Q193 494 167 475T141 421Q141 408 146 399T157 382T169 371T174 366Q174 361 162 350T128 339Q96 339 78 359T60 408Z" />
<glyph unicode="3" glyph-name="three" horiz-adv-x="487" d="M194 247Q186 247 183 253T179 267Q179 275 182 282T194 290H231Q271 294 294 325T317 400Q317 440 297 467T228 495Q194 495 169 479T144 427Q144 414 149 405T160 389T172 380T177 375Q177 370 165
359T131 348Q98 348 81 368T63 419Q63 448 78 469T117 503T170 523T230 530Q262 530 294 524T351 502T392 462T408 400Q408 361 381 324T294 271V267Q316 265 340 258T384 237T418 198T432 138Q432 94 415 64T369 16T303 -11T225 -20Q195 -20 165 -14T109 5T67
39T51 92Q51 118 67 140T119 163Q141 163 153 152T165 136Q165 134 160 131T149 122T137 107T132 83Q132 51 158 34T227 17Q249 17 268 24T303 45T326 81T335 136Q335 183 310 213T231 247H194Z" />
<glyph unicode="4" glyph-name="four" horiz-adv-x="496" d="M373 7Q373 -2 360 -7T330 -12Q314 -12 301 -7T286 7V160H47Q30 160 23 170T15 195Q15 208 22 217L303 524Q309 530 317 532T334 534Q348 534 360 526T373 499V209H433Q444 209 451 207T460 185Q460
175 456 168T441 160H373V7ZM286 209V446L73 209H286Z" />
<glyph unicode="5" glyph-name="five" horiz-adv-x="485" d="M129 258Q124 254 114 248T94 242Q87 242 84 246T80 257T78 271T79 282L110 520H365Q375 520 383 520T398 517T409 507T414 486Q414 472 406 461T378 449H156L135 310Q156 322 183 330T243 338Q273
338 306 328T366 297T412 243T431 163Q431 118 411 84T360 27T289 -8T213 -20Q199 -20 176 -17T127 -5T81 22T53 70Q49 87 51 104T62 136T85 160T119 169Q141 169 153 158T165 142Q165 140 160 137T149 126T137 110T132 87Q132 70 139 57T159 35T185 21T215 16Q244
16 266 28T304 61T327 107T335 158Q335 184 329 208T310 250T276 281T224 294Q199 295 176 285T129 258Z" />
<glyph unicode="6" glyph-name="six" horiz-adv-x="509" d="M377 494Q280 464 228 411T159 289Q194 312 226 320T292 329Q328 329 360 317T415 282T452 230T466 163Q466 121 449 88T403 30T337 -7T261 -20Q214 -20 176 -5T110 38T68 107T53 200Q53 261 75 316T138
415T235 489T360 532Q376 534 385 532T395 515Q395 510 392 504T377 494ZM370 154Q370 214 339 249T258 284Q232 284 205 272T155 238Q153 232 151 221T149 199Q149 173 154 141T172 80T206 32T261 12Q308 12 339 51T370 154Z" />
<glyph unicode="7" glyph-name="seven" horiz-adv-x="426" d="M128 23Q128 42 139 74T167 145T207 227T252 311T295 388T330 451H155Q137 451 125 449T103 440T89 419T80 381Q78 373 74 370T57 366Q40 366 40 383L44 500Q44 514 53 518T73 522H378Q397 522 402
515T406 497T398 474T385 451Q355 400 329 339T279 217T237 102T202 12Q194 -6 183 -13T161 -20Q149 -20 139 -10T128 23Z" />
<glyph unicode="8" glyph-name="eight" horiz-adv-x="513" d="M161 404Q161 384 172 368T203 337T249 311T303 287Q330 307 344 335T359 394Q359 414 353 432T335 465T304 487T260 496Q213 496 187 470T161 404ZM458 131Q458 101 443 74T401 25T335 -8T249 -20Q204
-20 168 -9T107 21T68 67T54 126Q54 172 84 204T171 260Q123 289 101 319T78 387Q78 417 93 443T135 489T194 519T265 530Q303 530 334 520T389 491T424 447T437 393Q437 320 337 269Q403 241 430 210T458 131ZM368 113Q368 136 357 153T325 185T275 214T209 244Q179
224 162 195T144 130Q144 78 175 46T258 13Q309 13 338 41T368 113Z" />
<glyph unicode="9" glyph-name="nine" horiz-adv-x="508" d="M131 16Q228 46 280 99T349 221Q314 198 282 190T216 181Q180 181 148 193T93 228T56 280T42 347Q42 389 59 422T105 480T171 517T247 530Q294 530 332 515T398 472T440 403T455 310Q455 248 433 194T370
95T273 21T148 -22Q132 -24 123 -22T113 -5Q113 0 116 6T131 16ZM138 356Q138 296 169 261T250 226Q276 226 303 238T353 272Q355 278 357 289T359 311Q359 337 354 369T336 430T302 478T247 498Q200 498 169 459T138 356Z" />
<glyph unicode=":" glyph-name="colon" horiz-adv-x="248" d="M124 429Q152 429 169 412T187 366Q187 338 170 321T123 304Q95 304 78 321T60 366Q60 394 77 411T124 429ZM123 -12Q96 -12 78 5T60 52Q60 78 78 95T124 113Q153 113 170 96T188 52Q188 23 170 6T123 -12Z" />
<glyph unicode=";" glyph-name="semicolon" horiz-adv-x="261" d="M128 426Q156 426 173 409T191 363Q191 336 174 319T127 301Q101 301 83 318T64 363Q64 391 83 408T128 426ZM58 97Q58 116 72 131T108 147Q130 147 148 137T180 109T201 70T209 28Q209 -3 196
-27T161 -70T114 -100T61 -120Q53 -123 48 -120T40 -110T38 -98T48 -89Q90 -73 111 -52T133 0Q133 18 122 29T96 49T70 69T58 97Z" />
<glyph unicode="&lt;" glyph-name="less" horiz-adv-x="529" d="M49 232Q36 241 36 257Q36 264 39 271T49 282L441 488Q449 490 453 490Q466 490 471 481T476 461Q476 442 458 433L124 259V256L458 82Q476 71 476 54Q476 44 471 34T453 24Q447 24 441 27L49 232Z" />
<glyph unicode="=" glyph-name="equal" horiz-adv-x="630" d="M91 147Q80 147 74 155T68 174Q68 185 74 193T91 201H539Q550 201 556 193T562 174Q562 164 556 156T539 147H91ZM91 315Q80 315 74 323T68 342Q68 353 74 361T91 369H539Q550 369 556 361T562 342Q562
332 556 324T539 315H91Z" />
<glyph unicode="&gt;" glyph-name="greater" horiz-adv-x="529" d="M88 27Q82 24 76 24Q63 24 58 34T53 54Q53 71 71 82L405 256V259L71 433Q53 442 53 461Q53 471 58 480T76 490Q80 490 88 488L480 282Q487 278 490 271T493 257Q493 241 480 232L88 27Z" />
<glyph unicode="?" glyph-name="question" horiz-adv-x="435" d="M211 -12Q184 -12 166 5T148 52Q148 78 166 96T212 115Q240 115 258 97T276 52Q276 23 258 6T211 -12ZM207 687Q242 688 275 681T333 658T374 614T389 548Q389 520 379 498T351 456T312 420T269
390Q250 377 233 364T201 337T179 307T170 271Q170 252 182 240T209 228Q226 228 241 236T270 259Q279 268 288 271T305 273Q321 271 330 259T327 233Q305 211 278 199T226 187Q203 187 182 195T145 220T118 258T108 310Q108 333 117 351T141 385T174 414T213 439Q232
451 250 463T282 489T304 519T313 557Q313 596 288 624T212 651Q197 651 182 647T154 633T134 611T126 580Q126 567 131 558T142 541T154 530T159 525Q159 520 147 509T113 498Q94 498 80 507T57 530T46 562T47 597Q54 627 75 644T121 671T169 684T207 687Z" />
<glyph unicode="@" glyph-name="at" horiz-adv-x="878" d="M706 -30Q713 -26 718 -29T725 -37T727 -50T720 -61Q669 -97 604 -119T459 -141Q385 -141 312 -119T181 -53T87 59T51 219Q51 297 83 370T174 501T316 592T501 627Q585 627 647 603T751 537T814 441T835
328Q835 273 818 225T769 140T694 82T598 61Q556 61 526 80T492 137Q467 103 437 83T374 63Q352 63 332 70T295 92T268 131T258 192Q258 225 274 268T322 349T396 413T492 439Q520 439 541 427T571 388L587 424Q591 432 599 435T616 438Q623 438 631 436T646 428T656
416T658 399L574 182Q568 168 566 153T567 126T581 105T609 97Q647 97 679 114T736 163T773 237T787 333Q787 385 769 430T714 509T623 562T495 582Q431 582 367 559T252 490T169 378T137 227Q137 145 162 84T230 -17T333 -78T462 -98Q539 -98 597 -79T706 -30ZM554
339Q543 406 489 406Q464 406 439 382T392 323T358 247T345 173Q345 131 364 119T409 113T460 141T497 188L554 339Z" />
<glyph unicode="A" glyph-name="A" horiz-adv-x="653" d="M196 243H406L305 500H302L196 243ZM236 637Q267 637 290 633T332 617T366 585T395 531L563 117Q568 104 574 91T588 66T607 48T634 40Q645 40 651 38T659 19Q659 11 655 4T641 -3Q609 -1 585 -1T531 0Q471
0 407 -3Q397 -3 393 4T389 19Q390 36 396 38T414 40Q438 40 451 44T467 58T469 81T458 117L424 200H177Q153 139 145 117Q137 91 134 76T137 53T159 43T205 40Q216 40 222 38T230 19Q230 11 226 4T212 -3Q180 -1 157 -1T103 0Q88 0 77 0T56 0T34 -1T6 -3Q-4 -3
-8 4T-12 19Q-11 36 -5 38T13 40Q33 40 45 46T66 64T81 89T93 117L268 531Q275 549 273 560T264 578T245 588T221 594Q206 597 201 599T196 617Q196 634 207 635T236 637Z" />
<glyph unicode="B" glyph-name="B" horiz-adv-x="621" d="M303 39Q336 39 366 47T418 72T453 119T466 192Q464 216 453 238T420 277T361 305T272 316H231V117Q231 92 234 77T246 53T268 42T303 39ZM231 594V356H273Q293 356 318 358T366 371T403 406T418 475Q418
528 393 561T301 594H231ZM179 0Q149 0 121 0T60 -3Q50 -3 46 4T42 19Q43 36 49 38T67 40Q91 40 104 46T123 64T130 89T132 117V514Q132 528 131 542T123 567T104 584T67 591Q56 591 50 593T42 612Q42 620 46 627T60 634Q92 632 120 632T178 631H319Q377 631 410
623T469 598Q495 581 510 552T525 487Q525 453 513 428T480 384T436 355T390 339V336Q430 336 463 325T521 293T559 247T574 192Q575 135 549 98T483 39T393 8T299 -1L179 0Z" />
<glyph unicode="C" glyph-name="C" horiz-adv-x="639" d="M596 510Q596 489 590 470T570 435T538 411T494 402Q479 402 469 406T452 417T443 429T440 438Q440 440 448 444T465 457T482 479T490 513Q490 558 460 584T375 611Q330 611 292 592T225 535T182 443T166
317Q166 257 182 205T229 113T301 52T394 29Q448 29 486 51T556 124Q565 141 588 127Q597 121 602 113T600 95Q571 59 546 37T493 2T433 -15T358 -20Q295 -20 239 2T141 68T74 172T49 311Q49 387 72 450T137 557T240 626T376 651Q412 651 451 644T522 621T575 577T596
510Z" />
<glyph unicode="D" glyph-name="D" horiz-adv-x="728" d="M335 631Q407 631 469 610T578 547T652 447T679 312Q679 232 648 173T565 76T449 19T317 0H179Q149 0 121 0T60 -3Q51 -3 47 4T43 19Q44 36 50 38T68 40Q92 40 105 46T124 64T131 89T133 117V514Q133 528
132 542T124 567T105 584T68 591Q57 591 51 593T43 612Q43 620 47 627T60 634Q93 632 121 632T179 631H335ZM558 312Q558 373 542 425T494 515T416 574T310 595Q302 595 232 594V105Q232 64 256 51T332 37Q393 37 436 57T506 113T545 199T558 312Z" />
<glyph unicode="E" glyph-name="E" horiz-adv-x="594" d="M493 631Q504 631 511 626T519 607L522 467Q522 457 513 452T495 447Q484 447 475 451T464 465Q459 499 453 522T436 561T409 583T366 591H232V337H413Q421 336 424 329T428 314Q428 306 425 300T413 294H232V105Q233
95 234 84T241 62T262 46T302 40H394Q420 41 436 46T464 65T483 101T501 156Q505 166 514 169T535 170Q543 168 551 163T559 147L539 21Q536 7 530 4T510 0H180Q150 0 122 0T60 -3Q51 -3 47 4T43 19Q44 36 50 38T68 40Q92 40 105 46T124 64T131 89T133 117V514Q133
528 132 542T124 567T105 584T68 591Q57 591 51 593T43 612Q43 620 47 627T60 634Q93 632 121 632T179 631H493Z" />
<glyph unicode="F" glyph-name="F" horiz-adv-x="525" d="M133 514Q133 528 132 542T124 567T105 584T68 591Q57 591 51 593T43 612Q43 620 47 627T60 634Q92 632 120 632T179 631H468Q479 631 486 626T494 607L497 467Q497 457 488 452T470 447Q459 447 450 451T438
465Q433 499 427 522T411 561T384 583T341 591H232V331H411Q419 330 423 323T427 308Q427 300 423 294T411 288H232V117Q232 103 233 89T241 64T260 47T297 40Q307 40 314 38T322 19Q322 11 318 4T304 -3Q239 0 180 0Q150 0 121 0T60 -3Q51 -3 47 4T43 19Q44 36
50 38T68 40Q92 40 105 46T124 64T131 89T133 117V514Z" />
<glyph unicode="G" glyph-name="G" horiz-adv-x="692" d="M590 29Q561 15 535 6T483 -9T426 -17T359 -20Q296 -20 240 0T141 61T74 164T49 311Q49 387 74 450T146 557T257 626T398 651Q433 651 470 643T539 618T590 575T610 510Q610 489 604 470T585 435T555 411T515
402Q496 402 476 411T454 438Q454 440 462 445T479 459T496 482T504 517Q504 560 471 585T386 611Q340 611 300 592T230 535T183 443T166 317Q166 249 182 196T229 106T301 49T394 29Q427 29 451 33T502 45V147Q502 168 502 182T496 206T478 219T444 224Q433 224
425 226T416 245Q416 253 421 260T437 267Q453 266 465 266T490 265T516 264T547 264Q564 264 577 264T602 264T626 265T655 267Q665 267 669 260T674 245Q673 228 665 226T646 224Q625 224 614 219T597 205T591 181T590 147V29Z" />
<glyph unicode="H" glyph-name="H" horiz-adv-x="777" d="M232 294V117Q232 103 233 89T241 64T260 47T297 40Q308 40 314 38T322 19Q322 11 318 4T304 -3Q239 0 180 0Q150 0 122 0T61 -3Q51 -3 47 4T43 19Q44 36 50 38T68 40Q92 40 105 46T124 64T131 89T133
117V514Q133 528 132 542T124 567T105 584T68 591Q57 591 51 593T43 612Q43 620 47 627T61 634Q93 632 121 632T179 631Q239 631 304 634Q314 634 318 627T322 612Q321 595 315 593T297 591Q273 591 260 585T241 567T234 542T232 514V337H546V514Q546 528 545 542T537
567T518 584T481 591Q470 591 463 593T455 612Q455 620 459 627T473 634Q537 631 598 631Q628 631 656 631T717 634Q726 634 730 627T735 612Q734 595 727 593T710 591Q686 591 673 585T654 567T646 542T644 514V117Q644 103 645 89T653 64T673 47T710 40Q720 40
727 38T735 19Q735 11 731 4T717 -3Q685 -1 656 -1T597 0Q537 0 473 -3Q464 -3 460 4T455 19Q456 36 463 38T481 40Q505 40 518 46T537 64T544 89T546 117V294H232Z" />
<glyph unicode="I" glyph-name="I" horiz-adv-x="364" d="M231 117Q231 103 232 89T240 64T259 47T296 40Q307 40 313 38T322 19Q322 11 318 4T304 -3Q239 0 180 0Q150 0 121 0T60 -3Q50 -3 46 4T42 19Q43 36 50 38T67 40Q91 40 104 46T123 64T130 89T133 117V514Q132
528 131 542T123 567T104 584T67 591Q57 591 50 593T42 612Q42 620 46 627T60 634Q92 632 120 632T179 631Q239 631 304 634Q313 634 317 627T322 612Q320 595 314 593T296 591Q272 591 259 585T240 567T233 542T231 514V117Z" />
<glyph unicode="J" glyph-name="J" horiz-adv-x="345" d="M25 -192Q8 -195 2 -175Q-3 -156 12 -150Q51 -134 73 -108T106 -43T121 46T124 162V514Q124 528 123 542T115 567T96 584T59 591Q48 591 41 593T33 612Q33 620 37 627T51 634Q83 632 111 632T170 631Q230
631 295 634Q304 634 308 627T313 612Q312 595 305 593T287 591Q263 591 250 585T231 567T224 542T222 514V128Q222 68 213 16T180 -78T119 -149T25 -192Z" />
<glyph unicode="K" glyph-name="K" horiz-adv-x="700" d="M458 542Q478 564 477 576T449 590Q436 591 435 611Q435 620 440 627T453 634Q479 632 508 632T563 631Q583 631 608 632T654 634Q664 634 668 627T673 611Q671 596 666 593T653 590Q615 592 580 578T503
523Q486 505 459 477T405 421Q374 389 341 354Q400 282 460 223T564 117Q581 100 594 87T619 64T645 48T675 40Q683 39 691 38T700 19Q700 11 696 4T682 -3Q666 -2 657 -2T639 -1T621 0T597 0H533Q478 61 421 125T297 267Q279 288 264 296T232 307V117Q232 103
233 89T241 64T260 47T297 40Q308 40 314 38T322 19Q322 11 318 4T304 -3Q239 0 180 0Q150 0 122 0T61 -3Q51 -3 47 4T43 19Q44 36 50 38T68 40Q92 40 105 46T124 64T131 89T133 117V514Q133 528 132 542T124 567T105 584T68 591Q57 591 51 593T43 612Q43 621 47
627T61 634Q93 632 121 632T179 631Q239 631 304 634Q314 634 318 628T322 612Q321 597 316 594T297 591Q273 591 260 585T241 567T234 542T232 514V333Q249 337 271 353T317 389Q355 424 391 464T458 542Z" />
<glyph unicode="L" glyph-name="L" horiz-adv-x="571" d="M232 102Q233 92 234 81T241 61T262 45T302 40H392Q418 41 434 46T462 65T481 101T499 156Q503 166 512 169T533 170Q541 168 549 163T557 147L537 21Q534 7 528 4T508 0H180Q150 0 122 0T60 -3Q51 -3
47 4T43 19Q44 34 50 37T68 40Q92 40 105 46T124 64T131 89T133 117V514Q133 528 132 542T124 567T105 584T68 591Q57 591 51 593T43 612Q43 622 47 628T60 634Q93 632 121 632T179 631Q239 631 304 634Q314 634 318 627T322 612Q321 595 314 593T297 591Q273 591
260 585T241 567T234 542T232 514V102Z" />
<glyph unicode="M" glyph-name="M" horiz-adv-x="889" d="M448 5Q446 0 440 -2T428 -5Q422 -5 416 -3T407 5L182 514H179L181 117Q181 103 182 89T189 64T207 47T244 40Q255 40 261 38T270 19Q270 11 266 4T252 -3Q236 -2 226 -2T206 -1T186 0T161 0Q146 0 135
0T113 0T90 -1T62 -3Q52 -3 48 4T44 19Q45 36 51 38T69 40Q93 40 105 46T124 64T131 89T132 117L134 514Q134 538 130 552T118 574T97 586T67 594Q53 597 48 599T42 617Q42 634 53 635T82 637Q119 637 149 633T203 617T247 585T280 531L452 145H455L652 631H709Q739
631 767 631T828 634Q838 634 842 627T846 612Q845 595 838 593T821 591Q797 591 784 585T765 567T758 542T756 514V117Q756 103 757 89T765 64T784 47T821 40Q831 40 838 38T846 19Q846 11 842 4T828 -3Q796 -1 767 -1T708 0Q649 0 585 -3Q575 -3 571 4T567 19Q568
36 574 38T592 40Q616 40 629 46T648 64T655 89T657 117V514H654L448 5Z" />
<glyph unicode="N" glyph-name="N" horiz-adv-x="737" d="M182 514H179L181 117Q181 103 182 89T189 64T207 47T244 40Q255 40 262 38T270 19Q270 11 266 4T252 -3Q236 -2 225 -2T203 -1T181 0T155 0Q140 0 130 0T110 0T89 -1T62 -3Q52 -3 48 4T44 19Q45 36 51
38T69 40Q93 40 105 46T124 64T131 89T132 117L134 514Q134 537 130 551T118 574T98 586T67 594Q52 597 47 599T42 617Q42 634 53 635T82 637Q124 637 153 632T205 615T248 583T291 531L565 171H568L566 514Q566 528 565 542T558 567T540 584T503 591Q492 591 486
593T477 612Q477 620 481 627T495 634Q511 633 522 633T544 632T565 631T591 631Q606 631 616 631T637 631T658 632T685 634Q695 634 699 627T703 612Q702 595 696 593T678 591Q654 591 642 585T623 567T616 542T615 514L613 10Q612 2 604 0T588 -3Q569 -3 559
10L182 514Z" />
<glyph unicode="O" glyph-name="O" horiz-adv-x="735" d="M366 651Q441 651 500 624T601 552T665 447T688 325Q688 242 659 178T583 70T479 3T366 -20Q292 -20 233 7T133 79T70 184T47 307Q47 390 76 454T151 562T254 628T366 651ZM365 24Q418 24 456 48T520 114T557
210T569 325Q569 381 557 432T519 523T455 585T365 608Q312 608 274 584T212 519T176 424T164 310Q164 253 176 202T213 111T276 48T365 24Z" />
<glyph unicode="P" glyph-name="P" horiz-adv-x="604" d="M330 631Q346 631 370 630T422 622T478 604T529 572T566 523T580 451Q580 404 559 366T502 301T422 260T331 245Q308 245 283 248T231 261V117Q231 103 232 89T240 64T259 47T296 40Q307 40 314 38T322
19Q322 11 318 4T304 -3Q239 0 179 0Q149 0 121 0T60 -3Q51 -3 47 4T42 19Q43 36 50 38T68 40Q92 40 105 46T124 64T131 89T133 117V514Q133 528 132 542T124 567T105 584T68 591Q57 591 50 593T42 612Q42 620 46 627T60 634Q92 632 121 632T180 631H330ZM231 301Q241
296 260 293T302 290Q325 290 354 297T408 322T451 370T469 448Q469 499 449 528T400 572T342 590T294 594Q276 594 264 592T244 581T234 558T231 517V301Z" />
<glyph unicode="Q" glyph-name="Q" horiz-adv-x="735" d="M734 -150Q753 -148 761 -138T769 -115Q769 -92 752 -71T703 -49Q700 -35 714 -19T760 -3Q768 -3 780 -7T803 -21T823 -46T831 -83Q831 -106 819 -127T787 -164T743 -189T695 -200Q644 -200 608 -184T540
-143T476 -92T400 -42Q382 -33 365 -27T324 -16Q280 -6 240 8T171 45Q111 91 79 160T47 307Q47 390 76 454T151 562T254 628T366 651Q441 651 501 624T602 552T666 447T689 325Q689 268 674 218T631 128T566 57T483 9Q478 7 469 5T442 1V-1Q469 -4 491 -15Q528
-33 560 -56T622 -101T679 -136T734 -150ZM365 21Q418 21 457 46T521 113T558 210T570 325Q570 381 558 432T520 523T456 585T365 608Q312 608 274 584T212 519T177 424T165 310Q165 253 177 201T214 109T276 45T365 21Z" />
<glyph unicode="R" glyph-name="R" horiz-adv-x="671" d="M302 594Q281 594 267 591T246 578T235 552T232 511V319H320Q371 319 400 333T445 369T464 414T469 459Q469 483 461 507T434 551T383 582T302 594ZM418 301Q456 241 495 181T585 67Q599 56 612 49T645
40Q653 39 661 38T670 19Q670 11 666 4T652 -3Q636 -2 626 -2T606 -1T587 0T562 0Q520 8 492 28T437 87Q409 125 385 163T338 240Q331 250 325 258T311 270T291 277T261 280H232V117Q232 103 233 89T241 64T260 47T297 40Q307 40 314 38T322 19Q322 11 318 4T304
-3Q239 0 179 0Q149 0 121 0T61 -3Q51 -3 47 4T43 19Q44 36 50 38T68 40Q92 40 105 46T124 64T131 89T133 117V513Q133 527 132 541T124 566T105 584T68 591Q57 591 51 593T43 612Q43 620 47 627T61 634Q93 632 121 632T180 631H352Q413 630 456 616T526 579T567
527T580 468Q580 441 569 416T537 368T486 329T418 301Z" />
<glyph unicode="S" glyph-name="S" horiz-adv-x="545" d="M265 20Q297 20 322 30T365 56T392 92T401 134Q401 175 376 202T314 249T234 287T152 328T89 386T62 472Q61 519 77 553T122 608T192 640T278 651Q311 651 345 644T406 622T450 583T467 525Q467 489 443
466T379 442Q353 444 343 455T332 473Q332 475 339 477T356 486T372 502T380 531Q380 569 351 589T279 610Q246 610 223 602T184 580T162 548T155 511Q155 474 175 451T235 406Q280 382 326 362T411 316T474 253T499 157Q499 119 481 87T431 31T356 -6T265 -20Q160
-20 105 16T49 124Q49 160 73 183T137 207Q163 205 173 194T184 176Q184 174 179 172T166 163T154 147T148 118Q148 73 175 47T265 20Z" />
<glyph unicode="T" glyph-name="T" horiz-adv-x="600" d="M545 631Q556 631 563 626T571 607L575 466Q575 456 567 451T550 446Q539 446 529 450T516 464Q511 498 505 522T488 562T461 585T418 594H350V117Q350 103 351 89T359 64T378 47T415 40Q425 40 432 38T440
19Q440 11 436 4T422 -3Q390 -1 362 -1T304 0Q243 0 179 -3Q169 -3 165 4T161 19Q162 36 168 38T186 40Q210 40 223 46T242 64T249 89T251 117V594H182Q156 593 140 586T113 562T96 522T85 464Q83 455 72 451T50 446Q42 446 34 451T26 466L29 607Q29 621 37 626T56
631H545Z" />
<glyph unicode="U" glyph-name="U" horiz-adv-x="720" d="M600 178Q600 125 577 88T519 26T441 -9T359 -20Q299 -20 254 -4T178 40T133 101T117 173V514Q117 528 116 542T108 567T89 584T52 591Q41 591 35 593T27 612Q27 620 31 627T45 634Q77 632 105 632T163
631Q223 631 288 634Q298 634 302 627T306 612Q305 597 300 594T286 591Q260 591 247 585T226 568T218 543T216 514V202Q216 176 221 148T242 95T290 55T375 39Q426 39 458 52T510 86T536 134T544 188V451Q544 500 542 528T531 570T508 587T467 591Q457 591 450
593T442 612Q442 620 446 627T460 634Q492 632 517 632T572 631Q602 631 627 631T684 634Q694 634 698 627T702 612Q701 597 696 594T682 591Q655 591 639 588T614 572T603 532T600 457V178Z" />
<glyph unicode="V" glyph-name="V" horiz-adv-x="648" d="M498 542Q509 574 499 582T454 591Q443 591 437 593T429 612Q429 620 433 627T446 634Q478 632 501 632T555 631Q570 631 580 631T601 631T622 632T649 634Q659 634 663 627T667 612Q666 595 660 593T642
591Q604 591 582 577T544 523Q544 523 536 501T514 441T483 356T447 258L351 -10H304Q250 137 209 251Q191 300 174 346T144 429T122 488T114 510Q106 530 99 544T82 568T62 584T34 593Q20 596 15 598T9 616Q9 633 20 634T49 636Q116 635 152 612T212 531L357 141H360L498
542Z" />
<glyph unicode="W" glyph-name="W" horiz-adv-x="934" d="M33 593Q19 596 14 598T8 616Q8 633 19 634T48 636Q115 635 151 612T211 531L325 165H329L451 631H503L666 165H669L782 542Q790 574 782 582T738 591Q727 591 721 593T713 612Q713 620 717 627T730 634Q762
632 785 632T839 631Q854 631 864 631T885 631T906 632T933 634Q943 634 947 627T951 612Q950 595 944 593T926 591Q888 591 864 577T828 523L664 -10H617L455 467L326 -10H279L113 510Q105 530 98 544T81 568T61 584T33 593Z" />
<glyph unicode="X" glyph-name="X" horiz-adv-x="653" d="M543 109Q560 84 580 62T634 40Q645 40 651 38T659 19Q659 11 655 4T642 -3Q610 -1 581 -1T522 0Q464 0 400 -3Q390 -3 386 4T382 19Q383 36 390 38T407 40Q437 40 445 55T439 89L311 272L183 89Q172 73
171 64T176 49T196 42T227 40Q238 40 244 38T252 19Q252 11 248 4T235 -3Q203 -1 180 -1T126 0Q111 0 100 0T77 0T53 -1T25 -3Q15 -3 11 4T7 19Q8 36 14 38T32 40Q51 40 64 43T89 54T112 75T137 108L282 314L154 515Q129 553 106 569T51 593Q37 596 32 598T26 616Q26
633 37 634T66 636Q101 636 128 631T178 613T220 580T259 532L341 398L440 542Q451 558 452 568T446 583T426 589T396 591Q385 591 379 593T371 612Q371 620 375 627T388 634Q420 632 443 632T497 631Q512 631 523 631T546 631T570 632T598 634Q608 634 612 627T616
612Q615 595 609 593T591 591Q572 591 558 588T533 577T510 556T486 523L369 357L543 109V109Z" />
<glyph unicode="Y" glyph-name="Y" horiz-adv-x="621" d="M236 532Q265 478 288 428T341 323H344L455 542Q464 559 464 568T459 583T441 589T411 591Q400 591 394 593T386 612Q386 620 390 627T403 634Q435 632 458 632T512 631Q527 631 538 631T561 631T585 632T613
634Q623 634 627 627T631 612Q630 595 624 593T606 591Q568 591 544 575T501 523L388 310Q381 295 376 285T368 265T363 243T361 214V117Q361 103 362 89T370 64T389 47T426 40Q437 40 443 38T451 19Q451 11 447 4T434 -3Q402 -1 373 -1T314 0Q254 0 190 -3Q180
-3 176 4T172 19Q173 36 180 38T197 40Q221 40 234 46T253 64T260 89T262 117V242Q262 248 255 267T235 312T208 368T179 426T152 478T132 515Q111 553 86 569T29 593Q15 596 10 598T4 616Q4 633 15 634T44 636Q79 636 107 631T158 614T200 582T236 532Z" />
<glyph unicode="Z" glyph-name="Z" horiz-adv-x="621" d="M358 515Q371 543 375 558T374 581T355 589T319 591H210Q184 590 168 585T141 566T122 530T103 475Q100 465 91 462T70 461Q62 463 55 468T49 484L69 610Q72 624 78 627T98 631H441Q499 631 564 634Q574
634 578 627T582 612Q581 595 575 594T557 591Q539 590 525 583T501 565T483 541T468 515L249 100Q245 91 242 81T242 61T256 46T294 40H412Q438 41 454 46T482 65T501 101T520 156Q523 166 532 169T553 170Q561 168 568 163T574 147L554 21Q551 7 545 4T525 0H172Q142
0 113 0T52 -3Q43 -3 39 4T34 19Q36 36 42 38T60 40Q72 40 81 42T98 50T115 68T134 100L358 515Z" />
<glyph unicode="[" glyph-name="bracketleft" horiz-adv-x="310" d="M132 685Q122 685 122 673V-163Q122 -175 132 -175H253Q276 -175 276 -196Q276 -218 253 -218H109Q91 -218 79 -216T60 -207T50 -186T47 -151V661Q47 682 50 695T60 716T79 726T109 728H253Q276
728 276 706Q276 685 253 685H132Z" />
<glyph unicode="\" glyph-name="backslash" horiz-adv-x="394" d="M34 674Q32 684 39 693T57 704Q67 706 76 701T90 685L360 -166Q362 -177 356 -185T338 -195Q329 -197 320 -193T306 -177L34 674Z" />
<glyph unicode="]" glyph-name="bracketright" horiz-adv-x="310" d="M57 685Q34 685 34 706Q34 728 57 728H201Q219 728 231 726T250 717T260 696T263 661V-151Q263 -172 260 -185T250 -206T231 -216T201 -218H57Q34 -218 34 -196Q34 -175 57 -175H178Q188 -175
188 -163V673Q188 685 178 685H57Z" />
<glyph unicode="^" glyph-name="asciicircum" horiz-adv-x="505" d="M227 714Q236 728 253 728Q271 728 280 714L466 414Q474 399 465 390T441 380Q432 379 424 382T410 394L253 650L96 394Q91 384 83 382T65 380Q51 381 41 390T40 414L227 714Z" />
<glyph unicode="_" glyph-name="underscore" horiz-adv-x="668" d="M105 -123Q94 -123 88 -115T82 -96Q82 -85 88 -77T105 -69H563Q574 -69 580 -77T586 -96Q586 -106 580 -114T563 -123H105Z" />
<glyph unicode="`" glyph-name="grave" horiz-adv-x="282" d="M50 637Q41 647 41 660Q41 675 54 688T85 702Q108 702 121 679L196 542Q200 534 200 528Q200 517 193 512T176 506Q163 506 152 518L50 637Z" />
<glyph unicode="a" glyph-name="a" horiz-adv-x="501" d="M223 436Q194 436 170 418T146 366Q146 354 151 345T162 329T173 319T178 314Q178 309 167 299T135 289Q103 289 87 312T70 363Q70 391 84 410T120 442T171 459T229 465Q263 465 296 460T355 438T397 394T414
319V86Q414 78 416 68T425 49T441 34T466 27Q473 27 477 25T481 11Q481 4 475 0T460 -7T442 -11T426 -12Q389 -12 360 9T326 69Q315 49 295 34T252 9T204 -7T158 -12Q132 -12 110 -3T71 23T44 60T34 107Q34 143 51 168T96 209T156 234T222 247T282 253T326 257V336Q326
383 303 409T223 436ZM326 227Q278 221 242 213T183 193T147 163T135 120Q135 88 153 65T200 42Q225 42 248 52T288 79T316 120T326 171V227Z" />
<glyph unicode="b" glyph-name="b" horiz-adv-x="561" d="M78 590Q78 603 78 615T74 637T59 652T27 658Q18 658 11 660T3 678Q3 684 7 689T19 696Q53 701 75 706T111 716T133 724T150 728Q158 729 163 725T169 709V407H172Q202 437 238 451T310 465Q354 465 392
448T459 400T504 326T520 230Q520 179 501 135T451 58T378 7T291 -12Q202 -12 137 37H132Q128 29 125 21T118 4T109 -9T97 -14Q88 -14 83 -8T78 6V590ZM418 226Q418 261 410 295T385 355T340 398T275 415Q241 415 215 403T169 369V105Q171 94 179 80T201 53T236
31T282 22Q312 22 337 36T380 76T408 141T418 226Z" />
<glyph unicode="c" glyph-name="c" horiz-adv-x="475" d="M411 113Q418 123 432 115Q439 111 442 104T440 90Q407 42 359 15T259 -12Q208 -12 168 5T99 53T56 129T41 227Q43 279 61 322T111 396T185 445T276 465Q289 465 312 463T359 453T403 429T431 382Q435
365 433 348T422 316T399 292T365 283Q343 283 331 294T319 310Q319 311 324 315T335 326T347 342T352 365Q352 397 329 412T277 428Q233 428 207 410T166 362T148 298T143 230Q143 189 152 154T180 93T224 53T282 38Q326 38 356 56T411 113Z" />
<glyph unicode="d" glyph-name="d" horiz-adv-x="580" d="M391 352Q387 364 379 378T357 403T325 421T282 429Q253 429 228 415T184 375T155 310T144 222Q144 186 152 153T178 95T222 54T285 38Q323 38 348 53T391 88V352ZM482 92Q482 63 500 48T560 33Q571 33
574 28T577 17Q577 3 560 0L401 -11Q393 -11 393 -5T392 9V49H389Q363 23 326 6T251 -12Q209 -12 171 5T104 54T58 130T41 227Q41 273 58 316T106 392T179 445T272 465Q304 465 334 458T388 437H391V590Q391 603 391 615T387 637T372 652T340 658Q331 658 324 660T316
678Q316 684 320 689T332 696Q366 701 388 706T424 716T446 724T463 728Q471 729 476 725T482 709V92Z" />
<glyph unicode="e" glyph-name="e" horiz-adv-x="502" d="M306 278Q330 278 344 287T360 320Q360 341 354 361T336 396T306 421T264 430Q213 430 180 390T143 278H306ZM461 93Q430 44 383 16T275 -12Q217 -12 173 7T100 59T56 136T41 229Q41 272 56 314T101 390T171
444T264 465Q310 465 344 453T402 418T439 364T456 297Q456 262 437 251T386 240H143Q143 196 152 159T180 95T229 53T301 38Q343 38 373 56T431 119Q439 129 453 120Q461 115 463 107T461 93Z" />
<glyph unicode="f" glyph-name="f" horiz-adv-x="343" d="M116 490Q116 540 128 582T163 656T221 705T301 724Q324 724 346 718T387 698T416 667T428 626Q428 598 411 575T362 551Q341 551 330 561T318 577Q318 579 323 583T335 594T346 612T352 638Q352 660 336
675T294 691Q261 691 244 671T218 621T209 561T208 508V453H306Q316 453 323 452T331 434Q331 426 327 420T314 414H208V103Q208 90 208 78T212 56T227 41T279 35Q289 35 295 34T302 17Q302 9 299 3T287 -3Q238 -1 213 -1T162 0Q135 0 111 0T58 -3Q50 -3 46 3T42
17Q43 32 49 33T65 35Q86 35 96 40T111 55T116 77T116 103V414H49Q41 414 37 420T32 434Q33 450 39 451T56 453H116V490Z" />
<glyph unicode="g" glyph-name="g" horiz-adv-x="523" d="M401 414V412Q418 395 430 367T442 314Q442 278 426 249T384 200T324 170T256 159H212Q160 159 137 149T113 116Q113 98 125 89T171 77L308 73Q414 73 460 41T506 -51Q506 -91 487 -122T433 -174T348 -207T239
-218Q191 -218 152 -212T85 -192T42 -155T27 -98Q27 -65 48 -40T104 -14Q116 -14 125 -17T142 -26T153 -36T157 -44Q157 -46 153 -50T142 -61T132 -78T127 -104Q127 -151 161 -166T269 -181Q337 -181 377 -156T417 -76Q417 -52 404 -38T368 -16T317 -6T257 -3T195
-1T138 5Q103 11 80 28T56 86Q56 123 82 150T162 178Q130 190 110 205T77 238T60 275T55 313Q55 345 69 373T108 421T169 454T248 466Q276 466 306 462T359 446L496 472Q507 473 511 465T515 448Q515 434 511 422T500 410L401 414ZM247 435Q202 435 173 404T144
316Q144 254 173 221T248 188Q294 188 323 220T352 314Q352 371 323 403T247 435Z" />
<glyph unicode="h" glyph-name="h" horiz-adv-x="589" d="M189 388H191Q206 402 221 415T254 440T296 458T352 465Q421 465 460 424T500 316V103Q500 90 500 78T504 56T519 41T551 35Q561 35 567 34T574 17Q574 9 571 3T559 -3Q530 -1 505 -1T454 0Q427 0 403
0T350 -3Q342 -3 338 3T334 17Q335 32 341 33T357 35Q378 35 388 40T403 55T408 77T408 103V315Q408 340 400 358T378 387T347 404T313 410Q287 410 266 403T229 384T203 362T189 341V103Q189 90 189 78T193 56T208 41T240 35Q250 35 256 34T263 17Q263 9 260 3T248
-3Q219 -1 194 -1T143 0Q116 0 92 0T39 -3Q31 -3 27 3T23 17Q24 32 30 33T46 35Q67 35 77 40T92 55T97 77T98 103V591Q98 604 98 616T94 638T79 653T47 659Q38 659 31 661T23 679Q23 685 27 690T39 697Q73 702 95 707T131 717T153 725T170 729Q178 730 183 726T189
710V388Z" />
<glyph unicode="i" glyph-name="i" horiz-adv-x="297" d="M144 591Q133 591 122 594T101 604T85 623T78 652Q78 660 82 670T96 690T120 705T153 711Q162 711 172 708T190 697T204 678T210 649Q210 628 193 610T144 591ZM200 103Q200 90 200 78T204 56T220 41T252
35Q261 35 267 34T275 17Q275 9 271 3T259 -3Q230 -1 206 -1T154 0Q127 0 103 0T50 -3Q42 -3 38 3T34 17Q36 32 42 33T58 35Q79 35 89 40T104 55T109 77T109 103V332Q109 345 109 357T105 379T90 394T58 400Q49 400 42 402T34 420Q34 426 38 431T50 438Q84 443
106 448T142 458T164 466T181 470Q189 471 194 467T200 451V103Z" />
<glyph unicode="j" glyph-name="j" horiz-adv-x="266" d="M98 332Q98 345 98 357T94 379T79 394T47 400Q38 400 31 402T23 420Q23 426 27 431T39 438Q73 443 95 448T131 458T153 466T170 470Q178 471 183 467T189 451V99Q189 42 180 -7T150 -97T93 -164T4 -205Q-4
-207 -8 -204T-16 -191Q-18 -183 -17 -177T-8 -167Q28 -152 49 -127T81 -64T95 21T98 131V332ZM117 591Q106 591 95 594T74 604T58 623T51 652Q51 660 55 670T69 690T93 705T126 711Q135 711 145 708T163 697T177 678T183 649Q183 628 166 610T117 591Z" />
<glyph unicode="k" glyph-name="k" horiz-adv-x="567" d="M189 252Q211 257 229 266T261 289L345 375Q351 382 358 390T367 405T359 415T321 418Q310 420 309 436Q309 444 313 450T325 456Q348 454 380 454T435 453Q452 453 468 454T502 456Q510 456 514 450T518
436Q517 423 513 421T501 418Q462 418 438 404T384 359L300 273Q312 257 332 234T374 185T416 138T449 101Q478 70 497 54T546 35Q554 34 561 33T568 17Q568 9 565 3T552 -3Q538 -2 530 -2T509 -1T477 0T419 0Q384 38 339 90T248 196Q237 207 222 216T189 224V103Q189
90 189 78T193 56T208 41T240 35Q250 35 256 34T264 17Q264 9 260 3T248 -3Q219 -1 194 -1T143 0Q116 0 92 0T39 -3Q31 -3 27 3T23 17Q24 32 30 33T46 35Q67 35 77 40T92 55T97 77T98 103V590Q98 603 98 615T94 637T79 652T47 658Q38 658 31 660T23 678Q23 684
27 689T39 696Q73 701 95 706T131 716T153 724T170 728Q178 729 183 725T189 709V252Z" />
<glyph unicode="l" glyph-name="l" horiz-adv-x="286" d="M98 591Q98 604 98 616T94 638T79 653T47 659Q38 659 31 661T23 679Q23 685 27 690T39 697Q73 702 95 707T131 717T153 725T170 729Q178 730 183 726T189 710V103Q189 90 189 78T193 56T209 41T241 35Q250
35 256 34T264 17Q264 9 260 3T248 -3Q219 -1 195 -1T143 0Q116 0 92 0T39 -3Q31 -3 27 3T23 17Q24 32 30 33T46 35Q67 35 77 40T92 55T97 77T98 103V591Z" />
<glyph unicode="m" glyph-name="m" horiz-adv-x="896" d="M199 388H202Q217 402 231 415T262 440T301 458T356 465Q405 465 439 445T491 388H493Q508 402 524 415T559 440T603 458T659 465Q728 465 767 424T807 316V103Q807 90 807 78T811 56T827 41T859 35Q868
35 874 34T882 17Q882 9 878 3T866 -3Q837 -1 813 -1T761 0Q734 0 710 0T657 -3Q649 -3 645 3T641 17Q642 32 648 33T664 35Q685 35 695 40T710 55T715 77T716 103V315Q716 340 708 358T686 387T655 404T620 410Q594 410 574 403T540 384T517 362T504 341V103Q504
90 504 78T507 56T521 41T552 35Q562 35 568 34T575 17Q575 9 571 3T559 -3Q530 -1 507 -1T457 0Q431 0 409 0T357 -3Q349 -3 345 3T341 17Q342 32 348 33T364 35Q385 35 395 40T409 55T413 77T412 103V315Q412 340 404 358T382 387T351 404T317 410Q291 410 271
403T237 384T213 362T200 341V103Q200 90 200 78T204 56T220 41T252 35Q261 35 267 34T275 17Q275 9 271 3T259 -3Q230 -1 206 -1T154 0Q127 0 103 0T50 -3Q42 -3 38 3T34 17Q35 32 41 33T57 35Q78 35 88 40T103 55T108 77T109 103V332Q109 345 109 357T105 379T90
394T58 400Q49 400 42 402T34 420Q34 426 38 431T50 438Q84 443 106 448T142 458T164 466T180 470Q188 471 193 467T199 451V388Z" />
<glyph unicode="n" glyph-name="n" horiz-adv-x="599" d="M198 388H201Q216 402 231 415T264 440T306 458T362 465Q431 465 470 424T510 316V103Q510 90 510 78T514 56T530 41T562 35Q571 35 577 34T585 17Q585 9 581 3T569 -3Q540 -1 516 -1T464 0Q437 0 413
0T360 -3Q352 -3 348 3T344 17Q345 32 351 33T367 35Q388 35 398 40T413 55T418 77T419 103V315Q419 340 411 358T389 387T358 404T323 410Q297 410 276 403T240 384T214 362T199 341V103Q199 90 199 78T203 56T219 41T251 35Q260 35 266 34T274 17Q274 9 270 3T258
-3Q229 -1 205 -1T153 0Q126 0 102 0T49 -3Q41 -3 37 3T33 17Q35 32 41 33T57 35Q78 35 88 40T103 55T108 77T108 103V332Q108 345 108 357T104 379T89 394T57 400Q48 400 41 402T33 420Q33 426 37 431T49 438Q83 443 105 448T141 458T163 466T179 470Q187 471
192 467T198 451V388Z" />
<glyph unicode="o" glyph-name="o" horiz-adv-x="548" d="M274 465Q326 465 369 446T443 394T490 320T507 233Q507 174 485 128T430 51T355 4T274 -12Q221 -12 179 7T105 59T58 133T41 220Q41 279 62 325T117 402T192 449T274 465ZM274 25Q310 25 335 42T375 87T398
153T405 233Q405 272 398 307T375 370T334 412T274 428Q237 428 212 412T172 367T150 301T143 222Q143 183 150 148T172 85T213 41T274 25Z" />
<glyph unicode="p" glyph-name="p" horiz-adv-x="584" d="M305 22Q344 22 370 41T411 91T433 156T440 224Q440 259 432 293T407 354T362 398T297 415Q259 415 234 400T189 363V95Q194 82 204 69T229 46T263 29T305 22ZM191 403Q219 429 258 447T333 465Q378 465
416 448T483 399T526 324T542 227Q542 173 523 129T471 53T398 5T313 -12Q268 -12 241 -3T193 19H189V-102Q189 -115 189 -127T195 -149T210 -164T241 -170Q250 -170 256 -171T264 -188Q264 -196 260 -202T248 -208Q219 -206 195 -206T143 -205Q116 -205 92 -205T39
-208Q31 -208 27 -202T23 -188Q24 -173 30 -172T46 -170Q66 -170 76 -165T92 -150T97 -128T98 -102V332Q98 345 98 357T94 379T79 394T47 400Q38 400 31 402T23 420Q23 426 27 431T39 438Q73 443 95 448T131 458T153 466T169 470Q177 471 182 467T188 451V403H191Z"
/>
<glyph unicode="q" glyph-name="q" horiz-adv-x="559" d="M390 355Q386 367 378 380T356 404T323 423T277 430Q248 430 224 416T181 374T153 309T142 222Q142 186 150 153T175 94T220 53T287 37Q323 37 347 51T390 84V355ZM482 -102Q482 -115 482 -127T487 -149T502
-164T533 -170Q543 -170 549 -171T556 -188Q556 -196 552 -202T540 -208Q511 -206 487 -206T435 -205Q409 -205 385 -205T331 -208Q323 -208 320 -202T316 -188Q317 -173 323 -172T339 -170Q358 -170 368 -165T384 -150T389 -128T390 -102V45H387Q369 25 335 7T254
-12Q210 -12 172 5T104 54T58 131T41 232Q41 281 60 324T111 398T185 447T272 465Q301 465 323 460T363 448T393 433T416 420H421Q425 427 429 437T438 455T449 470T463 476Q472 476 477 470T482 456V-102Z" />
<glyph unicode="r" glyph-name="r" horiz-adv-x="425" d="M108 332Q108 345 108 357T104 379T89 394T57 400Q48 400 41 402T33 420Q33 426 37 431T49 438Q83 443 105 448T141 458T163 466T179 470Q187 471 192 467T198 451V389H201Q235 422 271 443T337 465Q355
465 368 458T391 440T404 414T409 384Q409 371 405 359T393 336T373 319T345 312Q329 312 320 318T309 328Q309 330 318 340T328 365Q328 383 319 394T293 405Q276 405 250 388T199 347V103Q199 90 199 78T203 56T219 41T251 35Q260 35 266 34T274 17Q274 9 270
3T258 -3Q229 -1 205 -1T153 0Q126 0 102 0T49 -3Q41 -3 37 3T33 17Q35 32 41 33T57 35Q78 35 88 40T103 55T108 77T108 103V332Z" />
<glyph unicode="s" glyph-name="s" horiz-adv-x="443" d="M218 -12Q179 -12 146 -5T89 15T52 49T38 95Q38 124 55 142T101 160Q119 160 130 151T142 137Q142 135 139 132T131 124T123 110T119 90Q119 61 145 43T226 25Q273 25 299 45T326 103Q326 133 306 149T256
176T191 196T126 221T76 263T56 333Q56 366 72 391T114 432T172 457T237 465Q264 465 290 459T337 441T370 412T383 370Q383 344 367 325T323 305Q305 305 294 314T282 328Q282 329 286 332T296 341T306 355T311 375Q310 389 303 400T283 418T256 428T225 432Q207
432 190 428T160 415T138 395T130 366Q130 344 137 330T159 306T197 287T254 268Q287 257 314 247T360 222T391 186T402 133Q402 101 388 75T350 29T292 -1T218 -12Z" />
<glyph unicode="t" glyph-name="t" horiz-adv-x="379" d="M188 414V110Q188 95 191 82T200 57T218 40T246 33Q257 33 270 34T301 44Q305 46 309 47T317 49Q325 49 329 43T336 29Q339 20 331 15Q300 -5 274 -11T216 -17Q193 -17 172 -9T134 17T107 60T97 122V416L39
414Q32 414 29 419T25 432Q25 440 28 446T39 455Q67 460 84 471T112 496T130 529T144 568Q147 576 152 578T166 581Q172 581 179 578T187 567L180 453L297 460Q306 461 309 455T312 441Q312 430 309 421T300 411L188 414Z" />
<glyph unicode="u" glyph-name="u" horiz-adv-x="596" d="M494 95Q494 36 573 36Q584 36 587 30T590 17Q590 3 573 0L412 -11Q404 -11 404 -5T403 9V65H401Q386 51 371 38T338 13T295 -5T240 -12Q171 -12 132 29T92 137V322Q92 335 92 347T88 369T73 384T41 390Q32
390 25 392T17 410Q17 416 21 421T33 428Q67 433 89 438T125 448T147 456T164 460Q172 461 177 457T183 441V138Q183 113 191 95T213 66T244 49T279 43Q305 43 326 50T363 69T389 91T403 112V322Q403 335 403 347T399 369T384 384T352 390Q343 390 336 392T328
410Q328 416 332 421T344 428Q378 433 400 438T436 448T458 456T475 460Q483 461 488 457T494 441V95Z" />
<glyph unicode="v" glyph-name="v" horiz-adv-x="551" d="M252 -10Q233 31 215 79T178 174T141 266T107 345Q99 363 92 376T76 397T57 410T31 417Q18 419 14 420T8 436Q7 453 17 454T43 457Q104 460 139 439T197 368Q207 344 220 312T246 245T274 176T302 113H305L404
375Q414 404 405 411T366 418Q357 418 351 419T344 436Q344 442 347 449T358 456Q387 454 408 454T455 453Q468 453 477 453T495 453T513 454T538 456Q546 456 549 449T553 436Q552 421 546 420T531 418Q498 418 479 406T445 359L371 175Q357 140 344 107T319 48T301
6T294 -10H252Z" />
<glyph unicode="w" glyph-name="w" horiz-adv-x="798" d="M290 109H293Q300 130 308 159T326 222T345 290T363 356T379 412T390 453H438L575 109H578Q588 140 598 177T617 251T634 319T648 375Q654 402 646 410T610 418Q601 418 595 419T588 436Q588 442 591 449T602
456Q631 454 652 454T700 453Q713 453 722 453T740 453T759 454T784 456Q792 456 795 449T799 436Q798 421 792 420T777 418Q741 418 721 406T691 359L580 -10H521L394 317L295 -10H236L108 345Q100 363 93 376T77 397T58 410T32 417Q19 419 15 420T9 436Q8 453
18 454T44 457Q105 460 140 439T198 368L290 109Z" />
<glyph unicode="x" glyph-name="x" horiz-adv-x="541" d="M434 94Q450 71 469 53T514 35Q523 35 529 34T537 17Q537 9 533 3T521 -3Q492 -1 472 -1T425 0Q398 0 373 0T319 -3Q311 -3 307 3T303 17Q304 32 310 33T326 35Q346 35 347 46T333 78L255 182L169 78Q148
51 153 43T194 35Q203 35 209 34T216 17Q216 11 213 4T202 -3Q188 -2 178 -2T159 -1T141 0T118 0Q105 0 96 0T77 0T57 -1T32 -3Q24 -3 21 4T17 17Q18 32 24 33T39 35Q55 35 66 38T86 49T104 68T126 94Q145 115 171 148T227 216L113 377Q100 394 86 403T50 417Q37
419 33 420T27 436Q26 453 36 454T62 457Q164 462 210 401Q221 387 239 357T286 288L353 375Q362 388 367 396T370 409T358 416T328 418Q319 418 313 419T306 436Q306 442 309 449T320 456Q334 455 344 455T363 454T381 453T404 453Q417 453 426 453T445 453T465
454T490 456Q498 456 501 449T505 436Q504 421 498 420T483 418Q468 417 458 414T438 405T419 387T396 359Q383 344 362 316T312 254Q345 211 377 169T434 94Z" />
<glyph unicode="y" glyph-name="y" horiz-adv-x="552" d="M296 -10Q283 -42 265 -78T222 -145T166 -197T97 -218Q75 -218 55 -211T20 -190T-4 -160T-13 -124Q-12 -97 -1 -83T22 -63T43 -56T51 -55Q70 -55 80 -62T90 -75Q90 -77 83 -84T74 -111Q73 -129 85 -146T122
-163Q143 -163 161 -151T194 -120T222 -78T245 -34Q252 -12 244 12Q226 52 209 97T175 186T142 272T110 345Q102 363 95 376T79 397T60 410T34 417Q21 419 17 420T11 436Q10 453 20 454T46 457Q107 460 142 439T200 368Q210 344 222 312T248 245T276 176T304 113H307L405
375Q415 404 406 411T367 418Q358 418 352 419T345 436Q345 442 348 449T359 456Q388 454 409 454T456 453Q469 453 478 453T496 453T514 454T539 456Q547 456 550 449T554 436Q553 421 547 420T532 418Q499 418 480 406T446 359L372 177Q358 142 345 109T321 50T303
8T296 -10Z" />
<glyph unicode="z" glyph-name="z" horiz-adv-x="502" d="M310 32Q334 32 350 36T378 52T397 87T409 148Q410 156 419 160T439 164Q447 164 454 160T461 146L444 23Q442 8 436 4T421 0H132Q119 0 110 0T93 0T76 -1T52 -3Q44 -3 40 3T36 17Q37 32 43 33T59 35Q73
35 82 36T99 43T112 57T127 83L265 370Q274 388 276 398T275 414T262 420T239 421H197Q173 421 157 417T129 401T110 365T98 305Q97 297 88 293T68 289Q60 289 53 293T46 307L63 430Q65 445 71 449T86 453H360Q373 453 382 453T399 453T417 454T441 456Q449 456
453 450T457 436Q456 421 450 420T434 418Q420 418 411 417T394 410T380 396T365 370L228 83Q219 65 217 55T218 39T231 33T254 32H310Z" />
<glyph unicode="{" glyph-name="braceleft" horiz-adv-x="286" d="M249 -218Q225 -217 200 -212T153 -193T119 -152T105 -84Q105 -57 106 -27T108 34T111 94T113 149Q113 162 111 176T101 202T76 223T28 235Q23 236 20 242T17 254Q17 259 20 265T28 273Q59 276
76 285T101 306T111 332T113 359Q113 384 112 413T109 473T106 533T105 588Q105 631 118 657T151 699T197 720T246 727Q254 727 259 726T266 711Q266 705 263 700T251 693Q225 688 210 679T186 658T176 630T173 598Q173 573 175 545T180 487T185 429T187 375Q187
333 168 300T100 256V252Q147 242 167 209T187 133Q187 107 185 79T180 21T175 -35T173 -87Q173 -104 175 -119T185 -148T207 -170T246 -184Q254 -186 259 -187T266 -200Q267 -207 263 -212T249 -218Z" />
<glyph unicode="|" glyph-name="bar" horiz-adv-x="212" d="M134 -195Q134 -206 125 -212T106 -218Q95 -218 87 -212T78 -195V705Q78 716 86 722T106 728Q116 728 125 722T134 705V-195Z" />
<glyph unicode="}" glyph-name="braceright" horiz-adv-x="286" d="M37 -218Q27 -218 23 -213T20 -200Q21 -189 26 -188T40 -184Q64 -179 78 -170T100 -148T110 -120T113 -87Q113 -63 111 -36T106 21T101 78T99 133Q99 176 119 209T186 252V256Q138 266 119 299T99
375Q99 400 101 428T106 486T111 544T113 598Q113 614 111 629T100 657T77 679T35 693Q27 695 24 700T20 711Q21 725 26 726T40 727Q64 726 89 720T134 699T168 658T181 588Q181 563 180 534T177 474T174 414T173 359Q173 346 174 332T184 306T210 285T258 273Q263
272 266 266T269 254Q269 249 266 243T258 235Q227 232 210 223T185 202T175 176T173 149Q173 124 174 95T176 35T179 -26T181 -84Q181 -126 168 -152T133 -192T87 -212T37 -218Z" />
<glyph unicode="~" glyph-name="asciitilde" horiz-adv-x="556" d="M86 182Q81 170 74 167T58 167Q50 170 46 175T44 191Q53 214 66 239T99 285T142 319T195 333Q225 333 253 323T307 301T358 278T403 268Q423 268 440 282T473 333Q478 344 485 346T500 346Q508
344 512 339T514 323Q507 301 494 276T461 231T418 197T364 185Q326 186 299 196T250 219T209 240T165 250Q133 250 117 230T86 182Z" />
<glyph unicode="&#xa0;" glyph-name="nbspace" horiz-adv-x="223" />
<glyph unicode="&#xa1;" glyph-name="exclamdown" horiz-adv-x="242" d="M122 465Q149 465 167 448T185 401Q185 375 167 357T121 338Q93 338 75 356T57 401Q57 430 75 447T122 465ZM97 232Q97 240 104 243T121 246Q129 246 137 243T145 232Q145 201 149 158T160
68T170 -28T175 -117Q175 -168 164 -201T121 -234Q90 -234 79 -201T67 -117Q67 -76 71 -28T82 67T92 158T97 232Z" />
<glyph unicode="&#xa2;" glyph-name="cent" horiz-adv-x="490" d="M272 -52Q272 -77 250 -77Q238 -77 234 -71T229 -52V-10Q141 1 93 64T44 227Q45 272 59 310T98 378T156 428T229 458V485Q229 496 233 503T250 510Q272 510 272 485V464H287Q306 464 331 461T380
446T419 415T436 360Q436 331 419 307T368 283Q346 283 334 294T322 310Q322 311 327 315T338 326T350 342T355 365Q355 397 332 412T280 428H272V38H285Q330 38 359 56T414 113Q418 118 424 118Q431 118 438 112T446 98Q446 94 443 90Q411 45 366 18T272 -11V-52ZM146
230Q146 167 167 120T229 51V419Q202 409 186 389T161 342T149 287T146 230Z" />
<glyph unicode="&#xa3;" glyph-name="sterling" horiz-adv-x="545" d="M64 0Q54 0 49 7T44 27Q44 38 49 47T64 60Q91 69 108 87T136 130T149 183T153 241H100Q91 241 86 246T81 259Q81 266 86 272T99 280H153Q153 287 152 299T150 325T147 352T146 376Q146 416
160 451T198 511T257 551T334 566Q349 566 371 563T415 552T455 527T480 483Q484 466 482 449T471 417T448 393T414 384Q392 384 380 395T368 411Q368 412 373 416T384 427T396 443T401 466Q401 497 381 512T332 529Q319 529 303 525T271 510T246 477T235 420Q235
409 235 390T237 351T238 311T239 280H382Q390 279 395 273T400 259Q400 252 395 247T381 241H239Q239 189 215 146T142 71H445Q465 71 479 67T493 36Q493 19 485 10T458 0H64Z" />
<glyph unicode="&#xa4;" glyph-name="currency" horiz-adv-x="608" d="M105 27Q97 20 89 22T73 32Q67 39 67 48T72 63L137 127Q132 133 125 145T110 174T98 212T92 260Q92 288 101 323T137 392Q120 407 104 423T71 457Q65 463 66 472T73 488Q80 496 88 498T105
493L173 424Q180 430 191 438T219 453T256 466T303 472Q331 472 352 467T390 454T418 438T435 424L503 493Q511 500 519 498T535 488Q541 481 542 472T537 457L471 392Q497 357 506 323T516 260Q516 231 506 196T470 127L536 63Q542 57 542 48T535 32Q528 24 520
22T503 27L435 95Q417 81 398 72T361 57T328 49T303 47Q277 47 256 52T219 65T191 81T173 95L105 27ZM139 260Q139 224 151 193T186 139T238 102T303 88Q337 88 367 101T421 138T457 193T470 260Q470 295 457 326T421 380T368 416T303 430Q268 430 239 417T187
381T152 327T139 260Z" />
<glyph unicode="&#xa5;" glyph-name="yen" horiz-adv-x="633" d="M359 103V102Q359 90 360 78T367 57T384 41T416 35Q425 35 431 34T438 16Q438 9 435 3T423 -3Q394 -1 369 -1T317 0Q266 0 209 -3Q200 -3 197 3T193 16Q194 32 200 33T215 35Q236 35 247 41T264
56T271 78T272 102V103H175Q166 103 161 108T156 121Q156 128 161 134T174 142H272V203H175Q166 203 161 208T156 221Q156 228 161 234T174 242H261Q251 263 236 293T204 354T172 411T149 452Q131 485 110 499T59 520Q46 522 42 524T37 540Q37 555 47 556T72 558Q133
558 172 539T241 466Q267 419 291 375T341 283H344L442 475Q457 505 445 511T403 518Q394 518 388 519T381 537Q381 544 384 550T396 556Q425 554 445 554T492 553Q505 553 515 553T534 553T555 554T580 556Q589 556 592 550T596 537Q595 521 589 520T574 518Q540
518 520 504T482 459L383 272Q378 262 374 255T368 242H457Q465 241 470 235T475 221Q475 214 470 209T456 203H359V187V142H457Q465 141 470 135T475 121Q475 114 470 109T456 103H359Z" />
<glyph unicode="&#xa6;" glyph-name="brokenbar" horiz-adv-x="212" d="M134 129V-195Q134 -206 125 -212T106 -218Q95 -218 87 -212T78 -195V129Q78 140 86 146T106 152Q116 152 125 146T134 129ZM134 368Q134 357 126 351T106 345Q96 345 87 351T78 368V705Q78
716 86 722T106 728Q116 728 125 722T134 705V368Z" />
<glyph unicode="&#xa7;" glyph-name="section" horiz-adv-x="469" d="M193 538Q198 516 216 487T259 424T311 350T361 267T399 179T414 87Q414 36 399 -8T354 -84T282 -134T187 -153Q169 -153 149 -148T111 -131T83 -101T71 -55Q71 -25 88 0T141 26Q161 26 172
18T185 4Q185 2 181 -2T171 -14T161 -30T156 -52Q156 -67 162 -79T178 -98T200 -110T223 -114Q251 -114 265 -97T279 -56Q279 -31 263 -2T221 63T167 142T112 230T71 324T54 422Q54 484 74 527T126 598T199 637T283 650Q301 650 321 645T358 627T387 597T399 552Q399
522 382 497T329 471Q309 471 298 479T285 493Q285 494 289 498T299 510T309 526T314 548Q314 564 308 575T292 595T270 607T247 611Q220 611 206 595T191 555Q191 551 191 547T193 538ZM139 564Q122 536 116 504T109 442Q109 382 135 319T198 195T270 74T327 -40Q343
-10 349 22T356 82Q356 144 328 203T263 321T191 440T139 564Z" />
<glyph unicode="&#xa8;" glyph-name="dieresis" horiz-adv-x="387" d="M114 667Q140 667 157 650T174 607Q174 583 157 565T113 547Q87 547 69 565T51 607Q51 633 69 650T114 667ZM287 667Q313 667 330 650T347 607Q347 583 330 565T286 547Q260 547 242 565T224
607Q224 633 242 650T287 667Z" />
<glyph unicode="&#xa9;" glyph-name="copyright" horiz-adv-x="828" d="M582 208Q556 154 516 133T416 111Q378 111 345 125T286 164T245 227T230 311Q230 357 244 394T285 459T347 500T426 515Q436 515 457 513T501 501T541 475T562 429Q562 402 546 381T501
360Q478 360 469 370T460 386Q460 389 465 393T476 402T487 416T492 436Q492 459 473 471T425 484Q371 482 339 439T307 314Q307 279 316 249T343 197T384 161T438 148Q480 148 505 170T545 221Q553 235 562 235Q570 235 577 230T584 217Q584 214 582 208ZM751
174Q722 108 672 58T555 -21T414 -50Q340 -50 273 -21T156 58T77 174T47 317Q47 393 76 459T156 576T273 655T414 684Q488 684 554 655T671 576T751 460T781 317Q781 241 751 174ZM541 17Q600 43 644 87T713 191T738 317Q738 384 713 443T644 546T541 616T414 642Q346
642 287 616T184 546T115 443T90 317Q90 250 115 191T184 88T287 18T414 -8Q482 -8 541 17Z" />
<glyph unicode="&#xaa;" glyph-name="ordfeminine" horiz-adv-x="396" d="M248 464Q181 455 149 441T117 390Q117 367 128 352T160 337Q197 337 222 362T248 425V464ZM246 488V541Q246 571 231 589T177 607Q158 607 142 596T126 562Q126 549 133 540T148 526Q148
524 140 515T116 505Q92 505 79 522T66 560Q66 580 76 594T103 616T140 629T181 633Q205 633 228 630T270 615T300 583T312 529V367Q312 362 314 355T319 342T329 332T346 328Q353 328 356 326T360 314Q360 308 356 305T345 299T331 296T319 295Q294 295 274 308T248
345Q239 332 226 323T196 307T163 298T131 295Q93 295 68 320T42 381Q42 415 63 435T113 467T175 481T230 487L246 488Z" />
<glyph unicode="&#xab;" glyph-name="guillemotleft" horiz-adv-x="474" d="M402 394Q409 397 416 391T422 374Q420 366 407 343T366 282L325 234Q367 174 393 141T422 94Q423 79 410 77T387 83Q356 115 325 146T253 212Q240 224 240 235Q240 246 253 257Q272
275 297 298T344 343T382 378T402 394ZM202 394Q209 397 216 391T222 374Q220 366 207 343T166 282L125 234Q167 174 193 141T222 94Q223 79 210 77T187 83Q156 115 125 146T53 212Q40 224 40 235Q40 246 53 257Q72 275 97 298T144 343T182 378T202 394Z" />
<glyph unicode="&#xac;" glyph-name="logicalnot" horiz-adv-x="632" d="M500 291Q537 292 549 279T562 223V101Q562 90 553 84T533 78Q522 78 513 84T503 101V225Q503 237 493 237H90Q80 237 74 244T68 262Q68 272 74 281T90 291H500V291Z" />
<glyph unicode="&#xad;" glyph-name="uni00AD" horiz-adv-x="456" d="M85 209Q74 209 68 217T62 236Q62 247 68 255T85 263H371Q382 263 388 255T394 236Q394 226 388 218T371 209H85Z" />
<glyph unicode="&#xae;" glyph-name="registered" horiz-adv-x="828" d="M472 286Q482 270 495 249T523 207T555 172T593 154Q599 153 605 152T611 137Q611 126 601 123T580 119Q545 119 520 131T476 164T442 211T408 266Q401 276 393 281T365 287H352V196Q352
177 357 167T389 154Q395 154 400 152T406 137Q406 131 403 126T391 120Q374 121 363 121T346 122H317Q298 122 281 121T248 120Q237 120 235 126T233 140Q233 152 241 153T260 155T278 163T287 195V202V433Q285 456 277 462T258 469T241 472T233 488Q233 496 236
500T248 504Q267 503 283 503T318 503H419Q456 502 482 493T525 470T549 438T557 402Q557 370 532 342T462 301L472 286ZM390 472Q367 471 360 463T352 428V319H401Q429 319 445 327T471 347T482 372T485 397Q485 411 481 424T465 449T436 466T390 472ZM47 316Q47
392 76 458T156 575T273 654T414 683Q488 683 554 654T671 575T751 459T781 316Q781 240 752 174T672 57T555 -22T414 -51Q340 -51 273 -22T156 57T77 173T47 316ZM90 316Q90 249 115 190T184 87T287 17T414 -9Q482 -9 541 16T644 86T713 190T738 316Q738 383 713
442T644 545T541 615T414 641Q346 641 287 615T184 545T115 442T90 316Z" />
<glyph unicode="&#xaf;" glyph-name="overscore" horiz-adv-x="604" d="M73 730Q62 730 56 738T50 757Q50 768 56 776T73 784H531Q542 784 548 776T554 757Q554 747 548 739T531 730H73Z" />
<glyph unicode="&#xb0;" glyph-name="degree" horiz-adv-x="405" d="M203 633Q240 633 270 621T323 588T357 541T369 485Q369 447 354 418T314 369T260 339T203 328Q165 328 135 340T83 373T49 420T37 476Q37 514 52 543T91 592T144 622T203 633ZM203 359Q228
359 244 369T271 396T285 436T290 485Q290 509 286 530T271 567T244 592T203 602Q178 602 161 593T134 566T120 527T115 478Q115 454 119 433T134 395T161 369T203 359Z" />
<glyph unicode="&#xb1;" glyph-name="plusminus" horiz-adv-x="586" d="M262 479Q262 490 272 497T294 504Q305 504 315 497T325 479V291H518Q528 291 534 283T540 264Q540 254 534 246T518 237H325V105Q325 94 315 87T293 80Q282 80 272 87T262 105V237H68Q58
237 52 245T46 264Q46 274 52 282T68 291H262V479ZM69 0Q58 0 52 8T46 27Q46 38 52 46T69 54H517Q528 54 534 46T540 27Q540 17 534 9T517 0H69Z" />
<glyph unicode="&#xb2;" glyph-name="twosuperior" horiz-adv-x="379" d="M58 545Q58 568 70 585T100 612T141 628T184 633Q208 633 231 627T272 609T302 576T314 526Q314 487 294 458T245 406T183 362T123 320H296Q313 320 323 316T333 291Q333 279 326 271T304
263H76Q61 263 55 271T48 291Q48 308 57 318T81 337Q106 353 134 373T186 417T225 470T241 535Q241 566 225 583T178 600Q154 600 138 588T122 555Q122 546 125 540T133 530T140 523T144 517Q144 512 134 504T109 495Q83 495 71 509T58 545Z" />
<glyph unicode="&#xb3;" glyph-name="threesuperior" horiz-adv-x="359" d="M148 431Q140 431 137 436T134 449Q134 456 137 462T148 468H174Q199 471 213 491T228 540Q228 566 216 583T172 600Q149 600 133 591T117 559Q117 551 120 546T128 536T137 528T141
522Q141 517 131 509T104 501Q79 501 66 516T53 553Q53 574 63 589T91 614T130 628T173 633Q195 633 217 629T258 613T287 584T298 540Q298 515 282 491T233 451Q248 448 262 442T289 425T308 398T315 359Q315 328 303 307T271 273T224 253T169 247Q148 247 126
251T87 265T58 290T46 329Q46 349 58 365T96 381Q114 381 123 371T132 356Q130 351 120 342T109 322Q109 302 126 292T171 281Q200 281 220 298T240 358Q240 389 225 409T174 431H148Z" />
<glyph unicode="&#xb4;" glyph-name="acute" horiz-adv-x="221" d="M85 518Q74 506 61 506Q51 506 44 511T37 528Q37 535 41 542L116 679Q127 702 152 702Q170 702 182 689T195 660Q195 646 187 637L85 518Z" />
<glyph unicode="&#xb5;" glyph-name="mu" horiz-adv-x="593" d="M148 -69Q148 -101 152 -120T163 -149T181 -163T206 -167Q224 -167 238 -158T258 -138Q262 -128 261 -119T257 -102T252 -91T249 -84Q251 -80 264 -75T294 -76Q309 -82 317 -93T328 -119T328 -149T317
-176Q306 -192 288 -201T250 -214T209 -217T173 -211Q146 -202 130 -187T105 -151T93 -106T90 -56V431Q90 445 105 451T137 457Q149 457 165 451T181 431V138Q181 113 189 95T211 66T242 49T277 43Q303 43 324 50T361 69T387 91T401 112V431Q401 445 416 451T448
457Q460 457 476 451T492 431V91Q492 66 503 47T543 28Q551 28 554 26T558 12Q558 5 552 1T537 -6T519 -10T503 -11Q468 -11 439 9T402 65H399Q384 49 370 36T338 12T298 -5T244 -11Q212 -11 187 1T150 44H148V-69Z" />
<glyph unicode="&#xb6;" glyph-name="paragraph" horiz-adv-x="542" d="M213 -153Q179 -152 147 -136T101 -82Q96 -65 97 -47T106 -13T127 13T160 26Q183 28 196 19T211 4Q211 2 206 -2T196 -14T186 -32T182 -56Q183 -72 191 -83T210 -102T234 -112T259 -113Q282
-110 294 -85T313 -26T320 44T321 104V220Q276 218 229 227T144 261T82 328T57 433Q57 469 69 504T111 568T193 613T324 631H483Q494 631 503 629T513 607Q513 599 508 591T492 583H382V84Q382 48 375 6T349 -72T297 -131T213 -153Z" />
<glyph unicode="&#xb7;" glyph-name="middot" horiz-adv-x="236" d="M117 210Q90 210 72 227T54 273Q54 299 72 317T118 335Q145 335 163 317T182 273Q182 244 164 227T117 210Z" />
<glyph unicode="&#xb8;" glyph-name="cedilla" horiz-adv-x="265" d="M90 0H139V-41Q156 -41 173 -44T205 -56T227 -78T236 -111Q236 -137 223 -155T185 -185T127 -202T52 -208Q42 -208 37 -201T32 -184Q32 -170 38 -166T52 -162Q73 -162 92 -162T128 -158T153
-147T163 -126Q163 -110 148 -104T106 -96Q101 -95 96 -92T90 -73V0Z" />
<glyph unicode="&#xb9;" glyph-name="onesuperior" horiz-adv-x="335" d="M68 565Q57 565 55 571T52 585Q52 600 57 602T73 605Q95 605 115 609T152 620T180 630T195 635Q202 635 207 631T212 618V356Q212 335 216 323T229 305T252 298T288 297Q299 297 303 295T308
281Q308 273 305 267T291 261Q279 261 263 261T232 262T202 262T178 263Q169 263 155 263T125 262T93 262T65 261Q54 261 51 267T48 281Q49 293 53 295T66 297Q88 297 103 298T127 305T140 323T144 356V516Q144 534 141 544T128 558T105 564T68 565Z" />
<glyph unicode="&#xba;" glyph-name="ordmasculine" horiz-adv-x="407" d="M204 633Q241 633 271 620T324 583T358 531T370 469Q370 427 355 395T315 340T261 307T204 295Q166 295 136 308T84 345T50 397T38 459Q38 501 53 533T92 588T145 621T204 633ZM204 327Q229
327 245 338T272 369T286 414T291 469Q291 496 287 520T272 562T245 591T204 602Q179 602 162 591T135 560T121 515T116 461Q116 434 120 410T135 368T162 338T204 327Z" />
<glyph unicode="&#xbb;" glyph-name="guillemotright" horiz-adv-x="473" d="M72 394Q75 393 91 379T130 343T176 299T221 257Q234 246 234 235Q234 224 221 212Q180 178 149 147T87 83Q82 78 76 77T65 76T55 82T52 94Q54 107 80 140T149 234L108 282Q80 319 67
342T52 374Q50 385 57 391T72 394ZM272 394Q275 393 291 379T330 343T376 299T421 257Q434 246 434 235Q434 224 421 212Q380 178 349 147T287 83Q282 78 276 77T265 76T255 82T252 94Q254 107 280 140T349 234L308 282Q280 319 267 342T252 374Q250 385 257 391T272
394Z" />
<glyph unicode="&#xbc;" glyph-name="onequarter" horiz-adv-x="809" d="M309 14Q303 4 293 1T274 1Q263 5 258 14T257 33L555 617Q561 628 571 630T591 630Q602 626 607 616T609 597L309 14ZM72 565Q61 565 59 571T56 585Q56 600 61 602T77 605Q99 605 119 609T156
620T184 630T199 635Q206 635 211 631T216 618V356Q216 335 220 323T233 305T256 298T292 297Q303 297 307 295T312 281Q312 273 309 267T295 261Q283 261 267 261T236 262T206 262T182 263Q173 263 159 263T129 262T97 262T69 261Q58 261 55 267T52 281Q53 293
57 295T70 297Q92 297 107 298T131 305T144 323T148 356V516Q148 534 145 544T132 558T109 564T72 565ZM485 111Q474 111 465 116T455 135Q455 142 457 146L656 364Q662 369 668 370T680 372Q690 372 700 366T711 346V151H748Q757 151 762 149T769 132Q769 124
766 118T752 111H711V11Q711 3 701 -1T677 -6Q664 -6 654 -2T643 11V111H485ZM643 151V301Q611 263 578 227T510 151H643Z" />
<glyph unicode="&#xbd;" glyph-name="onehalf" horiz-adv-x="852" d="M307 14Q301 4 291 1T272 1Q261 5 256 14T255 33L553 617Q559 628 569 630T589 630Q600 626 605 616T607 597L307 14ZM536 283Q536 306 548 323T578 350T619 366T662 371Q686 371 709 365T750
347T780 314T792 264Q792 225 772 196T723 144T661 100T601 58H774Q791 58 801 54T811 29Q811 17 804 9T782 1H554Q539 1 533 9T526 29Q526 46 535 56T559 75Q584 91 612 111T664 155T703 208T719 273Q719 304 703 321T656 338Q632 338 616 326T600 293Q600 284
603 278T611 268T618 261T622 255Q622 250 612 242T587 233Q561 233 549 247T536 283ZM70 565Q59 565 57 571T54 585Q54 600 59 602T75 605Q97 605 117 609T154 620T182 630T197 635Q204 635 209 631T214 618V356Q214 335 218 323T231 305T254 298T290 297Q301
297 305 295T310 281Q310 273 307 267T293 261Q281 261 265 261T234 262T204 262T180 263Q171 263 157 263T127 262T95 262T67 261Q56 261 53 267T50 281Q51 293 55 295T68 297Q90 297 105 298T129 305T142 323T146 356V516Q146 534 143 544T130 558T107 564T70
565Z" />
<glyph unicode="&#xbe;" glyph-name="threequarters" horiz-adv-x="852" d="M324 14Q318 4 308 1T289 1Q278 5 273 14T272 33L570 617Q576 628 586 630T606 630Q617 626 622 616T624 597L324 14ZM530 111Q519 111 510 116T500 135Q500 142 502 146L701 364Q707
369 713 370T725 372Q735 372 745 366T756 346V151H793Q802 151 807 149T814 132Q814 124 811 118T797 111H756V11Q756 3 746 -1T722 -6Q709 -6 699 -2T688 11V111H530ZM688 151V301Q656 263 623 227T555 151H688ZM153 431Q145 431 142 436T139 449Q139 456 142
462T153 468H179Q204 471 218 491T233 540Q233 566 221 583T177 600Q154 600 138 591T122 559Q122 551 125 546T133 536T142 528T146 522Q146 517 136 509T109 501Q84 501 71 516T58 553Q58 574 68 589T96 614T135 628T178 633Q200 633 222 629T263 613T292 584T303
540Q303 515 287 491T238 451Q253 448 267 442T294 425T313 398T320 359Q320 328 308 307T276 273T229 253T174 247Q153 247 131 251T92 265T63 290T51 329Q51 349 63 365T101 381Q119 381 128 371T137 356Q135 351 125 342T114 322Q114 302 131 292T176 281Q205
281 225 298T245 358Q245 389 230 409T179 431H153Z" />
<glyph unicode="&#xbf;" glyph-name="questiondown" horiz-adv-x="432" d="M103 220Q125 242 152 254T204 266Q226 266 247 258T285 233T312 194T322 143Q322 120 313 102T289 68T255 39T217 14Q198 2 180 -10T148 -36T126 -66T117 -104Q117 -141 141 -168T208
-196Q224 -196 241 -191T271 -177T293 -153T302 -121Q302 -101 291 -89T272 -70Q265 -65 265 -63Q265 -58 278 -47T317 -35Q338 -35 354 -44T380 -69T392 -102T391 -139Q383 -170 360 -189T309 -218T255 -231T214 -234Q158 -234 124 -219T72 -182T47 -137T41 -95Q41
-67 51 -45T79 -3T118 33T161 63Q180 76 197 89T229 116T251 146T260 182Q260 201 248 213T221 225Q204 225 189 217T160 194Q151 185 142 182T125 180Q108 181 99 193T103 220ZM219 465Q246 465 264 448T282 401Q282 375 264 357T218 338Q190 338 172 356T154
401Q154 430 172 447T219 465Z" />
<glyph unicode="&#xc0;" glyph-name="Agrave" horiz-adv-x="653" d="M196 243H406L305 500H302L196 243ZM236 637Q267 637 290 633T332 617T366 585T395 531L563 117Q568 104 574 91T588 66T607 48T634 40Q645 40 651 38T659 19Q659 11 655 4T641 -3Q609 -1 585
-1T531 0Q471 0 407 -3Q397 -3 393 4T389 19Q390 36 396 38T414 40Q438 40 451 44T467 58T469 81T458 117L424 200H177Q153 139 145 117Q137 91 134 76T137 53T159 43T205 40Q216 40 222 38T230 19Q230 11 226 4T212 -3Q180 -1 157 -1T103 0Q88 0 77 0T56 0T34
-1T6 -3Q-4 -3 -8 4T-12 19Q-11 36 -5 38T13 40Q33 40 45 46T66 64T81 89T93 117L268 531Q275 549 273 560T264 578T245 588T221 594Q206 597 201 599T196 617Q196 634 207 635T236 637ZM282 929Q262 939 235 954T182 986T139 1019T121 1048Q121 1062 133 1074T158
1086Q170 1086 196 1068T248 1026T295 980T316 951Q316 942 309 935T291 927Q285 927 282 929Z" />
<glyph unicode="&#xc1;" glyph-name="Aacute" horiz-adv-x="653" d="M196 243H406L305 500H302L196 243ZM236 637Q267 637 290 633T332 617T366 585T395 531L563 117Q568 104 574 91T588 66T607 48T634 40Q645 40 651 38T659 19Q659 11 655 4T641 -3Q609 -1 585
-1T531 0Q471 0 407 -3Q397 -3 393 4T389 19Q390 36 396 38T414 40Q438 40 451 44T467 58T469 81T458 117L424 200H177Q153 139 145 117Q137 91 134 76T137 53T159 43T205 40Q216 40 222 38T230 19Q230 11 226 4T212 -3Q180 -1 157 -1T103 0Q88 0 77 0T56 0T34
-1T6 -3Q-4 -3 -8 4T-12 19Q-11 36 -5 38T13 40Q33 40 45 46T66 64T81 89T93 117L268 531Q275 549 273 560T264 578T245 588T221 594Q206 597 201 599T196 617Q196 634 207 635T236 637ZM260 673Q257 671 251 671Q240 671 233 678T226 695Q226 702 236 712T261
738T295 770T331 801T363 822T384 830Q396 830 408 818T421 792Q421 777 404 762T361 732T308 700T260 673Z" />
<glyph unicode="&#xc2;" glyph-name="Acircumflex" horiz-adv-x="653" d="M196 243H406L305 500H302L196 243ZM236 637Q267 637 290 633T332 617T366 585T395 531L563 117Q568 104 574 91T588 66T607 48T634 40Q645 40 651 38T659 19Q659 11 655 4T641 -3Q609
-1 585 -1T531 0Q471 0 407 -3Q397 -3 393 4T389 19Q390 36 396 38T414 40Q438 40 451 44T467 58T469 81T458 117L424 200H177Q153 139 145 117Q137 91 134 76T137 53T159 43T205 40Q216 40 222 38T230 19Q230 11 226 4T212 -3Q180 -1 157 -1T103 0Q88 0 77 0T56
0T34 -1T6 -3Q-4 -3 -8 4T-12 19Q-11 36 -5 38T13 40Q33 40 45 46T66 64T81 89T93 117L268 531Q275 549 273 560T264 578T245 588T221 594Q206 597 201 599T196 617Q196 634 207 635T236 637ZM258 1069Q271 1078 282 1078Q294 1078 306 1069L433 976Q441 969 441
958Q441 951 437 946T425 941H422Q390 949 354 968T282 1006Q247 988 211 969T142 941H139Q131 941 127 946T122 958Q122 968 131 976L258 1069Z" />
<glyph unicode="&#xc3;" glyph-name="Atilde" horiz-adv-x="653" d="M196 243H406L305 500H302L196 243ZM236 637Q267 637 290 633T332 617T366 585T395 531L563 117Q568 104 574 91T588 66T607 48T634 40Q645 40 651 38T659 19Q659 11 655 4T641 -3Q609 -1 585
-1T531 0Q471 0 407 -3Q397 -3 393 4T389 19Q390 36 396 38T414 40Q438 40 451 44T467 58T469 81T458 117L424 200H177Q153 139 145 117Q137 91 134 76T137 53T159 43T205 40Q216 40 222 38T230 19Q230 11 226 4T212 -3Q180 -1 157 -1T103 0Q88 0 77 0T56 0T34
-1T6 -3Q-4 -3 -8 4T-12 19Q-11 36 -5 38T13 40Q33 40 45 46T66 64T81 89T93 117L268 531Q275 549 273 560T264 578T245 588T221 594Q206 597 201 599T196 617Q196 634 207 635T236 637ZM456 1036Q449 1020 439 1005T416 977T385 957T348 949Q327 949 308 958T273
978T241 998T213 1007Q201 1007 184 998T147 965Q140 957 130 957Q123 957 118 962T112 974Q112 983 123 1004T150 1041T185 1065T224 1074Q245 1074 264 1065T299 1045T331 1025T359 1016Q371 1016 389 1026T425 1058Q432 1066 441 1066Q448 1066 453 1061T459
1047Q459 1042 456 1036Z" />
<glyph unicode="&#xc4;" glyph-name="Adieresis" horiz-adv-x="653" d="M196 243H406L305 500H302L196 243ZM236 637Q267 637 290 633T332 617T366 585T395 531L563 117Q568 104 574 91T588 66T607 48T634 40Q645 40 651 38T659 19Q659 11 655 4T641 -3Q609 -1
585 -1T531 0Q471 0 407 -3Q397 -3 393 4T389 19Q390 36 396 38T414 40Q438 40 451 44T467 58T469 81T458 117L424 200H177Q153 139 145 117Q137 91 134 76T137 53T159 43T205 40Q216 40 222 38T230 19Q230 11 226 4T212 -3Q180 -1 157 -1T103 0Q88 0 77 0T56 0T34
-1T6 -3Q-4 -3 -8 4T-12 19Q-11 36 -5 38T13 40Q33 40 45 46T66 64T81 89T93 117L268 531Q275 549 273 560T264 578T245 588T221 594Q206 597 201 599T196 617Q196 634 207 635T236 637ZM190 1077Q216 1077 233 1060T250 1017Q250 993 233 975T189 957Q163 957
145 975T127 1017Q127 1043 145 1060T190 1077ZM382 1077Q408 1077 425 1060T442 1017Q442 993 425 975T381 957Q355 957 337 975T319 1017Q319 1043 337 1060T382 1077Z" />
<glyph unicode="&#xc5;" glyph-name="Aring" horiz-adv-x="653" d="M196 243H406L305 500H302L196 243ZM236 637Q267 637 290 633T332 617T366 585T395 531L563 117Q568 104 574 91T588 66T607 48T634 40Q645 40 651 38T659 19Q659 11 655 4T641 -3Q609 -1 585
-1T531 0Q471 0 407 -3Q397 -3 393 4T389 19Q390 36 396 38T414 40Q438 40 451 44T467 58T469 81T458 117L424 200H177Q153 139 145 117Q137 91 134 76T137 53T159 43T205 40Q216 40 222 38T230 19Q230 11 226 4T212 -3Q180 -1 157 -1T103 0Q88 0 77 0T56 0T34
-1T6 -3Q-4 -3 -8 4T-12 19Q-11 36 -5 38T13 40Q33 40 45 46T66 64T81 89T93 117L268 531Q275 549 273 560T264 578T245 588T221 594Q206 597 201 599T196 617Q196 634 207 635T236 637ZM392 761Q392 717 363 692T284 666Q233 666 204 692T174 761Q174 859 284
859Q337 859 364 833T392 761ZM327 761Q327 790 318 807T284 824Q261 824 250 806T239 761Q239 703 284 703Q310 703 318 719T327 761Z" />
<glyph unicode="&#xc6;" glyph-name="AE" horiz-adv-x="902" d="M418 591Q403 592 397 586T383 565L245 291H441V591H418ZM801 631Q812 631 819 626T827 607L830 467Q830 457 821 452T803 447Q792 447 783 451T772 465Q767 499 761 522T744 561T717 583T674 591H540V337H721Q729
336 732 329T736 314Q736 306 733 300T721 294H540V105Q541 95 542 84T549 62T570 46T610 40H702Q728 41 744 46T772 65T791 101T809 156Q813 166 822 169T843 170Q851 168 859 163T867 147L847 21Q844 7 838 4T818 0H488Q458 0 430 0T368 -3Q359 -3 355 4T351
19Q352 36 358 38T376 40Q400 40 413 46T432 64T439 89T441 117V248H224L157 117Q144 92 140 77T140 54T162 43T207 40Q218 40 224 38T232 19Q232 11 228 4T214 -3Q182 -1 159 -1T105 0Q90 0 79 0T58 0T36 -1T8 -3Q-2 -3 -6 4T-10 19Q-9 36 -3 38T15 40Q30 39 43
45T67 63T88 88T105 117L318 531Q325 549 323 559T314 575T295 583T271 588Q256 591 251 593T246 611Q247 628 258 629T286 631H801Z" />
<glyph unicode="&#xc7;" glyph-name="Ccedilla" horiz-adv-x="639" d="M596 510Q596 489 590 470T570 435T538 411T494 402Q479 402 469 406T452 417T443 429T440 438Q440 440 448 444T465 457T482 479T490 513Q490 558 460 584T375 611Q330 611 292 592T225 535T182
442T166 317Q166 257 182 205T229 113T301 52T394 29Q448 29 486 51T556 124Q560 133 570 133Q579 133 591 125T604 105Q604 101 600 95Q572 60 548 39T499 5T445 -13T375 -20V-45Q392 -45 409 -48T441 -58T463 -78T472 -111Q472 -137 459 -155T421 -185T363 -202T288
-208Q278 -208 273 -201T268 -184Q268 -170 274 -166T288 -162Q309 -162 328 -162T364 -158T389 -147T399 -126Q399 -115 388 -111T363 -105T338 -98T326 -77V-18Q267 -12 217 13T129 80T71 180T49 311Q49 387 72 450T137 557T240 626T376 651Q412 651 451 644T522
621T575 577T596 510Z" />
<glyph unicode="&#xc8;" glyph-name="Egrave" horiz-adv-x="594" d="M493 631Q504 631 511 626T519 607L522 467Q522 457 513 452T495 447Q484 447 475 451T464 465Q459 499 453 522T436 561T409 583T366 591H232V337H413Q421 336 424 329T428 314Q428 306 425
300T413 294H232V105Q233 95 234 84T241 62T262 46T302 40H394Q420 41 436 46T464 65T483 101T501 156Q505 166 514 169T535 170Q543 168 551 163T559 147L539 21Q536 7 530 4T510 0H180Q150 0 122 0T60 -3Q51 -3 47 4T43 19Q44 36 50 38T68 40Q92 40 105 46T124
64T131 89T133 117V514Q133 528 132 542T124 567T105 584T68 591Q57 591 51 593T43 612Q43 620 47 627T60 634Q93 632 121 632T179 631H493ZM334 929Q314 939 287 954T234 986T191 1019T173 1048Q173 1062 185 1074T210 1086Q222 1086 248 1068T300 1026T347 980T368
951Q368 942 361 935T343 927Q337 927 334 929Z" />
<glyph unicode="&#xc9;" glyph-name="Eacute" horiz-adv-x="594" d="M493 631Q504 631 511 626T519 607L522 467Q522 457 513 452T495 447Q484 447 475 451T464 465Q459 499 453 522T436 561T409 583T366 591H232V337H413Q421 336 424 329T428 314Q428 306 425
300T413 294H232V105Q233 95 234 84T241 62T262 46T302 40H394Q420 41 436 46T464 65T483 101T501 156Q505 166 514 169T535 170Q543 168 551 163T559 147L539 21Q536 7 530 4T510 0H180Q150 0 122 0T60 -3Q51 -3 47 4T43 19Q44 36 50 38T68 40Q92 40 105 46T124
64T131 89T133 117V514Q133 528 132 542T124 567T105 584T68 591Q57 591 51 593T43 612Q43 620 47 627T60 634Q93 632 121 632T179 631H493ZM292 673Q289 671 283 671Q272 671 265 678T258 695Q258 702 268 712T293 738T327 770T363 801T395 822T416 830Q428 830
440 818T453 792Q453 777 436 762T393 732T340 700T292 673Z" />
<glyph unicode="&#xca;" glyph-name="Ecircumflex" horiz-adv-x="594" d="M493 631Q504 631 511 626T519 607L522 467Q522 457 513 452T495 447Q484 447 475 451T464 465Q459 499 453 522T436 561T409 583T366 591H232V337H413Q421 336 424 329T428 314Q428 306
425 300T413 294H232V105Q233 95 234 84T241 62T262 46T302 40H394Q420 41 436 46T464 65T483 101T501 156Q505 166 514 169T535 170Q543 168 551 163T559 147L539 21Q536 7 530 4T510 0H180Q150 0 122 0T60 -3Q51 -3 47 4T43 19Q44 36 50 38T68 40Q92 40 105 46T124
64T131 89T133 117V514Q133 528 132 542T124 567T105 584T68 591Q57 591 51 593T43 612Q43 620 47 627T60 634Q93 632 121 632T179 631H493ZM290 1069Q303 1078 314 1078Q326 1078 338 1069L465 976Q473 969 473 958Q473 951 469 946T457 941H454Q422 949 386 968T314
1006Q279 988 243 969T174 941H171Q163 941 159 946T154 958Q154 968 163 976L290 1069Z" />
<glyph unicode="&#xcb;" glyph-name="Edieresis" horiz-adv-x="594" d="M493 631Q504 631 511 626T519 607L522 467Q522 457 513 452T495 447Q484 447 475 451T464 465Q459 499 453 522T436 561T409 583T366 591H232V337H413Q421 336 424 329T428 314Q428 306
425 300T413 294H232V105Q233 95 234 84T241 62T262 46T302 40H394Q420 41 436 46T464 65T483 101T501 156Q505 166 514 169T535 170Q543 168 551 163T559 147L539 21Q536 7 530 4T510 0H180Q150 0 122 0T60 -3Q51 -3 47 4T43 19Q44 36 50 38T68 40Q92 40 105 46T124
64T131 89T133 117V514Q133 528 132 542T124 567T105 584T68 591Q57 591 51 593T43 612Q43 620 47 627T60 634Q93 632 121 632T179 631H493ZM222 1077Q248 1077 265 1060T282 1017Q282 993 265 975T221 957Q195 957 177 975T159 1017Q159 1043 177 1060T222 1077ZM414
1077Q440 1077 457 1060T474 1017Q474 993 457 975T413 957Q387 957 369 975T351 1017Q351 1043 369 1060T414 1077Z" />
<glyph unicode="&#xcc;" glyph-name="Igrave" horiz-adv-x="364" d="M231 117Q231 103 232 89T240 64T259 47T296 40Q307 40 313 38T322 19Q322 11 318 4T304 -3Q239 0 180 0Q150 0 121 0T60 -3Q50 -3 46 4T42 19Q43 36 50 38T67 40Q91 40 104 46T123 64T130 89T133
117V514Q132 528 131 542T123 567T104 584T67 591Q57 591 50 593T42 612Q42 620 46 627T60 634Q92 632 120 632T179 631Q239 631 304 634Q313 634 317 627T322 612Q320 595 314 593T296 591Q272 591 259 585T240 567T233 542T231 514V117ZM444 929Q424 939 397
954T344 986T301 1019T283 1048Q283 1062 295 1074T320 1086Q332 1086 358 1068T410 1026T457 980T478 951Q478 942 471 935T453 927Q447 927 444 929Z" />
<glyph unicode="&#xcd;" glyph-name="Iacute" horiz-adv-x="364" d="M231 117Q231 103 232 89T240 64T259 47T296 40Q307 40 313 38T322 19Q322 11 318 4T304 -3Q239 0 180 0Q150 0 121 0T60 -3Q50 -3 46 4T42 19Q43 36 50 38T67 40Q91 40 104 46T123 64T130 89T133
117V514Q132 528 131 542T123 567T104 584T67 591Q57 591 50 593T42 612Q42 620 46 627T60 634Q92 632 120 632T179 631Q239 631 304 634Q313 634 317 627T322 612Q320 595 314 593T296 591Q272 591 259 585T240 567T233 542T231 514V117ZM166 929Q163 927 157
927Q146 927 139 934T132 951Q132 958 142 968T167 994T201 1026T237 1057T269 1078T290 1086Q302 1086 314 1074T327 1048Q327 1033 310 1018T267 988T214 956T166 929Z" />
<glyph unicode="&#xce;" glyph-name="Icircumflex" horiz-adv-x="364" d="M231 117Q231 103 232 89T240 64T259 47T296 40Q307 40 313 38T322 19Q322 11 318 4T304 -3Q239 0 180 0Q150 0 121 0T60 -3Q50 -3 46 4T42 19Q43 36 50 38T67 40Q91 40 104 46T123 64T130
89T133 117V514Q132 528 131 542T123 567T104 584T67 591Q57 591 50 593T42 612Q42 620 46 627T60 634Q92 632 120 632T179 631Q239 631 304 634Q313 634 317 627T322 612Q320 595 314 593T296 591Q272 591 259 585T240 567T233 542T231 514V117ZM411 1069Q424
1078 435 1078Q447 1078 459 1069L586 976Q594 969 594 958Q594 951 590 946T578 941H575Q543 949 507 968T435 1006Q400 988 364 969T295 941H292Q284 941 280 946T275 958Q275 968 284 976L411 1069Z" />
<glyph unicode="&#xcf;" glyph-name="Idieresis" horiz-adv-x="364" d="M231 117Q231 103 232 89T240 64T259 47T296 40Q307 40 313 38T322 19Q322 11 318 4T304 -3Q239 0 180 0Q150 0 121 0T60 -3Q50 -3 46 4T42 19Q43 36 50 38T67 40Q91 40 104 46T123 64T130
89T133 117V514Q132 528 131 542T123 567T104 584T67 591Q57 591 50 593T42 612Q42 620 46 627T60 634Q92 632 120 632T179 631Q239 631 304 634Q313 634 317 627T322 612Q320 595 314 593T296 591Q272 591 259 585T240 567T233 542T231 514V117ZM343 1077Q369
1077 386 1060T403 1017Q403 993 386 975T342 957Q316 957 298 975T280 1017Q280 1043 298 1060T343 1077ZM535 1077Q561 1077 578 1060T595 1017Q595 993 578 975T534 957Q508 957 490 975T472 1017Q472 1043 490 1060T535 1077Z" />
<glyph unicode="&#xd0;" glyph-name="Eth" horiz-adv-x="728" d="M78 311Q67 311 63 318T59 332Q59 340 63 347T78 354H133V514Q133 528 132 542T124 567T105 584T68 591Q57 591 51 593T43 612Q43 620 47 627T60 634Q93 632 121 632T179 631H335Q407 631 469 610T578
547T652 447T679 312Q679 232 648 173T565 76T449 19T317 0H179Q149 0 121 0T60 -3Q51 -3 47 4T43 19Q44 36 50 38T68 40Q92 40 105 46T124 64T131 89T133 117V311H78ZM558 312Q558 373 542 425T494 515T416 574T310 595Q302 595 291 595T268 595T247 594T232 594V354H347Q358
354 362 347T366 332Q366 325 362 318T347 311H232V105Q232 64 256 51T332 37Q393 37 436 57T506 113T545 199T558 312Z" />
<glyph unicode="&#xd1;" glyph-name="Ntilde" horiz-adv-x="737" d="M182 514H179L181 117Q181 103 182 89T189 64T207 47T244 40Q255 40 262 38T270 19Q270 11 266 4T252 -3Q236 -2 225 -2T203 -1T181 0T155 0Q140 0 130 0T110 0T89 -1T62 -3Q52 -3 48 4T44 19Q45
36 51 38T69 40Q93 40 105 46T124 64T131 89T132 117L134 514Q134 537 130 551T118 574T98 586T67 594Q52 597 47 599T42 617Q42 634 53 635T82 637Q124 637 153 632T205 615T248 583T291 531L565 171H568L566 514Q566 528 565 542T558 567T540 584T503 591Q492
591 486 593T477 612Q477 620 481 627T495 634Q511 633 522 633T544 632T565 631T591 631Q606 631 616 631T637 631T658 632T685 634Q695 634 699 627T703 612Q702 595 696 593T678 591Q654 591 642 585T623 567T616 542T615 514L613 10Q612 2 604 0T588 -3Q569
-3 559 10L182 514ZM543 780Q536 764 526 749T503 721T472 701T435 693Q414 693 395 702T360 722T328 742T300 751Q288 751 271 742T234 709Q227 701 217 701Q210 701 205 706T199 718Q199 727 210 748T237 785T272 809T311 818Q332 818 351 809T386 789T418 769T446
760Q458 760 476 770T512 802Q519 810 528 810Q535 810 540 805T546 791Q546 786 543 780Z" />
<glyph unicode="&#xd2;" glyph-name="Ograve" horiz-adv-x="735" d="M366 651Q441 651 500 624T601 552T665 447T688 325Q688 242 659 178T583 70T479 3T366 -20Q292 -20 233 7T133 79T70 184T47 307Q47 390 76 454T151 562T254 628T366 651ZM365 24Q418 24 456
48T520 114T557 210T569 325Q569 381 557 432T519 523T455 585T365 608Q312 608 274 584T212 519T176 424T164 310Q164 253 176 202T213 111T276 48T365 24ZM375 682Q355 692 328 707T275 739T232 772T214 801Q214 815 226 827T251 839Q263 839 289 821T341 779T388
733T409 704Q409 695 402 688T384 680Q378 680 375 682Z" />
<glyph unicode="&#xd3;" glyph-name="Oacute" horiz-adv-x="735" d="M366 651Q441 651 500 624T601 552T665 447T688 325Q688 242 659 178T583 70T479 3T366 -20Q292 -20 233 7T133 79T70 184T47 307Q47 390 76 454T151 562T254 628T366 651ZM365 24Q418 24 456
48T520 114T557 210T569 325Q569 381 557 432T519 523T455 585T365 608Q312 608 274 584T212 519T176 424T164 310Q164 253 176 202T213 111T276 48T365 24ZM353 682Q350 680 344 680Q333 680 326 687T319 704Q319 711 329 721T354 747T388 779T424 810T456 831T477
839Q489 839 501 827T514 801Q514 786 497 771T454 741T401 709T353 682Z" />
<glyph unicode="&#xd4;" glyph-name="Ocircumflex" horiz-adv-x="735" d="M366 651Q441 651 500 624T601 552T665 447T688 325Q688 242 659 178T583 70T479 3T366 -20Q292 -20 233 7T133 79T70 184T47 307Q47 390 76 454T151 562T254 628T366 651ZM365 24Q418
24 456 48T520 114T557 210T569 325Q569 381 557 432T519 523T455 585T365 608Q312 608 274 584T212 519T176 424T164 310Q164 253 176 202T213 111T276 48T365 24ZM351 822Q364 831 375 831Q387 831 399 822L526 729Q534 722 534 711Q534 704 530 699T518 694H515Q483
702 447 721T375 759Q340 741 304 722T235 694H232Q224 694 220 699T215 711Q215 721 224 729L351 822Z" />
<glyph unicode="&#xd5;" glyph-name="Otilde" horiz-adv-x="735" d="M366 651Q441 651 500 624T601 552T665 447T688 325Q688 242 659 178T583 70T479 3T366 -20Q292 -20 233 7T133 79T70 184T47 307Q47 390 76 454T151 562T254 628T366 651ZM365 24Q418 24 456
48T520 114T557 210T569 325Q569 381 557 432T519 523T455 585T365 608Q312 608 274 584T212 519T176 424T164 310Q164 253 176 202T213 111T276 48T365 24ZM539 789Q532 773 522 758T499 730T468 710T431 702Q410 702 391 711T356 731T324 751T296 760Q284 760
267 751T230 718Q223 710 213 710Q206 710 201 715T195 727Q195 736 206 757T233 794T268 818T307 827Q328 827 347 818T382 798T414 778T442 769Q454 769 472 779T508 811Q515 819 524 819Q531 819 536 814T542 800Q542 795 539 789Z" />
<glyph unicode="&#xd6;" glyph-name="Odieresis" horiz-adv-x="735" d="M366 651Q441 651 500 624T601 552T665 447T688 325Q688 242 659 178T583 70T479 3T366 -20Q292 -20 233 7T133 79T70 184T47 307Q47 390 76 454T151 562T254 628T366 651ZM365 24Q418 24
456 48T520 114T557 210T569 325Q569 381 557 432T519 523T455 585T365 608Q312 608 274 584T212 519T176 424T164 310Q164 253 176 202T213 111T276 48T365 24ZM283 830Q309 830 326 813T343 770Q343 746 326 728T282 710Q256 710 238 728T220 770Q220 796 238
813T283 830ZM475 830Q501 830 518 813T535 770Q535 746 518 728T474 710Q448 710 430 728T412 770Q412 796 430 813T475 830Z" />
<glyph unicode="&#xd7;" glyph-name="multiply" horiz-adv-x="518" d="M425 463Q430 468 435 468Q444 468 456 457T469 435Q469 428 465 423L298 256L465 91Q469 86 469 79Q469 68 457 57T435 46Q430 46 425 51L259 217L93 51Q88 46 82 46Q78 46 73 49T62 57T53
68T49 79Q49 86 53 91L220 256L53 423Q49 428 49 435Q49 440 52 445T61 456T72 464T82 468Q88 468 93 463L259 296L425 463Z" />
<glyph unicode="&#xd8;" glyph-name="Oslash" horiz-adv-x="735" d="M599 554Q642 508 665 449T688 325Q688 242 659 178T583 70T479 3T366 -20Q302 -20 250 0T157 56L103 -5Q97 -12 88 -12T74 -6Q68 -1 68 6T72 19L129 84Q89 129 68 186T47 307Q47 390 76 454T151
562T254 628T366 651Q428 651 479 632T570 580L627 644Q633 651 642 651T656 645Q662 640 662 633T658 620L599 554ZM365 24Q418 24 456 48T520 114T557 210T569 325Q569 369 562 409T538 485L210 115Q235 73 273 49T365 24ZM164 310Q164 222 191 153L519 522Q493
562 455 585T365 608Q312 608 274 584T212 519T176 424T164 310Z" />
<glyph unicode="&#xd9;" glyph-name="Ugrave" horiz-adv-x="720" d="M600 178Q600 125 577 88T519 26T441 -9T359 -20Q299 -20 254 -4T178 40T133 101T117 173V514Q117 528 116 542T108 567T89 584T52 591Q41 591 35 593T27 612Q27 620 31 627T45 634Q77 632 105
632T163 631Q223 631 288 634Q298 634 302 627T306 612Q305 597 300 594T286 591Q260 591 247 585T226 568T218 543T216 514V202Q216 176 221 148T242 95T290 55T375 39Q426 39 458 52T510 86T536 134T544 188V451Q544 500 542 528T531 570T508 587T467 591Q457
591 450 593T442 612Q442 620 446 627T460 634Q492 632 517 632T572 631Q602 631 627 631T684 634Q694 634 698 627T702 612Q701 597 696 594T682 591Q655 591 639 588T614 572T603 532T600 457V178ZM388 673Q368 683 341 698T288 730T245 763T227 792Q227 806
239 818T264 830Q276 830 302 812T354 770T401 724T422 695Q422 686 415 679T397 671Q391 671 388 673Z" />
<glyph unicode="&#xda;" glyph-name="Uacute" horiz-adv-x="720" d="M600 178Q600 125 577 88T519 26T441 -9T359 -20Q299 -20 254 -4T178 40T133 101T117 173V514Q117 528 116 542T108 567T89 584T52 591Q41 591 35 593T27 612Q27 620 31 627T45 634Q77 632 105
632T163 631Q223 631 288 634Q298 634 302 627T306 612Q305 597 300 594T286 591Q260 591 247 585T226 568T218 543T216 514V202Q216 176 221 148T242 95T290 55T375 39Q426 39 458 52T510 86T536 134T544 188V451Q544 500 542 528T531 570T508 587T467 591Q457
591 450 593T442 612Q442 620 446 627T460 634Q492 632 517 632T572 631Q602 631 627 631T684 634Q694 634 698 627T702 612Q701 597 696 594T682 591Q655 591 639 588T614 572T603 532T600 457V178ZM356 673Q353 671 347 671Q336 671 329 678T322 695Q322 702
332 712T357 738T391 770T427 801T459 822T480 830Q492 830 504 818T517 792Q517 777 500 762T457 732T404 700T356 673Z" />
<glyph unicode="&#xdb;" glyph-name="Ucircumflex" horiz-adv-x="720" d="M600 178Q600 125 577 88T519 26T441 -9T359 -20Q299 -20 254 -4T178 40T133 101T117 173V514Q117 528 116 542T108 567T89 584T52 591Q41 591 35 593T27 612Q27 620 31 627T45 634Q77
632 105 632T163 631Q223 631 288 634Q298 634 302 627T306 612Q305 597 300 594T286 591Q260 591 247 585T226 568T218 543T216 514V202Q216 176 221 148T242 95T290 55T375 39Q426 39 458 52T510 86T536 134T544 188V451Q544 500 542 528T531 570T508 587T467
591Q457 591 450 593T442 612Q442 620 446 627T460 634Q492 632 517 632T572 631Q602 631 627 631T684 634Q694 634 698 627T702 612Q701 597 696 594T682 591Q655 591 639 588T614 572T603 532T600 457V178ZM354 813Q367 822 378 822Q390 822 402 813L529 720Q537
713 537 702Q537 695 533 690T521 685H518Q486 693 450 712T378 750Q343 732 307 713T238 685H235Q227 685 223 690T218 702Q218 712 227 720L354 813Z" />
<glyph unicode="&#xdc;" glyph-name="Udieresis" horiz-adv-x="720" d="M600 178Q600 125 577 88T519 26T441 -9T359 -20Q299 -20 254 -4T178 40T133 101T117 173V514Q117 528 116 542T108 567T89 584T52 591Q41 591 35 593T27 612Q27 620 31 627T45 634Q77 632
105 632T163 631Q223 631 288 634Q298 634 302 627T306 612Q305 597 300 594T286 591Q260 591 247 585T226 568T218 543T216 514V202Q216 176 221 148T242 95T290 55T375 39Q426 39 458 52T510 86T536 134T544 188V451Q544 500 542 528T531 570T508 587T467 591Q457
591 450 593T442 612Q442 620 446 627T460 634Q492 632 517 632T572 631Q602 631 627 631T684 634Q694 634 698 627T702 612Q701 597 696 594T682 591Q655 591 639 588T614 572T603 532T600 457V178ZM286 821Q312 821 329 804T346 761Q346 737 329 719T285 701Q259
701 241 719T223 761Q223 787 241 804T286 821ZM478 821Q504 821 521 804T538 761Q538 737 521 719T477 701Q451 701 433 719T415 761Q415 787 433 804T478 821Z" />
<glyph unicode="&#xdd;" glyph-name="Yacute" horiz-adv-x="621" d="M236 532Q265 478 288 428T341 323H344L455 542Q464 559 464 568T459 583T441 589T411 591Q400 591 394 593T386 612Q386 620 390 627T403 634Q435 632 458 632T512 631Q527 631 538 631T561
631T585 632T613 634Q623 634 627 627T631 612Q630 595 624 593T606 591Q568 591 544 575T501 523L388 310Q381 295 376 285T368 265T363 243T361 214V117Q361 103 362 89T370 64T389 47T426 40Q437 40 443 38T451 19Q451 11 447 4T434 -3Q402 -1 373 -1T314 0Q254
0 190 -3Q180 -3 176 4T172 19Q173 36 180 38T197 40Q221 40 234 46T253 64T260 89T262 117V242Q262 248 255 267T235 312T208 368T179 426T152 478T132 515Q111 553 86 569T29 593Q15 596 10 598T4 616Q4 633 15 634T44 636Q79 636 107 631T158 614T200 582T236
532ZM282 673Q279 671 273 671Q262 671 255 678T248 695Q248 702 258 712T283 738T317 770T353 801T385 822T406 830Q418 830 430 818T443 792Q443 777 426 762T383 732T330 700T282 673Z" />
<glyph unicode="&#xde;" glyph-name="Thorn" horiz-adv-x="606" d="M231 117Q231 103 232 89T240 64T259 47T296 40Q307 40 313 38T322 19Q322 11 318 4T304 -3Q239 0 180 0Q150 0 121 0T60 -3Q50 -3 46 4T42 19Q43 36 50 38T67 40Q91 40 104 46T123 64T130 89T133
117V514Q132 528 131 542T123 567T104 584T67 591Q57 591 50 593T42 612Q42 620 46 627T60 634Q92 632 120 632T179 631Q239 631 304 634Q313 634 317 627T322 612Q320 595 314 593T296 591Q274 591 261 585T242 570T233 548T231 522H331Q361 522 403 515T485 489T552
432T580 335Q580 287 559 250T502 188T421 149T329 135Q303 135 279 139T231 152V117ZM231 476V191Q253 181 302 181Q325 181 354 187T408 209T451 255T469 332Q469 380 452 408T409 451T355 470T303 476H231Z" />
<glyph unicode="&#xdf;" glyph-name="germandbls" horiz-adv-x="604" d="M303 401Q292 401 288 406T283 420Q283 427 287 432T303 439H332Q351 439 367 450T394 478T412 518T419 564Q419 587 414 609T396 648T363 676T315 687Q279 687 255 677T216 647T195 603T189
546V103Q189 86 189 74T193 52T206 39T233 35Q241 35 247 34T255 17Q255 9 251 3T239 -3Q210 -1 190 -1T143 0Q116 0 92 0T39 -3Q31 -3 27 3T23 17Q24 32 30 33T46 35Q67 35 77 40T92 55T97 77T97 103V528Q97 623 151 675T307 728Q353 729 391 717T458 682T501
631T516 570Q516 530 491 492T404 425V422Q481 407 521 357T562 228Q562 173 547 130T506 56T444 10T370 -6Q324 -6 295 18T266 79Q267 105 282 125T326 145Q343 145 352 136T362 123Q362 121 358 118T349 110T340 96T335 77Q335 55 345 44T369 33Q394 33 411 52T439
99T454 155T459 203Q459 244 452 280T429 343T389 385T332 401H303Z" />
<glyph unicode="&#xe0;" glyph-name="agrave" horiz-adv-x="501" d="M223 436Q194 436 170 418T146 366Q146 354 151 345T162 329T173 319T178 314Q178 309 167 299T135 289Q103 289 87 312T70 363Q70 391 84 410T120 442T171 459T229 465Q263 465 296 460T355
438T397 394T414 319V86Q414 78 416 68T425 49T441 34T466 27Q473 27 477 25T481 11Q481 4 475 0T460 -7T442 -11T426 -12Q389 -12 360 9T326 69Q315 49 295 34T252 9T204 -7T158 -12Q132 -12 110 -3T71 23T44 60T34 107Q34 143 51 168T96 209T156 234T222 247T282
253T326 257V336Q326 383 303 409T223 436ZM326 227Q278 221 242 213T183 193T147 163T135 120Q135 88 153 65T200 42Q225 42 248 52T288 79T316 120T326 171V227ZM122 637Q113 647 113 660Q113 675 126 688T157 702Q180 702 193 679L268 542Q272 534 272 528Q272
517 265 512T248 506Q235 506 224 518L122 637Z" />
<glyph unicode="&#xe1;" glyph-name="aacute" horiz-adv-x="501" d="M223 436Q194 436 170 418T146 366Q146 354 151 345T162 329T173 319T178 314Q178 309 167 299T135 289Q103 289 87 312T70 363Q70 391 84 410T120 442T171 459T229 465Q263 465 296 460T355
438T397 394T414 319V86Q414 78 416 68T425 49T441 34T466 27Q473 27 477 25T481 11Q481 4 475 0T460 -7T442 -11T426 -12Q389 -12 360 9T326 69Q315 49 295 34T252 9T204 -7T158 -12Q132 -12 110 -3T71 23T44 60T34 107Q34 143 51 168T96 209T156 234T222 247T282
253T326 257V336Q326 383 303 409T223 436ZM326 227Q278 221 242 213T183 193T147 163T135 120Q135 88 153 65T200 42Q225 42 248 52T288 79T316 120T326 171V227ZM251 518Q240 506 227 506Q217 506 210 511T203 528Q203 535 207 542L282 679Q293 702 318 702Q336
702 348 689T361 660Q361 646 353 637L251 518Z" />
<glyph unicode="&#xe2;" glyph-name="acircumflex" horiz-adv-x="501" d="M223 436Q194 436 170 418T146 366Q146 354 151 345T162 329T173 319T178 314Q178 309 167 299T135 289Q103 289 87 312T70 363Q70 391 84 410T120 442T171 459T229 465Q263 465 296 460T355
438T397 394T414 319V86Q414 78 416 68T425 49T441 34T466 27Q473 27 477 25T481 11Q481 4 475 0T460 -7T442 -11T426 -12Q389 -12 360 9T326 69Q315 49 295 34T252 9T204 -7T158 -12Q132 -12 110 -3T71 23T44 60T34 107Q34 143 51 168T96 209T156 234T222 247T282
253T326 257V336Q326 383 303 409T223 436ZM326 227Q278 221 242 213T183 193T147 163T135 120Q135 88 153 65T200 42Q225 42 248 52T288 79T316 120T326 171V227ZM354 549Q358 542 358 536Q358 526 352 521T337 516Q322 516 298 539T227 624Q180 563 156 540T117
516Q109 516 103 521T96 536Q96 542 100 549L202 697Q211 710 226 710Q233 710 239 708T252 697L354 549Z" />
<glyph unicode="&#xe3;" glyph-name="atilde" horiz-adv-x="501" d="M223 436Q194 436 170 418T146 366Q146 354 151 345T162 329T173 319T178 314Q178 309 167 299T135 289Q103 289 87 312T70 363Q70 391 84 410T120 442T171 459T229 465Q263 465 296 460T355
438T397 394T414 319V86Q414 78 416 68T425 49T441 34T466 27Q473 27 477 25T481 11Q481 4 475 0T460 -7T442 -11T426 -12Q389 -12 360 9T326 69Q315 49 295 34T252 9T204 -7T158 -12Q132 -12 110 -3T71 23T44 60T34 107Q34 143 51 168T96 209T156 234T222 247T282
253T326 257V336Q326 383 303 409T223 436ZM326 227Q278 221 242 213T183 193T147 163T135 120Q135 88 153 65T200 42Q225 42 248 52T288 79T316 120T326 171V227ZM390 641Q383 625 373 610T350 582T319 562T282 554Q261 554 245 563T216 583T192 603T167 612Q155
612 138 603T101 570Q96 564 89 563T77 564T68 572T68 588Q74 604 84 620T109 650T140 671T178 679Q199 679 215 670T244 650T268 630T293 621Q305 621 323 631T359 663Q365 670 372 671T384 669T392 658T390 641Z" />
<glyph unicode="&#xe4;" glyph-name="adieresis" horiz-adv-x="501" d="M223 436Q194 436 170 418T146 366Q146 354 151 345T162 329T173 319T178 314Q178 309 167 299T135 289Q103 289 87 312T70 363Q70 391 84 410T120 442T171 459T229 465Q263 465 296 460T355
438T397 394T414 319V86Q414 78 416 68T425 49T441 34T466 27Q473 27 477 25T481 11Q481 4 475 0T460 -7T442 -11T426 -12Q389 -12 360 9T326 69Q315 49 295 34T252 9T204 -7T158 -12Q132 -12 110 -3T71 23T44 60T34 107Q34 143 51 168T96 209T156 234T222 247T282
253T326 257V336Q326 383 303 409T223 436ZM326 227Q278 221 242 213T183 193T147 163T135 120Q135 88 153 65T200 42Q225 42 248 52T288 79T316 120T326 171V227ZM150 667Q176 667 193 650T210 607Q210 583 193 565T149 547Q123 547 105 565T87 607Q87 633 105
650T150 667ZM323 667Q349 667 366 650T383 607Q383 583 366 565T322 547Q296 547 278 565T260 607Q260 633 278 650T323 667Z" />
<glyph unicode="&#xe5;" glyph-name="aring" horiz-adv-x="501" d="M223 436Q194 436 170 418T146 366Q146 354 151 345T162 329T173 319T178 314Q178 309 167 299T135 289Q103 289 87 312T70 363Q70 391 84 410T120 442T171 459T229 465Q263 465 296 460T355
438T397 394T414 319V86Q414 78 416 68T425 49T441 34T466 27Q473 27 477 25T481 11Q481 4 475 0T460 -7T442 -11T426 -12Q389 -12 360 9T326 69Q315 49 295 34T252 9T204 -7T158 -12Q132 -12 110 -3T71 23T44 60T34 107Q34 143 51 168T96 209T156 234T222 247T282
253T326 257V336Q326 383 303 409T223 436ZM326 227Q278 221 242 213T183 193T147 163T135 120Q135 88 153 65T200 42Q225 42 248 52T288 79T316 120T326 171V227ZM337 858Q337 814 308 789T229 763Q178 763 149 789T119 858Q119 956 229 956Q282 956 309 930T337
858ZM272 858Q272 887 263 904T229 921Q206 921 195 903T184 858Q184 800 229 800Q255 800 263 816T272 858Z" />
<glyph unicode="&#xe6;" glyph-name="ae" horiz-adv-x="773" d="M388 408Q416 434 453 449T535 465Q581 465 615 453T673 418T710 364T727 297Q727 262 708 251T657 240H414Q414 196 423 159T451 95T500 53T572 38Q614 38 644 56T702 119Q710 129 724 120Q732
115 734 107T732 93Q701 44 654 16T546 -12Q471 -12 421 18T343 99Q338 89 333 80T321 61Q309 43 289 30T247 7T201 -7T158 -12Q132 -12 110 -3T71 23T44 60T34 107Q34 143 51 168T96 209T156 234T222 247T282 253T326 257V336Q326 383 303 409T223 436Q194 436
170 418T146 366Q146 354 151 345T162 329T173 319T178 314Q178 309 167 299T135 289Q103 289 87 312T70 363Q70 391 84 410T120 442T171 459T229 465Q275 465 318 454T388 408ZM326 227Q278 221 242 213T183 193T147 163T135 120Q135 88 153 65T200 42Q225 42
248 52T288 79T316 120T326 171V227ZM577 278Q601 278 615 287T631 320Q631 341 625 361T607 396T577 421T535 430Q484 430 451 390T414 278H577Z" />
<glyph unicode="&#xe7;" glyph-name="ccedilla" horiz-adv-x="475" d="M411 113Q418 123 432 115Q439 111 442 104T440 90Q407 42 358 15Q316 -8 272 -11V-41Q289 -41 306 -44T338 -56T360 -78T369 -111Q369 -137 356 -155T318 -185T260 -202T185 -208Q175 -208
170 -201T165 -184Q165 -170 171 -166T185 -162Q206 -162 225 -162T261 -158T286 -147T296 -126Q296 -110 281 -104T239 -96Q234 -95 229 -92T223 -73V-9Q193 -6 167 5Q127 22 99 53T56 129T41 227Q43 279 61 322T111 396T185 445T276 465Q289 465 312 463T359
453T403 429T431 382Q435 365 433 348T422 316T399 292T365 283Q343 283 331 294T319 310Q319 311 324 315T335 326T347 342T352 365Q352 397 329 412T277 428Q233 428 207 410T166 362T148 298T143 230Q143 189 152 154T180 93T224 53T282 38Q326 38 356 56T411
113Z" />
<glyph unicode="&#xe8;" glyph-name="egrave" horiz-adv-x="502" d="M306 278Q330 278 344 287T360 320Q360 341 354 361T336 396T306 421T264 430Q213 430 180 390T143 278H306ZM461 93Q430 44 383 16T275 -12Q217 -12 173 7T100 59T56 136T41 229Q41 272 56
314T101 390T171 444T264 465Q310 465 344 453T402 418T439 364T456 297Q456 262 437 251T386 240H143Q143 196 152 159T180 95T229 53T301 38Q343 38 373 56T431 119Q439 129 453 120Q461 115 463 107T461 93ZM158 637Q149 647 149 660Q149 675 162 688T193 702Q216
702 229 679L304 542Q308 534 308 528Q308 517 301 512T284 506Q271 506 260 518L158 637Z" />
<glyph unicode="&#xe9;" glyph-name="eacute" horiz-adv-x="502" d="M306 278Q330 278 344 287T360 320Q360 341 354 361T336 396T306 421T264 430Q213 430 180 390T143 278H306ZM461 93Q430 44 383 16T275 -12Q217 -12 173 7T100 59T56 136T41 229Q41 272 56
314T101 390T171 444T264 465Q310 465 344 453T402 418T439 364T456 297Q456 262 437 251T386 240H143Q143 196 152 159T180 95T229 53T301 38Q343 38 373 56T431 119Q439 129 453 120Q461 115 463 107T461 93ZM277 518Q266 506 253 506Q243 506 236 511T229 528Q229
535 233 542L308 679Q319 702 344 702Q362 702 374 689T387 660Q387 646 379 637L277 518Z" />
<glyph unicode="&#xea;" glyph-name="ecircumflex" horiz-adv-x="502" d="M306 278Q330 278 344 287T360 320Q360 341 354 361T336 396T306 421T264 430Q213 430 180 390T143 278H306ZM461 93Q430 44 383 16T275 -12Q217 -12 173 7T100 59T56 136T41 229Q41 272
56 314T101 390T171 444T264 465Q310 465 344 453T402 418T439 364T456 297Q456 262 437 251T386 240H143Q143 196 152 159T180 95T229 53T301 38Q343 38 373 56T431 119Q439 129 453 120Q461 115 463 107T461 93ZM390 549Q394 542 394 536Q394 526 388 521T373
516Q358 516 334 539T263 624Q216 563 192 540T153 516Q145 516 139 521T132 536Q132 542 136 549L238 697Q247 710 262 710Q269 710 275 708T288 697L390 549Z" />
<glyph unicode="&#xeb;" glyph-name="edieresis" horiz-adv-x="502" d="M306 278Q330 278 344 287T360 320Q360 341 354 361T336 396T306 421T264 430Q213 430 180 390T143 278H306ZM461 93Q430 44 383 16T275 -12Q217 -12 173 7T100 59T56 136T41 229Q41 272
56 314T101 390T171 444T264 465Q310 465 344 453T402 418T439 364T456 297Q456 262 437 251T386 240H143Q143 196 152 159T180 95T229 53T301 38Q343 38 373 56T431 119Q439 129 453 120Q461 115 463 107T461 93ZM186 667Q212 667 229 650T246 607Q246 583 229
565T185 547Q159 547 141 565T123 607Q123 633 141 650T186 667ZM359 667Q385 667 402 650T419 607Q419 583 402 565T358 547Q332 547 314 565T296 607Q296 633 314 650T359 667Z" />
<glyph unicode="&#xec;" glyph-name="igrave" horiz-adv-x="296" d="M199 103Q199 90 199 78T203 56T219 41T251 35Q260 35 266 34T274 17Q274 9 270 3T258 -3Q229 -1 205 -1T153 0Q126 0 102 0T49 -3Q41 -3 37 3T33 17Q35 32 41 33T57 35Q78 35 88 40T103 55T108
77T108 103V332Q108 345 108 357T104 379T89 394T57 400Q48 400 41 402T33 420Q33 426 37 431T49 438Q83 443 105 448T141 458T163 466T180 470Q188 471 193 467T199 451V103ZM279 637Q270 647 270 660Q270 675 283 688T314 702Q337 702 350 679L425 542Q429 534
429 528Q429 517 422 512T405 506Q392 506 381 518L279 637Z" />
<glyph unicode="&#xed;" glyph-name="iacute" horiz-adv-x="296" d="M199 103Q199 90 199 78T203 56T219 41T251 35Q260 35 266 34T274 17Q274 9 270 3T258 -3Q229 -1 205 -1T153 0Q126 0 102 0T49 -3Q41 -3 37 3T33 17Q35 32 41 33T57 35Q78 35 88 40T103 55T108
77T108 103V332Q108 345 108 357T104 379T89 394T57 400Q48 400 41 402T33 420Q33 426 37 431T49 438Q83 443 105 448T141 458T163 466T180 470Q188 471 193 467T199 451V103ZM121 518Q110 506 97 506Q87 506 80 511T73 528Q73 535 77 542L152 679Q163 702 188
702Q206 702 218 689T231 660Q231 646 223 637L121 518Z" />
<glyph unicode="&#xee;" glyph-name="icircumflex" horiz-adv-x="296" d="M199 103Q199 90 199 78T203 56T219 41T251 35Q260 35 266 34T274 17Q274 9 270 3T258 -3Q229 -1 205 -1T153 0Q126 0 102 0T49 -3Q41 -3 37 3T33 17Q35 32 41 33T57 35Q78 35 88 40T103
55T108 77T108 103V332Q108 345 108 357T104 379T89 394T57 400Q48 400 41 402T33 420Q33 426 37 431T49 438Q83 443 105 448T141 458T163 466T180 470Q188 471 193 467T199 451V103ZM511 549Q515 542 515 536Q515 526 509 521T494 516Q479 516 455 539T384 624Q337
563 313 540T274 516Q266 516 260 521T253 536Q253 542 257 549L359 697Q368 710 383 710Q390 710 396 708T409 697L511 549Z" />
<glyph unicode="&#xef;" glyph-name="idieresis" horiz-adv-x="296" d="M199 103Q199 90 199 78T203 56T219 41T251 35Q260 35 266 34T274 17Q274 9 270 3T258 -3Q229 -1 205 -1T153 0Q126 0 102 0T49 -3Q41 -3 37 3T33 17Q35 32 41 33T57 35Q78 35 88 40T103
55T108 77T108 103V332Q108 345 108 357T104 379T89 394T57 400Q48 400 41 402T33 420Q33 426 37 431T49 438Q83 443 105 448T141 458T163 466T180 470Q188 471 193 467T199 451V103ZM307 667Q333 667 350 650T367 607Q367 583 350 565T306 547Q280 547 262 565T244
607Q244 633 262 650T307 667ZM480 667Q506 667 523 650T540 607Q540 583 523 565T479 547Q453 547 435 565T417 607Q417 633 435 650T480 667Z" />
<glyph unicode="&#xf0;" glyph-name="eth" horiz-adv-x="563" d="M271 25Q307 25 332 41T372 85T395 149T402 228Q402 267 395 302T372 362T331 403T271 418Q234 418 209 402T169 359T147 296T140 217Q140 178 147 143T169 82T210 41T271 25ZM231 691Q222 698
220 703T220 716Q222 722 227 726T242 726Q252 721 265 713T293 695T319 675T340 657L426 709Q431 712 436 708T446 696T450 682T445 671L369 627Q401 593 426 549T469 452T495 343T501 228Q499 168 478 123T423 48T350 3T271 -12Q218 -12 176 6T104 56T58 129T42
215Q42 274 63 319T117 395T190 440T271 455Q318 454 345 439T396 405L400 406Q393 466 370 512T319 599L222 542Q216 540 211 545T202 557T199 571T205 581L295 632Q283 648 266 663T231 691Z" />
<glyph unicode="&#xf1;" glyph-name="ntilde" horiz-adv-x="599" d="M198 388H201Q216 402 231 415T264 440T306 458T362 465Q431 465 470 424T510 316V103Q510 90 510 78T514 56T530 41T562 35Q571 35 577 34T585 17Q585 9 581 3T569 -3Q540 -1 516 -1T464 0Q437
0 413 0T360 -3Q352 -3 348 3T344 17Q345 32 351 33T367 35Q388 35 398 40T413 55T418 77T419 103V315Q419 340 411 358T389 387T358 404T323 410Q297 410 276 403T240 384T214 362T199 341V103Q199 90 199 78T203 56T219 41T251 35Q260 35 266 34T274 17Q274 9
270 3T258 -3Q229 -1 205 -1T153 0Q126 0 102 0T49 -3Q41 -3 37 3T33 17Q35 32 41 33T57 35Q78 35 88 40T103 55T108 77T108 103V332Q108 345 108 357T104 379T89 394T57 400Q48 400 41 402T33 420Q33 426 37 431T49 438Q83 443 105 448T141 458T163 466T179 470Q187
471 192 467T198 451V388ZM472 641Q465 625 455 610T432 582T401 562T364 554Q343 554 327 563T298 583T274 603T249 612Q237 612 220 603T183 570Q178 564 171 563T159 564T150 572T150 588Q156 604 166 620T191 650T222 671T260 679Q281 679 297 670T326 650T350
630T375 621Q387 621 405 631T441 663Q447 670 454 671T466 669T474 658T472 641Z" />
<glyph unicode="&#xf2;" glyph-name="ograve" horiz-adv-x="548" d="M274 465Q326 465 369 446T443 394T490 320T507 233Q507 174 485 128T430 51T355 4T274 -12Q221 -12 179 7T105 59T58 133T41 220Q41 279 62 325T117 402T192 449T274 465ZM274 25Q310 25 335
42T375 87T398 153T405 233Q405 272 398 307T375 370T334 412T274 428Q237 428 212 412T172 367T150 301T143 222Q143 183 150 148T172 85T213 41T274 25ZM168 637Q159 647 159 660Q159 675 172 688T203 702Q226 702 239 679L314 542Q318 534 318 528Q318 517 311
512T294 506Q281 506 270 518L168 637Z" />
<glyph unicode="&#xf3;" glyph-name="oacute" horiz-adv-x="548" d="M274 465Q326 465 369 446T443 394T490 320T507 233Q507 174 485 128T430 51T355 4T274 -12Q221 -12 179 7T105 59T58 133T41 220Q41 279 62 325T117 402T192 449T274 465ZM274 25Q310 25 335
42T375 87T398 153T405 233Q405 272 398 307T375 370T334 412T274 428Q237 428 212 412T172 367T150 301T143 222Q143 183 150 148T172 85T213 41T274 25ZM297 518Q286 506 273 506Q263 506 256 511T249 528Q249 535 253 542L328 679Q339 702 364 702Q382 702 394
689T407 660Q407 646 399 637L297 518Z" />
<glyph unicode="&#xf4;" glyph-name="ocircumflex" horiz-adv-x="548" d="M274 465Q326 465 369 446T443 394T490 320T507 233Q507 174 485 128T430 51T355 4T274 -12Q221 -12 179 7T105 59T58 133T41 220Q41 279 62 325T117 402T192 449T274 465ZM274 25Q310
25 335 42T375 87T398 153T405 233Q405 272 398 307T375 370T334 412T274 428Q237 428 212 412T172 367T150 301T143 222Q143 183 150 148T172 85T213 41T274 25ZM400 549Q404 542 404 536Q404 526 398 521T383 516Q368 516 344 539T273 624Q226 563 202 540T163
516Q155 516 149 521T142 536Q142 542 146 549L248 697Q257 710 272 710Q279 710 285 708T298 697L400 549Z" />
<glyph unicode="&#xf5;" glyph-name="otilde" horiz-adv-x="548" d="M274 465Q326 465 369 446T443 394T490 320T507 233Q507 174 485 128T430 51T355 4T274 -12Q221 -12 179 7T105 59T58 133T41 220Q41 279 62 325T117 402T192 449T274 465ZM274 25Q310 25 335
42T375 87T398 153T405 233Q405 272 398 307T375 370T334 412T274 428Q237 428 212 412T172 367T150 301T143 222Q143 183 150 148T172 85T213 41T274 25ZM436 641Q429 625 419 610T396 582T365 562T328 554Q307 554 291 563T262 583T238 603T213 612Q201 612 184
603T147 570Q142 564 135 563T123 564T114 572T114 588Q120 604 130 620T155 650T186 671T224 679Q245 679 261 670T290 650T314 630T339 621Q351 621 369 631T405 663Q411 670 418 671T430 669T438 658T436 641Z" />
<glyph unicode="&#xf6;" glyph-name="odieresis" horiz-adv-x="548" d="M274 465Q326 465 369 446T443 394T490 320T507 233Q507 174 485 128T430 51T355 4T274 -12Q221 -12 179 7T105 59T58 133T41 220Q41 279 62 325T117 402T192 449T274 465ZM274 25Q310 25
335 42T375 87T398 153T405 233Q405 272 398 307T375 370T334 412T274 428Q237 428 212 412T172 367T150 301T143 222Q143 183 150 148T172 85T213 41T274 25ZM196 667Q222 667 239 650T256 607Q256 583 239 565T195 547Q169 547 151 565T133 607Q133 633 151 650T196
667ZM369 667Q395 667 412 650T429 607Q429 583 412 565T368 547Q342 547 324 565T306 607Q306 633 324 650T369 667Z" />
<glyph unicode="&#xf7;" glyph-name="divide" horiz-adv-x="600" d="M74 237Q64 237 58 245T52 264Q52 274 58 282T74 291H524Q534 291 540 283T546 264Q546 254 540 246T524 237H74ZM298 381Q271 381 253 398T235 444Q235 470 253 488T299 506Q326 506 344 488T363
444Q363 415 345 398T298 381ZM298 9Q271 9 253 26T235 72Q235 98 253 116T299 134Q326 134 344 116T363 72Q363 43 345 26T298 9Z" />
<glyph unicode="&#xf8;" glyph-name="oslash" horiz-adv-x="547" d="M446 390Q475 358 491 318T507 233Q507 174 485 128T430 51T355 4T274 -12Q232 -12 197 0T132 34L97 -5Q91 -12 82 -12T68 -6Q62 -1 62 6T66 19L103 61Q73 93 57 134T41 220Q41 279 62 325T117
402T192 449T274 465Q316 465 352 453T418 417L465 470Q471 477 480 477T494 471Q500 466 500 459T496 446L446 390ZM143 222Q143 195 146 170T156 121L375 369Q359 396 334 412T274 428Q237 428 212 412T172 367T150 301T143 222ZM274 25Q310 25 335 42T375 87T398
153T405 233Q405 259 402 283T392 328L174 82Q190 56 214 41T274 25Z" />
<glyph unicode="&#xf9;" glyph-name="ugrave" horiz-adv-x="596" d="M494 95Q494 36 573 36Q584 36 587 30T590 17Q590 3 573 0L412 -11Q404 -11 404 -5T403 9V65H401Q386 51 371 38T338 13T295 -5T240 -12Q171 -12 132 29T92 137V322Q92 335 92 347T88 369T73
384T41 390Q32 390 25 392T17 410Q17 416 21 421T33 428Q67 433 89 438T125 448T147 456T164 460Q172 461 177 457T183 441V138Q183 113 191 95T213 66T244 49T279 43Q305 43 326 50T363 69T389 91T403 112V322Q403 335 403 347T399 369T384 384T352 390Q343 390
336 392T328 410Q328 416 332 421T344 428Q378 433 400 438T436 448T458 456T475 460Q483 461 488 457T494 441V95ZM174 637Q165 647 165 660Q165 675 178 688T209 702Q232 702 245 679L320 542Q324 534 324 528Q324 517 317 512T300 506Q287 506 276 518L174 637Z"
/>
<glyph unicode="&#xfa;" glyph-name="uacute" horiz-adv-x="596" d="M494 95Q494 36 573 36Q584 36 587 30T590 17Q590 3 573 0L412 -11Q404 -11 404 -5T403 9V65H401Q386 51 371 38T338 13T295 -5T240 -12Q171 -12 132 29T92 137V322Q92 335 92 347T88 369T73
384T41 390Q32 390 25 392T17 410Q17 416 21 421T33 428Q67 433 89 438T125 448T147 456T164 460Q172 461 177 457T183 441V138Q183 113 191 95T213 66T244 49T279 43Q305 43 326 50T363 69T389 91T403 112V322Q403 335 403 347T399 369T384 384T352 390Q343 390
336 392T328 410Q328 416 332 421T344 428Q378 433 400 438T436 448T458 456T475 460Q483 461 488 457T494 441V95ZM273 518Q262 506 249 506Q239 506 232 511T225 528Q225 535 229 542L304 679Q315 702 340 702Q358 702 370 689T383 660Q383 646 375 637L273 518Z"
/>
<glyph unicode="&#xfb;" glyph-name="ucircumflex" horiz-adv-x="596" d="M494 95Q494 36 573 36Q584 36 587 30T590 17Q590 3 573 0L412 -11Q404 -11 404 -5T403 9V65H401Q386 51 371 38T338 13T295 -5T240 -12Q171 -12 132 29T92 137V322Q92 335 92 347T88 369T73
384T41 390Q32 390 25 392T17 410Q17 416 21 421T33 428Q67 433 89 438T125 448T147 456T164 460Q172 461 177 457T183 441V138Q183 113 191 95T213 66T244 49T279 43Q305 43 326 50T363 69T389 91T403 112V322Q403 335 403 347T399 369T384 384T352 390Q343 390
336 392T328 410Q328 416 332 421T344 428Q378 433 400 438T436 448T458 456T475 460Q483 461 488 457T494 441V95ZM406 549Q410 542 410 536Q410 526 404 521T389 516Q374 516 350 539T279 624Q232 563 208 540T169 516Q161 516 155 521T148 536Q148 542 152 549L254
697Q263 710 278 710Q285 710 291 708T304 697L406 549Z" />
<glyph unicode="&#xfc;" glyph-name="udieresis" horiz-adv-x="596" d="M494 95Q494 36 573 36Q584 36 587 30T590 17Q590 3 573 0L412 -11Q404 -11 404 -5T403 9V65H401Q386 51 371 38T338 13T295 -5T240 -12Q171 -12 132 29T92 137V322Q92 335 92 347T88 369T73
384T41 390Q32 390 25 392T17 410Q17 416 21 421T33 428Q67 433 89 438T125 448T147 456T164 460Q172 461 177 457T183 441V138Q183 113 191 95T213 66T244 49T279 43Q305 43 326 50T363 69T389 91T403 112V322Q403 335 403 347T399 369T384 384T352 390Q343 390
336 392T328 410Q328 416 332 421T344 428Q378 433 400 438T436 448T458 456T475 460Q483 461 488 457T494 441V95ZM202 667Q228 667 245 650T262 607Q262 583 245 565T201 547Q175 547 157 565T139 607Q139 633 157 650T202 667ZM375 667Q401 667 418 650T435
607Q435 583 418 565T374 547Q348 547 330 565T312 607Q312 633 330 650T375 667Z" />
<glyph unicode="&#xfd;" glyph-name="yacute" horiz-adv-x="552" d="M296 -10Q283 -42 265 -78T222 -145T166 -197T97 -218Q75 -218 55 -211T20 -190T-4 -160T-13 -124Q-12 -97 -1 -83T22 -63T43 -56T51 -55Q70 -55 80 -62T90 -75Q90 -77 83 -84T74 -111Q73 -129
85 -146T122 -163Q143 -163 161 -151T194 -120T222 -78T245 -34Q252 -12 244 12Q226 52 209 97T175 186T142 272T110 345Q102 363 95 376T79 397T60 410T34 417Q21 419 17 420T11 436Q10 453 20 454T46 457Q107 460 142 439T200 368Q210 344 222 312T248 245T276
176T304 113H307L405 375Q415 404 406 411T367 418Q358 418 352 419T345 436Q345 442 348 449T359 456Q388 454 409 454T456 453Q469 453 478 453T496 453T514 454T539 456Q547 456 550 449T554 436Q553 421 547 420T532 418Q499 418 480 406T446 359L372 177Q358
142 345 109T321 50T303 8T296 -10ZM270 518Q259 506 246 506Q236 506 229 511T222 528Q222 535 226 542L301 679Q312 702 337 702Q355 702 367 689T380 660Q380 646 372 637L270 518Z" />
<glyph unicode="&#xfe;" glyph-name="thorn" horiz-adv-x="561" d="M169 19V-102Q169 -115 169 -127T175 -149T190 -164T221 -170Q230 -170 236 -171T244 -188Q244 -196 240 -202T228 -208Q199 -206 175 -206T123 -205Q96 -205 72 -205T19 -208Q11 -208 7 -202T3
-188Q4 -173 10 -172T26 -170Q46 -170 56 -165T72 -150T77 -128T78 -102V590Q78 603 78 615T74 637T59 652T27 658Q18 658 11 660T3 678Q3 684 7 689T19 696Q53 701 75 706T111 716T133 724T150 728Q158 729 163 725T169 709V407H172Q202 437 238 451T310 465Q354
465 392 448T459 400T504 326T520 230Q520 179 501 135T451 58T378 7T291 -12Q226 -12 173 19H169ZM418 226Q418 261 410 295T385 355T340 398T275 415Q241 415 215 403T169 369V105Q171 94 179 80T201 53T236 31T282 22Q312 22 337 36T380 76T408 141T418 226Z"
/>
<glyph unicode="&#xff;" glyph-name="ydieresis" horiz-adv-x="552" d="M296 -10Q283 -42 265 -78T222 -145T166 -197T97 -218Q75 -218 55 -211T20 -190T-4 -160T-13 -124Q-12 -97 -1 -83T22 -63T43 -56T51 -55Q70 -55 80 -62T90 -75Q90 -77 83 -84T74 -111Q73
-129 85 -146T122 -163Q143 -163 161 -151T194 -120T222 -78T245 -34Q252 -12 244 12Q226 52 209 97T175 186T142 272T110 345Q102 363 95 376T79 397T60 410T34 417Q21 419 17 420T11 436Q10 453 20 454T46 457Q107 460 142 439T200 368Q210 344 222 312T248 245T276
176T304 113H307L405 375Q415 404 406 411T367 418Q358 418 352 419T345 436Q345 442 348 449T359 456Q388 454 409 454T456 453Q469 453 478 453T496 453T514 454T539 456Q547 456 550 449T554 436Q553 421 547 420T532 418Q499 418 480 406T446 359L372 177Q358
142 345 109T321 50T303 8T296 -10ZM199 667Q225 667 242 650T259 607Q259 583 242 565T198 547Q172 547 154 565T136 607Q136 633 154 650T199 667ZM372 667Q398 667 415 650T432 607Q432 583 415 565T371 547Q345 547 327 565T309 607Q309 633 327 650T372 667Z"
/>
<glyph unicode="&#x2013;" glyph-name="endash" horiz-adv-x="558" d="M84 237Q73 237 67 245T61 264Q61 275 67 283T84 291H470Q481 291 487 283T493 264Q493 254 487 246T470 237H84Z" />
<glyph unicode="&#x2014;" glyph-name="emdash" horiz-adv-x="868" d="M84 237Q73 237 67 245T61 264Q61 275 67 283T84 291H780Q791 291 797 283T803 264Q803 254 797 246T780 237H84Z" />
<glyph unicode="&#x2018;" glyph-name="quoteleft" horiz-adv-x="226" d="M189 509Q189 490 175 475T139 459Q117 459 99 469T67 497T46 536T38 578Q38 609 51 633T86 676T133 706T186 726Q193 729 199 726T207 716T208 704T199 695Q157 679 136 658T114 606Q114
588 125 577T151 557T177 537T189 509Z" />
<glyph unicode="&#x2019;" glyph-name="quoteright" horiz-adv-x="239" d="M58 678Q58 697 72 712T108 728Q130 728 148 718T180 690T201 651T209 609Q209 578 196 554T161 511T114 481T61 461Q53 458 48 461T40 471T38 483T48 492Q90 508 111 529T133 581Q133
599 122 610T96 630T70 650T58 678Z" />
<glyph unicode="&#x201a;" glyph-name="quotesinglbase" horiz-adv-x="237" d="M45 97Q45 116 59 131T95 147Q117 147 135 137T167 109T188 70T196 28Q196 -3 183 -27T148 -70T101 -100T48 -120Q40 -123 35 -120T27 -110T25 -98T35 -89Q77 -73 98 -52T120 0Q120
18 109 29T83 49T57 69T45 97Z" />
<glyph unicode="&#x201c;" glyph-name="quotedblleft" horiz-adv-x="426" d="M389 510Q389 491 375 476T339 460Q317 460 299 470T267 498T246 537T238 579Q238 610 251 634T286 677T333 707T386 727Q393 730 399 727T407 717T408 705T399 696Q357 680 336 659T314
607Q314 589 325 578T351 558T377 538T389 510ZM189 510Q189 491 175 476T139 460Q117 460 99 470T67 498T46 537T38 579Q38 610 51 634T86 677T133 707T186 727Q193 730 199 727T207 717T208 705T199 696Q157 680 136 659T114 607Q114 589 125 578T151 558T177
538T189 510Z" />
<glyph unicode="&#x201d;" glyph-name="quotedblright" horiz-adv-x="438" d="M58 684Q58 703 72 718T108 734Q130 734 148 724T180 696T201 657T209 615Q209 584 196 560T161 517T114 487T61 467Q53 464 48 467T40 477T38 489T48 498Q90 514 111 535T133 587Q133
605 122 616T96 636T70 656T58 684ZM258 684Q258 703 272 718T308 734Q330 734 348 724T380 696T401 657T409 615Q409 584 396 560T361 517T314 487T261 467Q253 464 248 467T240 477T238 489T248 498Q290 514 311 535T333 587Q333 605 322 616T296 636T270 656T258
684Z" />
<glyph unicode="&#x201e;" glyph-name="quotedblbase" horiz-adv-x="437" d="M45 97Q45 116 59 131T95 147Q117 147 135 137T167 109T188 70T196 28Q196 -3 183 -27T148 -70T101 -100T48 -120Q40 -123 35 -120T27 -110T25 -98T35 -89Q77 -73 98 -52T120 0Q120
18 109 29T83 49T57 69T45 97ZM245 97Q245 116 259 131T295 147Q317 147 335 137T367 109T388 70T396 28Q396 -3 383 -27T348 -70T301 -100T248 -120Q240 -123 235 -120T227 -110T225 -98T235 -89Q277 -73 298 -52T320 0Q320 18 309 29T283 49T257 69T245 97Z"
/>
<glyph unicode="&#x2022;" glyph-name="bullet" horiz-adv-x="427" d="M212 153Q160 153 125 186T90 276Q90 301 99 322T125 360T164 386T213 396Q240 396 262 387T302 361T328 323T338 276Q338 248 329 226T302 187T262 162T212 153Z" />
<glyph unicode="&#x2039;" glyph-name="guilsinglleft" horiz-adv-x="274" d="M212 394Q219 397 226 391T232 374Q230 366 217 343T176 282L135 234Q177 174 203 141T232 94Q233 79 220 77T197 83Q166 115 135 146T63 212Q50 224 50 235Q50 246 63 257Q82 275
107 298T154 343T192 378T212 394Z" />
<glyph unicode="&#x203a;" glyph-name="guilsinglright" horiz-adv-x="274" d="M72 394Q75 393 91 379T130 343T176 299T221 257Q234 246 234 235Q234 224 221 212Q180 178 149 147T87 83Q82 78 76 77T65 76T55 82T52 94Q54 107 80 140T149 234L108 282Q80 319
67 342T52 374Q50 385 57 391T72 394Z" />
</font>
</defs>
</svg>
